M48
; DRILL file KiCad 10.0.5 date 2026-08-19T16:37:55
; FORMAT={-:-/ absolute / metric / decimal}
; #@! TF.CreationDate,2026-08-19T16:37:55+05:30
; #@! TF.GenerationSoftware,Kicad,Pcbnew,10.0.5
; #@! TF.FileFunction,Plated,1,2,PTH
FMAT,2
METRIC
; #@! TA.AperFunction,Plated,PTH,ViaDrill
T1C0.300
; #@! TA.AperFunction,Plated,PTH,ComponentDrill
T2C0.300
; #@! TA.AperFunction,Plated,PTH,ComponentDrill
T3C0.600
; #@! TA.AperFunction,Plated,PTH,ViaDrill
T4C0.800
; #@! TA.AperFunction,Plated,PTH,ComponentDrill
T5C1.000
; #@! TA.AperFunction,Plated,PTH,ComponentDrill
T6C2.700
; #@! TA.AperFunction,Plated,PTH,ComponentDrill
T7C3.500
; #@! TA.AperFunction,Plated,PTH,ComponentDrill
T8C6.500
%
G90
G05
T1
X154.53Y-63.58
X156.88Y-94.19
X157.22Y-65.6
X158.03Y-78.38
X161.81Y-89.84
X165.22Y-67.02
X165.63Y-86.98
X170.61Y-87.78
X173.135Y-78.355
X181.92Y-82.78
X182.32Y-86.64
X190.9Y-69.95
X203.02Y-83.92
X212.49Y-69.11
X212.53Y-84.33
T2
X176.43Y-77.22
X176.43Y-78.32
X176.43Y-79.62
X176.43Y-80.82
X177.63Y-77.22
X177.63Y-78.32
X177.63Y-79.62
X177.63Y-80.82
T4
X120.71Y-106.2
X120.71Y-108.98
X120.72Y-104.77
X120.72Y-107.59
X120.73Y-103.39
X120.76Y-96.68
X120.76Y-99.46
X120.77Y-95.25
X120.77Y-98.07
X120.77Y-102.01
X120.78Y-93.87
X120.79Y-100.8
X120.82Y-92.49
X120.84Y-91.28
X120.86Y-89.96
X122.04Y-108.98
X123.47Y-108.99
X124.86Y-108.98
X126.25Y-108.99
X161.48Y-103.62
X162.81Y-103.62
X164.24Y-103.63
X165.63Y-103.62
X167.02Y-103.63
X170.78Y-103.84
X172.11Y-103.84
X172.79Y-105.95
X173.54Y-103.85
X174.12Y-105.95
X174.93Y-103.84
X175.55Y-105.96
X176.32Y-103.85
X176.94Y-105.95
X178.33Y-105.96
X182.21Y-103.79
X183.54Y-103.79
X183.73Y-105.8
X184.97Y-103.8
X185.06Y-105.8
X186.36Y-103.79
X186.49Y-105.81
X187.75Y-103.8
X187.88Y-105.8
X189.27Y-105.81
X193.67Y-103.93
X194.85Y-105.76
X195.0Y-103.93
X196.18Y-105.76
X196.43Y-103.94
X197.61Y-105.77
X197.82Y-103.93
X199.0Y-105.76
X199.21Y-103.94
X200.39Y-105.77
X205.78Y-105.78
X207.11Y-105.78
X208.54Y-105.79
X209.93Y-105.78
X211.32Y-105.79
T5
X165.63Y-78.752
X165.63Y-83.752
X173.35Y-95.44
X173.35Y-100.44
X184.9Y-95.44
X184.9Y-100.44
X196.45Y-95.44
X196.45Y-100.44
X212.455Y-63.11
X212.455Y-65.61
X212.455Y-77.84
X212.455Y-80.34
T6
X120.89Y-75.99
X120.89Y-83.19
T7
X131.5Y-110.0
X142.5Y-110.0
X153.5Y-110.0
X164.5Y-110.0
X175.5Y-110.0
X186.5Y-110.0
X197.5Y-110.0
X208.5Y-110.0
T8
X132.075Y-63.49
X132.075Y-93.49
T3
G00X114.34Y-72.84
M15
G01X115.44Y-72.84
M16
G05
G00X114.34Y-86.34
M15
G01X115.44Y-86.34
M16
G05
M30
