%TF.GenerationSoftware,KiCad,Pcbnew,10.0.5*%
%TF.CreationDate,2026-08-19T16:42:30+05:30*%
%TF.ProjectId,pdb_aethrone,7064625f-6165-4746-9872-6f6e652e6b69,rev?*%
%TF.SameCoordinates,Original*%
%TF.FileFunction,Legend,Top*%
%TF.FilePolarity,Positive*%
%FSLAX46Y46*%
G04 Gerber Fmt 4.6, Leading zero omitted, Abs format (unit mm)*
G04 Created by KiCad (PCBNEW 10.0.5) date 2026-08-19 16:42:30*
%MOMM*%
%LPD*%
G01*
G04 APERTURE LIST*
%ADD10C,0.150000*%
%ADD11C,0.100000*%
%ADD12C,0.120000*%
G04 APERTURE END LIST*
D10*
X104166666Y-108804819D02*
X103833333Y-108328628D01*
X103595238Y-108804819D02*
X103595238Y-107804819D01*
X103595238Y-107804819D02*
X103976190Y-107804819D01*
X103976190Y-107804819D02*
X104071428Y-107852438D01*
X104071428Y-107852438D02*
X104119047Y-107900057D01*
X104119047Y-107900057D02*
X104166666Y-107995295D01*
X104166666Y-107995295D02*
X104166666Y-108138152D01*
X104166666Y-108138152D02*
X104119047Y-108233390D01*
X104119047Y-108233390D02*
X104071428Y-108281009D01*
X104071428Y-108281009D02*
X103976190Y-108328628D01*
X103976190Y-108328628D02*
X103595238Y-108328628D01*
X104595238Y-108281009D02*
X104928571Y-108281009D01*
X105071428Y-108804819D02*
X104595238Y-108804819D01*
X104595238Y-108804819D02*
X104595238Y-107804819D01*
X104595238Y-107804819D02*
X105071428Y-107804819D01*
X105833333Y-108281009D02*
X105500000Y-108281009D01*
X105500000Y-108804819D02*
X105500000Y-107804819D01*
X105500000Y-107804819D02*
X105976190Y-107804819D01*
X106500000Y-107804819D02*
X106500000Y-108042914D01*
X106261905Y-107947676D02*
X106500000Y-108042914D01*
X106500000Y-108042914D02*
X106738095Y-107947676D01*
X106357143Y-108233390D02*
X106500000Y-108042914D01*
X106500000Y-108042914D02*
X106642857Y-108233390D01*
X107261905Y-107804819D02*
X107261905Y-108042914D01*
X107023810Y-107947676D02*
X107261905Y-108042914D01*
X107261905Y-108042914D02*
X107500000Y-107947676D01*
X107119048Y-108233390D02*
X107261905Y-108042914D01*
X107261905Y-108042914D02*
X107404762Y-108233390D01*
X214666666Y-108804819D02*
X214333333Y-108328628D01*
X214095238Y-108804819D02*
X214095238Y-107804819D01*
X214095238Y-107804819D02*
X214476190Y-107804819D01*
X214476190Y-107804819D02*
X214571428Y-107852438D01*
X214571428Y-107852438D02*
X214619047Y-107900057D01*
X214619047Y-107900057D02*
X214666666Y-107995295D01*
X214666666Y-107995295D02*
X214666666Y-108138152D01*
X214666666Y-108138152D02*
X214619047Y-108233390D01*
X214619047Y-108233390D02*
X214571428Y-108281009D01*
X214571428Y-108281009D02*
X214476190Y-108328628D01*
X214476190Y-108328628D02*
X214095238Y-108328628D01*
X215095238Y-108281009D02*
X215428571Y-108281009D01*
X215571428Y-108804819D02*
X215095238Y-108804819D01*
X215095238Y-108804819D02*
X215095238Y-107804819D01*
X215095238Y-107804819D02*
X215571428Y-107804819D01*
X216333333Y-108281009D02*
X216000000Y-108281009D01*
X216000000Y-108804819D02*
X216000000Y-107804819D01*
X216000000Y-107804819D02*
X216476190Y-107804819D01*
X217000000Y-107804819D02*
X217000000Y-108042914D01*
X216761905Y-107947676D02*
X217000000Y-108042914D01*
X217000000Y-108042914D02*
X217238095Y-107947676D01*
X216857143Y-108233390D02*
X217000000Y-108042914D01*
X217000000Y-108042914D02*
X217142857Y-108233390D01*
X217761905Y-107804819D02*
X217761905Y-108042914D01*
X217523810Y-107947676D02*
X217761905Y-108042914D01*
X217761905Y-108042914D02*
X218000000Y-107947676D01*
X217619048Y-108233390D02*
X217761905Y-108042914D01*
X217761905Y-108042914D02*
X217904762Y-108233390D01*
X214666666Y-50804819D02*
X214333333Y-50328628D01*
X214095238Y-50804819D02*
X214095238Y-49804819D01*
X214095238Y-49804819D02*
X214476190Y-49804819D01*
X214476190Y-49804819D02*
X214571428Y-49852438D01*
X214571428Y-49852438D02*
X214619047Y-49900057D01*
X214619047Y-49900057D02*
X214666666Y-49995295D01*
X214666666Y-49995295D02*
X214666666Y-50138152D01*
X214666666Y-50138152D02*
X214619047Y-50233390D01*
X214619047Y-50233390D02*
X214571428Y-50281009D01*
X214571428Y-50281009D02*
X214476190Y-50328628D01*
X214476190Y-50328628D02*
X214095238Y-50328628D01*
X215095238Y-50281009D02*
X215428571Y-50281009D01*
X215571428Y-50804819D02*
X215095238Y-50804819D01*
X215095238Y-50804819D02*
X215095238Y-49804819D01*
X215095238Y-49804819D02*
X215571428Y-49804819D01*
X216333333Y-50281009D02*
X216000000Y-50281009D01*
X216000000Y-50804819D02*
X216000000Y-49804819D01*
X216000000Y-49804819D02*
X216476190Y-49804819D01*
X217000000Y-49804819D02*
X217000000Y-50042914D01*
X216761905Y-49947676D02*
X217000000Y-50042914D01*
X217000000Y-50042914D02*
X217238095Y-49947676D01*
X216857143Y-50233390D02*
X217000000Y-50042914D01*
X217000000Y-50042914D02*
X217142857Y-50233390D01*
X217761905Y-49804819D02*
X217761905Y-50042914D01*
X217523810Y-49947676D02*
X217761905Y-50042914D01*
X217761905Y-50042914D02*
X218000000Y-49947676D01*
X217619048Y-50233390D02*
X217761905Y-50042914D01*
X217761905Y-50042914D02*
X217904762Y-50233390D01*
X104166666Y-50804819D02*
X103833333Y-50328628D01*
X103595238Y-50804819D02*
X103595238Y-49804819D01*
X103595238Y-49804819D02*
X103976190Y-49804819D01*
X103976190Y-49804819D02*
X104071428Y-49852438D01*
X104071428Y-49852438D02*
X104119047Y-49900057D01*
X104119047Y-49900057D02*
X104166666Y-49995295D01*
X104166666Y-49995295D02*
X104166666Y-50138152D01*
X104166666Y-50138152D02*
X104119047Y-50233390D01*
X104119047Y-50233390D02*
X104071428Y-50281009D01*
X104071428Y-50281009D02*
X103976190Y-50328628D01*
X103976190Y-50328628D02*
X103595238Y-50328628D01*
X104595238Y-50281009D02*
X104928571Y-50281009D01*
X105071428Y-50804819D02*
X104595238Y-50804819D01*
X104595238Y-50804819D02*
X104595238Y-49804819D01*
X104595238Y-49804819D02*
X105071428Y-49804819D01*
X105833333Y-50281009D02*
X105500000Y-50281009D01*
X105500000Y-50804819D02*
X105500000Y-49804819D01*
X105500000Y-49804819D02*
X105976190Y-49804819D01*
X106500000Y-49804819D02*
X106500000Y-50042914D01*
X106261905Y-49947676D02*
X106500000Y-50042914D01*
X106500000Y-50042914D02*
X106738095Y-49947676D01*
X106357143Y-50233390D02*
X106500000Y-50042914D01*
X106500000Y-50042914D02*
X106642857Y-50233390D01*
X107261905Y-49804819D02*
X107261905Y-50042914D01*
X107023810Y-49947676D02*
X107261905Y-50042914D01*
X107261905Y-50042914D02*
X107500000Y-49947676D01*
X107119048Y-50233390D02*
X107261905Y-50042914D01*
X107261905Y-50042914D02*
X107404762Y-50233390D01*
X176268095Y-75074819D02*
X176268095Y-75884342D01*
X176268095Y-75884342D02*
X176315714Y-75979580D01*
X176315714Y-75979580D02*
X176363333Y-76027200D01*
X176363333Y-76027200D02*
X176458571Y-76074819D01*
X176458571Y-76074819D02*
X176649047Y-76074819D01*
X176649047Y-76074819D02*
X176744285Y-76027200D01*
X176744285Y-76027200D02*
X176791904Y-75979580D01*
X176791904Y-75979580D02*
X176839523Y-75884342D01*
X176839523Y-75884342D02*
X176839523Y-75074819D01*
X177268095Y-75170057D02*
X177315714Y-75122438D01*
X177315714Y-75122438D02*
X177410952Y-75074819D01*
X177410952Y-75074819D02*
X177649047Y-75074819D01*
X177649047Y-75074819D02*
X177744285Y-75122438D01*
X177744285Y-75122438D02*
X177791904Y-75170057D01*
X177791904Y-75170057D02*
X177839523Y-75265295D01*
X177839523Y-75265295D02*
X177839523Y-75360533D01*
X177839523Y-75360533D02*
X177791904Y-75503390D01*
X177791904Y-75503390D02*
X177220476Y-76074819D01*
X177220476Y-76074819D02*
X177839523Y-76074819D01*
D11*
X128023809Y-106093609D02*
X128357142Y-106093609D01*
X128499999Y-106617419D02*
X128023809Y-106617419D01*
X128023809Y-106617419D02*
X128023809Y-105617419D01*
X128023809Y-105617419D02*
X128499999Y-105617419D01*
X128880952Y-106569800D02*
X129023809Y-106617419D01*
X129023809Y-106617419D02*
X129261904Y-106617419D01*
X129261904Y-106617419D02*
X129357142Y-106569800D01*
X129357142Y-106569800D02*
X129404761Y-106522180D01*
X129404761Y-106522180D02*
X129452380Y-106426942D01*
X129452380Y-106426942D02*
X129452380Y-106331704D01*
X129452380Y-106331704D02*
X129404761Y-106236466D01*
X129404761Y-106236466D02*
X129357142Y-106188847D01*
X129357142Y-106188847D02*
X129261904Y-106141228D01*
X129261904Y-106141228D02*
X129071428Y-106093609D01*
X129071428Y-106093609D02*
X128976190Y-106045990D01*
X128976190Y-106045990D02*
X128928571Y-105998371D01*
X128928571Y-105998371D02*
X128880952Y-105903133D01*
X128880952Y-105903133D02*
X128880952Y-105807895D01*
X128880952Y-105807895D02*
X128928571Y-105712657D01*
X128928571Y-105712657D02*
X128976190Y-105665038D01*
X128976190Y-105665038D02*
X129071428Y-105617419D01*
X129071428Y-105617419D02*
X129309523Y-105617419D01*
X129309523Y-105617419D02*
X129452380Y-105665038D01*
X130452380Y-106522180D02*
X130404761Y-106569800D01*
X130404761Y-106569800D02*
X130261904Y-106617419D01*
X130261904Y-106617419D02*
X130166666Y-106617419D01*
X130166666Y-106617419D02*
X130023809Y-106569800D01*
X130023809Y-106569800D02*
X129928571Y-106474561D01*
X129928571Y-106474561D02*
X129880952Y-106379323D01*
X129880952Y-106379323D02*
X129833333Y-106188847D01*
X129833333Y-106188847D02*
X129833333Y-106045990D01*
X129833333Y-106045990D02*
X129880952Y-105855514D01*
X129880952Y-105855514D02*
X129928571Y-105760276D01*
X129928571Y-105760276D02*
X130023809Y-105665038D01*
X130023809Y-105665038D02*
X130166666Y-105617419D01*
X130166666Y-105617419D02*
X130261904Y-105617419D01*
X130261904Y-105617419D02*
X130404761Y-105665038D01*
X130404761Y-105665038D02*
X130452380Y-105712657D01*
X130642857Y-106712657D02*
X131404761Y-106712657D01*
X131833333Y-105617419D02*
X132023809Y-105617419D01*
X132023809Y-105617419D02*
X132119047Y-105665038D01*
X132119047Y-105665038D02*
X132214285Y-105760276D01*
X132214285Y-105760276D02*
X132261904Y-105950752D01*
X132261904Y-105950752D02*
X132261904Y-106284085D01*
X132261904Y-106284085D02*
X132214285Y-106474561D01*
X132214285Y-106474561D02*
X132119047Y-106569800D01*
X132119047Y-106569800D02*
X132023809Y-106617419D01*
X132023809Y-106617419D02*
X131833333Y-106617419D01*
X131833333Y-106617419D02*
X131738095Y-106569800D01*
X131738095Y-106569800D02*
X131642857Y-106474561D01*
X131642857Y-106474561D02*
X131595238Y-106284085D01*
X131595238Y-106284085D02*
X131595238Y-105950752D01*
X131595238Y-105950752D02*
X131642857Y-105760276D01*
X131642857Y-105760276D02*
X131738095Y-105665038D01*
X131738095Y-105665038D02*
X131833333Y-105617419D01*
X132690476Y-105617419D02*
X132690476Y-106426942D01*
X132690476Y-106426942D02*
X132738095Y-106522180D01*
X132738095Y-106522180D02*
X132785714Y-106569800D01*
X132785714Y-106569800D02*
X132880952Y-106617419D01*
X132880952Y-106617419D02*
X133071428Y-106617419D01*
X133071428Y-106617419D02*
X133166666Y-106569800D01*
X133166666Y-106569800D02*
X133214285Y-106522180D01*
X133214285Y-106522180D02*
X133261904Y-106426942D01*
X133261904Y-106426942D02*
X133261904Y-105617419D01*
X133595238Y-105617419D02*
X134166666Y-105617419D01*
X133880952Y-106617419D02*
X133880952Y-105617419D01*
X135023809Y-106617419D02*
X134452381Y-106617419D01*
X134738095Y-106617419D02*
X134738095Y-105617419D01*
X134738095Y-105617419D02*
X134642857Y-105760276D01*
X134642857Y-105760276D02*
X134547619Y-105855514D01*
X134547619Y-105855514D02*
X134452381Y-105903133D01*
D10*
X164272142Y-70309580D02*
X164224523Y-70357200D01*
X164224523Y-70357200D02*
X164081666Y-70404819D01*
X164081666Y-70404819D02*
X163986428Y-70404819D01*
X163986428Y-70404819D02*
X163843571Y-70357200D01*
X163843571Y-70357200D02*
X163748333Y-70261961D01*
X163748333Y-70261961D02*
X163700714Y-70166723D01*
X163700714Y-70166723D02*
X163653095Y-69976247D01*
X163653095Y-69976247D02*
X163653095Y-69833390D01*
X163653095Y-69833390D02*
X163700714Y-69642914D01*
X163700714Y-69642914D02*
X163748333Y-69547676D01*
X163748333Y-69547676D02*
X163843571Y-69452438D01*
X163843571Y-69452438D02*
X163986428Y-69404819D01*
X163986428Y-69404819D02*
X164081666Y-69404819D01*
X164081666Y-69404819D02*
X164224523Y-69452438D01*
X164224523Y-69452438D02*
X164272142Y-69500057D01*
X165224523Y-70404819D02*
X164653095Y-70404819D01*
X164938809Y-70404819D02*
X164938809Y-69404819D01*
X164938809Y-69404819D02*
X164843571Y-69547676D01*
X164843571Y-69547676D02*
X164748333Y-69642914D01*
X164748333Y-69642914D02*
X164653095Y-69690533D01*
X166176904Y-70404819D02*
X165605476Y-70404819D01*
X165891190Y-70404819D02*
X165891190Y-69404819D01*
X165891190Y-69404819D02*
X165795952Y-69547676D01*
X165795952Y-69547676D02*
X165700714Y-69642914D01*
X165700714Y-69642914D02*
X165605476Y-69690533D01*
X183383333Y-78204819D02*
X183050000Y-77728628D01*
X182811905Y-78204819D02*
X182811905Y-77204819D01*
X182811905Y-77204819D02*
X183192857Y-77204819D01*
X183192857Y-77204819D02*
X183288095Y-77252438D01*
X183288095Y-77252438D02*
X183335714Y-77300057D01*
X183335714Y-77300057D02*
X183383333Y-77395295D01*
X183383333Y-77395295D02*
X183383333Y-77538152D01*
X183383333Y-77538152D02*
X183335714Y-77633390D01*
X183335714Y-77633390D02*
X183288095Y-77681009D01*
X183288095Y-77681009D02*
X183192857Y-77728628D01*
X183192857Y-77728628D02*
X182811905Y-77728628D01*
X183764286Y-77300057D02*
X183811905Y-77252438D01*
X183811905Y-77252438D02*
X183907143Y-77204819D01*
X183907143Y-77204819D02*
X184145238Y-77204819D01*
X184145238Y-77204819D02*
X184240476Y-77252438D01*
X184240476Y-77252438D02*
X184288095Y-77300057D01*
X184288095Y-77300057D02*
X184335714Y-77395295D01*
X184335714Y-77395295D02*
X184335714Y-77490533D01*
X184335714Y-77490533D02*
X184288095Y-77633390D01*
X184288095Y-77633390D02*
X183716667Y-78204819D01*
X183716667Y-78204819D02*
X184335714Y-78204819D01*
X191433333Y-89784819D02*
X190957143Y-89784819D01*
X190957143Y-89784819D02*
X190957143Y-88784819D01*
X191719048Y-88880057D02*
X191766667Y-88832438D01*
X191766667Y-88832438D02*
X191861905Y-88784819D01*
X191861905Y-88784819D02*
X192100000Y-88784819D01*
X192100000Y-88784819D02*
X192195238Y-88832438D01*
X192195238Y-88832438D02*
X192242857Y-88880057D01*
X192242857Y-88880057D02*
X192290476Y-88975295D01*
X192290476Y-88975295D02*
X192290476Y-89070533D01*
X192290476Y-89070533D02*
X192242857Y-89213390D01*
X192242857Y-89213390D02*
X191671429Y-89784819D01*
X191671429Y-89784819D02*
X192290476Y-89784819D01*
X158739405Y-88294819D02*
X158739405Y-87294819D01*
X158739405Y-87294819D02*
X158977500Y-87294819D01*
X158977500Y-87294819D02*
X159120357Y-87342438D01*
X159120357Y-87342438D02*
X159215595Y-87437676D01*
X159215595Y-87437676D02*
X159263214Y-87532914D01*
X159263214Y-87532914D02*
X159310833Y-87723390D01*
X159310833Y-87723390D02*
X159310833Y-87866247D01*
X159310833Y-87866247D02*
X159263214Y-88056723D01*
X159263214Y-88056723D02*
X159215595Y-88151961D01*
X159215595Y-88151961D02*
X159120357Y-88247200D01*
X159120357Y-88247200D02*
X158977500Y-88294819D01*
X158977500Y-88294819D02*
X158739405Y-88294819D01*
X159691786Y-87390057D02*
X159739405Y-87342438D01*
X159739405Y-87342438D02*
X159834643Y-87294819D01*
X159834643Y-87294819D02*
X160072738Y-87294819D01*
X160072738Y-87294819D02*
X160167976Y-87342438D01*
X160167976Y-87342438D02*
X160215595Y-87390057D01*
X160215595Y-87390057D02*
X160263214Y-87485295D01*
X160263214Y-87485295D02*
X160263214Y-87580533D01*
X160263214Y-87580533D02*
X160215595Y-87723390D01*
X160215595Y-87723390D02*
X159644167Y-88294819D01*
X159644167Y-88294819D02*
X160263214Y-88294819D01*
X172263333Y-89649580D02*
X172215714Y-89697200D01*
X172215714Y-89697200D02*
X172072857Y-89744819D01*
X172072857Y-89744819D02*
X171977619Y-89744819D01*
X171977619Y-89744819D02*
X171834762Y-89697200D01*
X171834762Y-89697200D02*
X171739524Y-89601961D01*
X171739524Y-89601961D02*
X171691905Y-89506723D01*
X171691905Y-89506723D02*
X171644286Y-89316247D01*
X171644286Y-89316247D02*
X171644286Y-89173390D01*
X171644286Y-89173390D02*
X171691905Y-88982914D01*
X171691905Y-88982914D02*
X171739524Y-88887676D01*
X171739524Y-88887676D02*
X171834762Y-88792438D01*
X171834762Y-88792438D02*
X171977619Y-88744819D01*
X171977619Y-88744819D02*
X172072857Y-88744819D01*
X172072857Y-88744819D02*
X172215714Y-88792438D01*
X172215714Y-88792438D02*
X172263333Y-88840057D01*
X173120476Y-88744819D02*
X172930000Y-88744819D01*
X172930000Y-88744819D02*
X172834762Y-88792438D01*
X172834762Y-88792438D02*
X172787143Y-88840057D01*
X172787143Y-88840057D02*
X172691905Y-88982914D01*
X172691905Y-88982914D02*
X172644286Y-89173390D01*
X172644286Y-89173390D02*
X172644286Y-89554342D01*
X172644286Y-89554342D02*
X172691905Y-89649580D01*
X172691905Y-89649580D02*
X172739524Y-89697200D01*
X172739524Y-89697200D02*
X172834762Y-89744819D01*
X172834762Y-89744819D02*
X173025238Y-89744819D01*
X173025238Y-89744819D02*
X173120476Y-89697200D01*
X173120476Y-89697200D02*
X173168095Y-89649580D01*
X173168095Y-89649580D02*
X173215714Y-89554342D01*
X173215714Y-89554342D02*
X173215714Y-89316247D01*
X173215714Y-89316247D02*
X173168095Y-89221009D01*
X173168095Y-89221009D02*
X173120476Y-89173390D01*
X173120476Y-89173390D02*
X173025238Y-89125771D01*
X173025238Y-89125771D02*
X172834762Y-89125771D01*
X172834762Y-89125771D02*
X172739524Y-89173390D01*
X172739524Y-89173390D02*
X172691905Y-89221009D01*
X172691905Y-89221009D02*
X172644286Y-89316247D01*
X177959405Y-89594819D02*
X177959405Y-88594819D01*
X177959405Y-88594819D02*
X178197500Y-88594819D01*
X178197500Y-88594819D02*
X178340357Y-88642438D01*
X178340357Y-88642438D02*
X178435595Y-88737676D01*
X178435595Y-88737676D02*
X178483214Y-88832914D01*
X178483214Y-88832914D02*
X178530833Y-89023390D01*
X178530833Y-89023390D02*
X178530833Y-89166247D01*
X178530833Y-89166247D02*
X178483214Y-89356723D01*
X178483214Y-89356723D02*
X178435595Y-89451961D01*
X178435595Y-89451961D02*
X178340357Y-89547200D01*
X178340357Y-89547200D02*
X178197500Y-89594819D01*
X178197500Y-89594819D02*
X177959405Y-89594819D01*
X178864167Y-88594819D02*
X179483214Y-88594819D01*
X179483214Y-88594819D02*
X179149881Y-88975771D01*
X179149881Y-88975771D02*
X179292738Y-88975771D01*
X179292738Y-88975771D02*
X179387976Y-89023390D01*
X179387976Y-89023390D02*
X179435595Y-89071009D01*
X179435595Y-89071009D02*
X179483214Y-89166247D01*
X179483214Y-89166247D02*
X179483214Y-89404342D01*
X179483214Y-89404342D02*
X179435595Y-89499580D01*
X179435595Y-89499580D02*
X179387976Y-89547200D01*
X179387976Y-89547200D02*
X179292738Y-89594819D01*
X179292738Y-89594819D02*
X179007024Y-89594819D01*
X179007024Y-89594819D02*
X178911786Y-89547200D01*
X178911786Y-89547200D02*
X178864167Y-89499580D01*
X202893333Y-84309580D02*
X202845714Y-84357200D01*
X202845714Y-84357200D02*
X202702857Y-84404819D01*
X202702857Y-84404819D02*
X202607619Y-84404819D01*
X202607619Y-84404819D02*
X202464762Y-84357200D01*
X202464762Y-84357200D02*
X202369524Y-84261961D01*
X202369524Y-84261961D02*
X202321905Y-84166723D01*
X202321905Y-84166723D02*
X202274286Y-83976247D01*
X202274286Y-83976247D02*
X202274286Y-83833390D01*
X202274286Y-83833390D02*
X202321905Y-83642914D01*
X202321905Y-83642914D02*
X202369524Y-83547676D01*
X202369524Y-83547676D02*
X202464762Y-83452438D01*
X202464762Y-83452438D02*
X202607619Y-83404819D01*
X202607619Y-83404819D02*
X202702857Y-83404819D01*
X202702857Y-83404819D02*
X202845714Y-83452438D01*
X202845714Y-83452438D02*
X202893333Y-83500057D01*
X203226667Y-83404819D02*
X203893333Y-83404819D01*
X203893333Y-83404819D02*
X203464762Y-84404819D01*
X176738333Y-84409580D02*
X176690714Y-84457200D01*
X176690714Y-84457200D02*
X176547857Y-84504819D01*
X176547857Y-84504819D02*
X176452619Y-84504819D01*
X176452619Y-84504819D02*
X176309762Y-84457200D01*
X176309762Y-84457200D02*
X176214524Y-84361961D01*
X176214524Y-84361961D02*
X176166905Y-84266723D01*
X176166905Y-84266723D02*
X176119286Y-84076247D01*
X176119286Y-84076247D02*
X176119286Y-83933390D01*
X176119286Y-83933390D02*
X176166905Y-83742914D01*
X176166905Y-83742914D02*
X176214524Y-83647676D01*
X176214524Y-83647676D02*
X176309762Y-83552438D01*
X176309762Y-83552438D02*
X176452619Y-83504819D01*
X176452619Y-83504819D02*
X176547857Y-83504819D01*
X176547857Y-83504819D02*
X176690714Y-83552438D01*
X176690714Y-83552438D02*
X176738333Y-83600057D01*
X177309762Y-83933390D02*
X177214524Y-83885771D01*
X177214524Y-83885771D02*
X177166905Y-83838152D01*
X177166905Y-83838152D02*
X177119286Y-83742914D01*
X177119286Y-83742914D02*
X177119286Y-83695295D01*
X177119286Y-83695295D02*
X177166905Y-83600057D01*
X177166905Y-83600057D02*
X177214524Y-83552438D01*
X177214524Y-83552438D02*
X177309762Y-83504819D01*
X177309762Y-83504819D02*
X177500238Y-83504819D01*
X177500238Y-83504819D02*
X177595476Y-83552438D01*
X177595476Y-83552438D02*
X177643095Y-83600057D01*
X177643095Y-83600057D02*
X177690714Y-83695295D01*
X177690714Y-83695295D02*
X177690714Y-83742914D01*
X177690714Y-83742914D02*
X177643095Y-83838152D01*
X177643095Y-83838152D02*
X177595476Y-83885771D01*
X177595476Y-83885771D02*
X177500238Y-83933390D01*
X177500238Y-83933390D02*
X177309762Y-83933390D01*
X177309762Y-83933390D02*
X177214524Y-83981009D01*
X177214524Y-83981009D02*
X177166905Y-84028628D01*
X177166905Y-84028628D02*
X177119286Y-84123866D01*
X177119286Y-84123866D02*
X177119286Y-84314342D01*
X177119286Y-84314342D02*
X177166905Y-84409580D01*
X177166905Y-84409580D02*
X177214524Y-84457200D01*
X177214524Y-84457200D02*
X177309762Y-84504819D01*
X177309762Y-84504819D02*
X177500238Y-84504819D01*
X177500238Y-84504819D02*
X177595476Y-84457200D01*
X177595476Y-84457200D02*
X177643095Y-84409580D01*
X177643095Y-84409580D02*
X177690714Y-84314342D01*
X177690714Y-84314342D02*
X177690714Y-84123866D01*
X177690714Y-84123866D02*
X177643095Y-84028628D01*
X177643095Y-84028628D02*
X177595476Y-83981009D01*
X177595476Y-83981009D02*
X177500238Y-83933390D01*
X183433333Y-81374819D02*
X183100000Y-80898628D01*
X182861905Y-81374819D02*
X182861905Y-80374819D01*
X182861905Y-80374819D02*
X183242857Y-80374819D01*
X183242857Y-80374819D02*
X183338095Y-80422438D01*
X183338095Y-80422438D02*
X183385714Y-80470057D01*
X183385714Y-80470057D02*
X183433333Y-80565295D01*
X183433333Y-80565295D02*
X183433333Y-80708152D01*
X183433333Y-80708152D02*
X183385714Y-80803390D01*
X183385714Y-80803390D02*
X183338095Y-80851009D01*
X183338095Y-80851009D02*
X183242857Y-80898628D01*
X183242857Y-80898628D02*
X182861905Y-80898628D01*
X183766667Y-80374819D02*
X184385714Y-80374819D01*
X184385714Y-80374819D02*
X184052381Y-80755771D01*
X184052381Y-80755771D02*
X184195238Y-80755771D01*
X184195238Y-80755771D02*
X184290476Y-80803390D01*
X184290476Y-80803390D02*
X184338095Y-80851009D01*
X184338095Y-80851009D02*
X184385714Y-80946247D01*
X184385714Y-80946247D02*
X184385714Y-81184342D01*
X184385714Y-81184342D02*
X184338095Y-81279580D01*
X184338095Y-81279580D02*
X184290476Y-81327200D01*
X184290476Y-81327200D02*
X184195238Y-81374819D01*
X184195238Y-81374819D02*
X183909524Y-81374819D01*
X183909524Y-81374819D02*
X183814286Y-81327200D01*
X183814286Y-81327200D02*
X183766667Y-81279580D01*
X210785714Y-73454819D02*
X210309524Y-73454819D01*
X210309524Y-73454819D02*
X210261905Y-73931009D01*
X210261905Y-73931009D02*
X210309524Y-73883390D01*
X210309524Y-73883390D02*
X210404762Y-73835771D01*
X210404762Y-73835771D02*
X210642857Y-73835771D01*
X210642857Y-73835771D02*
X210738095Y-73883390D01*
X210738095Y-73883390D02*
X210785714Y-73931009D01*
X210785714Y-73931009D02*
X210833333Y-74026247D01*
X210833333Y-74026247D02*
X210833333Y-74264342D01*
X210833333Y-74264342D02*
X210785714Y-74359580D01*
X210785714Y-74359580D02*
X210738095Y-74407200D01*
X210738095Y-74407200D02*
X210642857Y-74454819D01*
X210642857Y-74454819D02*
X210404762Y-74454819D01*
X210404762Y-74454819D02*
X210309524Y-74407200D01*
X210309524Y-74407200D02*
X210261905Y-74359580D01*
X211119048Y-73454819D02*
X211452381Y-74454819D01*
X211452381Y-74454819D02*
X211785714Y-73454819D01*
X212738095Y-73978628D02*
X212690476Y-73931009D01*
X212690476Y-73931009D02*
X212595238Y-73883390D01*
X212595238Y-73883390D02*
X212500000Y-73883390D01*
X212500000Y-73883390D02*
X212404762Y-73931009D01*
X212404762Y-73931009D02*
X212357143Y-73978628D01*
X212357143Y-73978628D02*
X212309524Y-74073866D01*
X212309524Y-74073866D02*
X212309524Y-74169104D01*
X212309524Y-74169104D02*
X212357143Y-74264342D01*
X212357143Y-74264342D02*
X212404762Y-74311961D01*
X212404762Y-74311961D02*
X212500000Y-74359580D01*
X212500000Y-74359580D02*
X212595238Y-74359580D01*
X212595238Y-74359580D02*
X212690476Y-74311961D01*
X212690476Y-74311961D02*
X212738095Y-74264342D01*
X212738095Y-73883390D02*
X212738095Y-74264342D01*
X212738095Y-74264342D02*
X212785714Y-74311961D01*
X212785714Y-74311961D02*
X212833333Y-74311961D01*
X212833333Y-74311961D02*
X212928572Y-74264342D01*
X212928572Y-74264342D02*
X212976191Y-74169104D01*
X212976191Y-74169104D02*
X212976191Y-73931009D01*
X212976191Y-73931009D02*
X212880953Y-73788152D01*
X212880953Y-73788152D02*
X212738095Y-73692914D01*
X212738095Y-73692914D02*
X212547619Y-73645295D01*
X212547619Y-73645295D02*
X212357143Y-73692914D01*
X212357143Y-73692914D02*
X212214286Y-73788152D01*
X212214286Y-73788152D02*
X212119048Y-73931009D01*
X212119048Y-73931009D02*
X212071429Y-74121485D01*
X212071429Y-74121485D02*
X212119048Y-74311961D01*
X212119048Y-74311961D02*
X212214286Y-74454819D01*
X212214286Y-74454819D02*
X212357143Y-74550057D01*
X212357143Y-74550057D02*
X212547619Y-74597676D01*
X212547619Y-74597676D02*
X212738095Y-74550057D01*
X212738095Y-74550057D02*
X212880953Y-74454819D01*
X213309524Y-73454819D02*
X213928571Y-73454819D01*
X213928571Y-73454819D02*
X213595238Y-73835771D01*
X213595238Y-73835771D02*
X213738095Y-73835771D01*
X213738095Y-73835771D02*
X213833333Y-73883390D01*
X213833333Y-73883390D02*
X213880952Y-73931009D01*
X213880952Y-73931009D02*
X213928571Y-74026247D01*
X213928571Y-74026247D02*
X213928571Y-74264342D01*
X213928571Y-74264342D02*
X213880952Y-74359580D01*
X213880952Y-74359580D02*
X213833333Y-74407200D01*
X213833333Y-74407200D02*
X213738095Y-74454819D01*
X213738095Y-74454819D02*
X213452381Y-74454819D01*
X213452381Y-74454819D02*
X213357143Y-74407200D01*
X213357143Y-74407200D02*
X213309524Y-74359580D01*
X214309524Y-74169104D02*
X214785714Y-74169104D01*
X214214286Y-74454819D02*
X214547619Y-73454819D01*
X214547619Y-73454819D02*
X214880952Y-74454819D01*
X215738095Y-74454819D02*
X215166667Y-74454819D01*
X215452381Y-74454819D02*
X215452381Y-73454819D01*
X215452381Y-73454819D02*
X215357143Y-73597676D01*
X215357143Y-73597676D02*
X215261905Y-73692914D01*
X215261905Y-73692914D02*
X215166667Y-73740533D01*
X146654761Y-104300057D02*
X146559523Y-104252438D01*
X146559523Y-104252438D02*
X146464285Y-104157200D01*
X146464285Y-104157200D02*
X146321428Y-104014342D01*
X146321428Y-104014342D02*
X146226190Y-103966723D01*
X146226190Y-103966723D02*
X146130952Y-103966723D01*
X146178571Y-104204819D02*
X146083333Y-104157200D01*
X146083333Y-104157200D02*
X145988095Y-104061961D01*
X145988095Y-104061961D02*
X145940476Y-103871485D01*
X145940476Y-103871485D02*
X145940476Y-103538152D01*
X145940476Y-103538152D02*
X145988095Y-103347676D01*
X145988095Y-103347676D02*
X146083333Y-103252438D01*
X146083333Y-103252438D02*
X146178571Y-103204819D01*
X146178571Y-103204819D02*
X146369047Y-103204819D01*
X146369047Y-103204819D02*
X146464285Y-103252438D01*
X146464285Y-103252438D02*
X146559523Y-103347676D01*
X146559523Y-103347676D02*
X146607142Y-103538152D01*
X146607142Y-103538152D02*
X146607142Y-103871485D01*
X146607142Y-103871485D02*
X146559523Y-104061961D01*
X146559523Y-104061961D02*
X146464285Y-104157200D01*
X146464285Y-104157200D02*
X146369047Y-104204819D01*
X146369047Y-104204819D02*
X146178571Y-104204819D01*
X147559523Y-104204819D02*
X146988095Y-104204819D01*
X147273809Y-104204819D02*
X147273809Y-103204819D01*
X147273809Y-103204819D02*
X147178571Y-103347676D01*
X147178571Y-103347676D02*
X147083333Y-103442914D01*
X147083333Y-103442914D02*
X146988095Y-103490533D01*
X148033333Y-74604819D02*
X147557143Y-74604819D01*
X147557143Y-74604819D02*
X147557143Y-73604819D01*
X148890476Y-74604819D02*
X148319048Y-74604819D01*
X148604762Y-74604819D02*
X148604762Y-73604819D01*
X148604762Y-73604819D02*
X148509524Y-73747676D01*
X148509524Y-73747676D02*
X148414286Y-73842914D01*
X148414286Y-73842914D02*
X148319048Y-73890533D01*
X157588095Y-93644819D02*
X157588095Y-94454342D01*
X157588095Y-94454342D02*
X157635714Y-94549580D01*
X157635714Y-94549580D02*
X157683333Y-94597200D01*
X157683333Y-94597200D02*
X157778571Y-94644819D01*
X157778571Y-94644819D02*
X157969047Y-94644819D01*
X157969047Y-94644819D02*
X158064285Y-94597200D01*
X158064285Y-94597200D02*
X158111904Y-94549580D01*
X158111904Y-94549580D02*
X158159523Y-94454342D01*
X158159523Y-94454342D02*
X158159523Y-93644819D01*
X159159523Y-94644819D02*
X158588095Y-94644819D01*
X158873809Y-94644819D02*
X158873809Y-93644819D01*
X158873809Y-93644819D02*
X158778571Y-93787676D01*
X158778571Y-93787676D02*
X158683333Y-93882914D01*
X158683333Y-93882914D02*
X158588095Y-93930533D01*
D11*
X131666666Y-53528609D02*
X131333333Y-53528609D01*
X131333333Y-54052419D02*
X131333333Y-53052419D01*
X131333333Y-53052419D02*
X131809523Y-53052419D01*
X132714285Y-54052419D02*
X132142857Y-54052419D01*
X132428571Y-54052419D02*
X132428571Y-53052419D01*
X132428571Y-53052419D02*
X132333333Y-53195276D01*
X132333333Y-53195276D02*
X132238095Y-53290514D01*
X132238095Y-53290514D02*
X132142857Y-53338133D01*
D10*
X152559580Y-66817857D02*
X152607200Y-66865476D01*
X152607200Y-66865476D02*
X152654819Y-67008333D01*
X152654819Y-67008333D02*
X152654819Y-67103571D01*
X152654819Y-67103571D02*
X152607200Y-67246428D01*
X152607200Y-67246428D02*
X152511961Y-67341666D01*
X152511961Y-67341666D02*
X152416723Y-67389285D01*
X152416723Y-67389285D02*
X152226247Y-67436904D01*
X152226247Y-67436904D02*
X152083390Y-67436904D01*
X152083390Y-67436904D02*
X151892914Y-67389285D01*
X151892914Y-67389285D02*
X151797676Y-67341666D01*
X151797676Y-67341666D02*
X151702438Y-67246428D01*
X151702438Y-67246428D02*
X151654819Y-67103571D01*
X151654819Y-67103571D02*
X151654819Y-67008333D01*
X151654819Y-67008333D02*
X151702438Y-66865476D01*
X151702438Y-66865476D02*
X151750057Y-66817857D01*
X152654819Y-65865476D02*
X152654819Y-66436904D01*
X152654819Y-66151190D02*
X151654819Y-66151190D01*
X151654819Y-66151190D02*
X151797676Y-66246428D01*
X151797676Y-66246428D02*
X151892914Y-66341666D01*
X151892914Y-66341666D02*
X151940533Y-66436904D01*
X151654819Y-65246428D02*
X151654819Y-65151190D01*
X151654819Y-65151190D02*
X151702438Y-65055952D01*
X151702438Y-65055952D02*
X151750057Y-65008333D01*
X151750057Y-65008333D02*
X151845295Y-64960714D01*
X151845295Y-64960714D02*
X152035771Y-64913095D01*
X152035771Y-64913095D02*
X152273866Y-64913095D01*
X152273866Y-64913095D02*
X152464342Y-64960714D01*
X152464342Y-64960714D02*
X152559580Y-65008333D01*
X152559580Y-65008333D02*
X152607200Y-65055952D01*
X152607200Y-65055952D02*
X152654819Y-65151190D01*
X152654819Y-65151190D02*
X152654819Y-65246428D01*
X152654819Y-65246428D02*
X152607200Y-65341666D01*
X152607200Y-65341666D02*
X152559580Y-65389285D01*
X152559580Y-65389285D02*
X152464342Y-65436904D01*
X152464342Y-65436904D02*
X152273866Y-65484523D01*
X152273866Y-65484523D02*
X152035771Y-65484523D01*
X152035771Y-65484523D02*
X151845295Y-65436904D01*
X151845295Y-65436904D02*
X151750057Y-65389285D01*
X151750057Y-65389285D02*
X151702438Y-65341666D01*
X151702438Y-65341666D02*
X151654819Y-65246428D01*
X155183333Y-98799580D02*
X155135714Y-98847200D01*
X155135714Y-98847200D02*
X154992857Y-98894819D01*
X154992857Y-98894819D02*
X154897619Y-98894819D01*
X154897619Y-98894819D02*
X154754762Y-98847200D01*
X154754762Y-98847200D02*
X154659524Y-98751961D01*
X154659524Y-98751961D02*
X154611905Y-98656723D01*
X154611905Y-98656723D02*
X154564286Y-98466247D01*
X154564286Y-98466247D02*
X154564286Y-98323390D01*
X154564286Y-98323390D02*
X154611905Y-98132914D01*
X154611905Y-98132914D02*
X154659524Y-98037676D01*
X154659524Y-98037676D02*
X154754762Y-97942438D01*
X154754762Y-97942438D02*
X154897619Y-97894819D01*
X154897619Y-97894819D02*
X154992857Y-97894819D01*
X154992857Y-97894819D02*
X155135714Y-97942438D01*
X155135714Y-97942438D02*
X155183333Y-97990057D01*
X156040476Y-98228152D02*
X156040476Y-98894819D01*
X155802381Y-97847200D02*
X155564286Y-98561485D01*
X155564286Y-98561485D02*
X156183333Y-98561485D01*
X165143333Y-63434819D02*
X164810000Y-62958628D01*
X164571905Y-63434819D02*
X164571905Y-62434819D01*
X164571905Y-62434819D02*
X164952857Y-62434819D01*
X164952857Y-62434819D02*
X165048095Y-62482438D01*
X165048095Y-62482438D02*
X165095714Y-62530057D01*
X165095714Y-62530057D02*
X165143333Y-62625295D01*
X165143333Y-62625295D02*
X165143333Y-62768152D01*
X165143333Y-62768152D02*
X165095714Y-62863390D01*
X165095714Y-62863390D02*
X165048095Y-62911009D01*
X165048095Y-62911009D02*
X164952857Y-62958628D01*
X164952857Y-62958628D02*
X164571905Y-62958628D01*
X166048095Y-62434819D02*
X165571905Y-62434819D01*
X165571905Y-62434819D02*
X165524286Y-62911009D01*
X165524286Y-62911009D02*
X165571905Y-62863390D01*
X165571905Y-62863390D02*
X165667143Y-62815771D01*
X165667143Y-62815771D02*
X165905238Y-62815771D01*
X165905238Y-62815771D02*
X166000476Y-62863390D01*
X166000476Y-62863390D02*
X166048095Y-62911009D01*
X166048095Y-62911009D02*
X166095714Y-63006247D01*
X166095714Y-63006247D02*
X166095714Y-63244342D01*
X166095714Y-63244342D02*
X166048095Y-63339580D01*
X166048095Y-63339580D02*
X166000476Y-63387200D01*
X166000476Y-63387200D02*
X165905238Y-63434819D01*
X165905238Y-63434819D02*
X165667143Y-63434819D01*
X165667143Y-63434819D02*
X165571905Y-63387200D01*
X165571905Y-63387200D02*
X165524286Y-63339580D01*
X209857142Y-59454819D02*
X209285714Y-59454819D01*
X209571428Y-59454819D02*
X209571428Y-58454819D01*
X209571428Y-58454819D02*
X209476190Y-58597676D01*
X209476190Y-58597676D02*
X209380952Y-58692914D01*
X209380952Y-58692914D02*
X209285714Y-58740533D01*
X210238095Y-58550057D02*
X210285714Y-58502438D01*
X210285714Y-58502438D02*
X210380952Y-58454819D01*
X210380952Y-58454819D02*
X210619047Y-58454819D01*
X210619047Y-58454819D02*
X210714285Y-58502438D01*
X210714285Y-58502438D02*
X210761904Y-58550057D01*
X210761904Y-58550057D02*
X210809523Y-58645295D01*
X210809523Y-58645295D02*
X210809523Y-58740533D01*
X210809523Y-58740533D02*
X210761904Y-58883390D01*
X210761904Y-58883390D02*
X210190476Y-59454819D01*
X210190476Y-59454819D02*
X210809523Y-59454819D01*
X211095238Y-58454819D02*
X211428571Y-59454819D01*
X211428571Y-59454819D02*
X211761904Y-58454819D01*
X212714285Y-58978628D02*
X212666666Y-58931009D01*
X212666666Y-58931009D02*
X212571428Y-58883390D01*
X212571428Y-58883390D02*
X212476190Y-58883390D01*
X212476190Y-58883390D02*
X212380952Y-58931009D01*
X212380952Y-58931009D02*
X212333333Y-58978628D01*
X212333333Y-58978628D02*
X212285714Y-59073866D01*
X212285714Y-59073866D02*
X212285714Y-59169104D01*
X212285714Y-59169104D02*
X212333333Y-59264342D01*
X212333333Y-59264342D02*
X212380952Y-59311961D01*
X212380952Y-59311961D02*
X212476190Y-59359580D01*
X212476190Y-59359580D02*
X212571428Y-59359580D01*
X212571428Y-59359580D02*
X212666666Y-59311961D01*
X212666666Y-59311961D02*
X212714285Y-59264342D01*
X212714285Y-58883390D02*
X212714285Y-59264342D01*
X212714285Y-59264342D02*
X212761904Y-59311961D01*
X212761904Y-59311961D02*
X212809523Y-59311961D01*
X212809523Y-59311961D02*
X212904762Y-59264342D01*
X212904762Y-59264342D02*
X212952381Y-59169104D01*
X212952381Y-59169104D02*
X212952381Y-58931009D01*
X212952381Y-58931009D02*
X212857143Y-58788152D01*
X212857143Y-58788152D02*
X212714285Y-58692914D01*
X212714285Y-58692914D02*
X212523809Y-58645295D01*
X212523809Y-58645295D02*
X212333333Y-58692914D01*
X212333333Y-58692914D02*
X212190476Y-58788152D01*
X212190476Y-58788152D02*
X212095238Y-58931009D01*
X212095238Y-58931009D02*
X212047619Y-59121485D01*
X212047619Y-59121485D02*
X212095238Y-59311961D01*
X212095238Y-59311961D02*
X212190476Y-59454819D01*
X212190476Y-59454819D02*
X212333333Y-59550057D01*
X212333333Y-59550057D02*
X212523809Y-59597676D01*
X212523809Y-59597676D02*
X212714285Y-59550057D01*
X212714285Y-59550057D02*
X212857143Y-59454819D01*
X213333333Y-58550057D02*
X213380952Y-58502438D01*
X213380952Y-58502438D02*
X213476190Y-58454819D01*
X213476190Y-58454819D02*
X213714285Y-58454819D01*
X213714285Y-58454819D02*
X213809523Y-58502438D01*
X213809523Y-58502438D02*
X213857142Y-58550057D01*
X213857142Y-58550057D02*
X213904761Y-58645295D01*
X213904761Y-58645295D02*
X213904761Y-58740533D01*
X213904761Y-58740533D02*
X213857142Y-58883390D01*
X213857142Y-58883390D02*
X213285714Y-59454819D01*
X213285714Y-59454819D02*
X213904761Y-59454819D01*
X214285714Y-59169104D02*
X214761904Y-59169104D01*
X214190476Y-59454819D02*
X214523809Y-58454819D01*
X214523809Y-58454819D02*
X214857142Y-59454819D01*
X215714285Y-59454819D02*
X215142857Y-59454819D01*
X215428571Y-59454819D02*
X215428571Y-58454819D01*
X215428571Y-58454819D02*
X215333333Y-58597676D01*
X215333333Y-58597676D02*
X215238095Y-58692914D01*
X215238095Y-58692914D02*
X215142857Y-58740533D01*
X109144761Y-70794819D02*
X109144761Y-69794819D01*
X109144761Y-70175771D02*
X109239999Y-70128152D01*
X109239999Y-70128152D02*
X109430475Y-70128152D01*
X109430475Y-70128152D02*
X109525713Y-70175771D01*
X109525713Y-70175771D02*
X109573332Y-70223390D01*
X109573332Y-70223390D02*
X109620951Y-70318628D01*
X109620951Y-70318628D02*
X109620951Y-70604342D01*
X109620951Y-70604342D02*
X109573332Y-70699580D01*
X109573332Y-70699580D02*
X109525713Y-70747200D01*
X109525713Y-70747200D02*
X109430475Y-70794819D01*
X109430475Y-70794819D02*
X109239999Y-70794819D01*
X109239999Y-70794819D02*
X109144761Y-70747200D01*
X110478094Y-70794819D02*
X110478094Y-70271009D01*
X110478094Y-70271009D02*
X110430475Y-70175771D01*
X110430475Y-70175771D02*
X110335237Y-70128152D01*
X110335237Y-70128152D02*
X110144761Y-70128152D01*
X110144761Y-70128152D02*
X110049523Y-70175771D01*
X110478094Y-70747200D02*
X110382856Y-70794819D01*
X110382856Y-70794819D02*
X110144761Y-70794819D01*
X110144761Y-70794819D02*
X110049523Y-70747200D01*
X110049523Y-70747200D02*
X110001904Y-70651961D01*
X110001904Y-70651961D02*
X110001904Y-70556723D01*
X110001904Y-70556723D02*
X110049523Y-70461485D01*
X110049523Y-70461485D02*
X110144761Y-70413866D01*
X110144761Y-70413866D02*
X110382856Y-70413866D01*
X110382856Y-70413866D02*
X110478094Y-70366247D01*
X110811428Y-70128152D02*
X111192380Y-70128152D01*
X110954285Y-69794819D02*
X110954285Y-70651961D01*
X110954285Y-70651961D02*
X111001904Y-70747200D01*
X111001904Y-70747200D02*
X111097142Y-70794819D01*
X111097142Y-70794819D02*
X111192380Y-70794819D01*
X111382857Y-70128152D02*
X111763809Y-70128152D01*
X111525714Y-69794819D02*
X111525714Y-70651961D01*
X111525714Y-70651961D02*
X111573333Y-70747200D01*
X111573333Y-70747200D02*
X111668571Y-70794819D01*
X111668571Y-70794819D02*
X111763809Y-70794819D01*
X112478095Y-70747200D02*
X112382857Y-70794819D01*
X112382857Y-70794819D02*
X112192381Y-70794819D01*
X112192381Y-70794819D02*
X112097143Y-70747200D01*
X112097143Y-70747200D02*
X112049524Y-70651961D01*
X112049524Y-70651961D02*
X112049524Y-70271009D01*
X112049524Y-70271009D02*
X112097143Y-70175771D01*
X112097143Y-70175771D02*
X112192381Y-70128152D01*
X112192381Y-70128152D02*
X112382857Y-70128152D01*
X112382857Y-70128152D02*
X112478095Y-70175771D01*
X112478095Y-70175771D02*
X112525714Y-70271009D01*
X112525714Y-70271009D02*
X112525714Y-70366247D01*
X112525714Y-70366247D02*
X112049524Y-70461485D01*
X112954286Y-70794819D02*
X112954286Y-70128152D01*
X112954286Y-70318628D02*
X113001905Y-70223390D01*
X113001905Y-70223390D02*
X113049524Y-70175771D01*
X113049524Y-70175771D02*
X113144762Y-70128152D01*
X113144762Y-70128152D02*
X113240000Y-70128152D01*
X113478096Y-70128152D02*
X113716191Y-70794819D01*
X113954286Y-70128152D02*
X113716191Y-70794819D01*
X113716191Y-70794819D02*
X113620953Y-71032914D01*
X113620953Y-71032914D02*
X113573334Y-71080533D01*
X113573334Y-71080533D02*
X113478096Y-71128152D01*
X114097144Y-70890057D02*
X114859048Y-70890057D01*
X115097144Y-70794819D02*
X115097144Y-70128152D01*
X115097144Y-69794819D02*
X115049525Y-69842438D01*
X115049525Y-69842438D02*
X115097144Y-69890057D01*
X115097144Y-69890057D02*
X115144763Y-69842438D01*
X115144763Y-69842438D02*
X115097144Y-69794819D01*
X115097144Y-69794819D02*
X115097144Y-69890057D01*
X115573334Y-70128152D02*
X115573334Y-70794819D01*
X115573334Y-70223390D02*
X115620953Y-70175771D01*
X115620953Y-70175771D02*
X115716191Y-70128152D01*
X115716191Y-70128152D02*
X115859048Y-70128152D01*
X115859048Y-70128152D02*
X115954286Y-70175771D01*
X115954286Y-70175771D02*
X116001905Y-70271009D01*
X116001905Y-70271009D02*
X116001905Y-70794819D01*
X116478096Y-70128152D02*
X116478096Y-71128152D01*
X116478096Y-70175771D02*
X116573334Y-70128152D01*
X116573334Y-70128152D02*
X116763810Y-70128152D01*
X116763810Y-70128152D02*
X116859048Y-70175771D01*
X116859048Y-70175771D02*
X116906667Y-70223390D01*
X116906667Y-70223390D02*
X116954286Y-70318628D01*
X116954286Y-70318628D02*
X116954286Y-70604342D01*
X116954286Y-70604342D02*
X116906667Y-70699580D01*
X116906667Y-70699580D02*
X116859048Y-70747200D01*
X116859048Y-70747200D02*
X116763810Y-70794819D01*
X116763810Y-70794819D02*
X116573334Y-70794819D01*
X116573334Y-70794819D02*
X116478096Y-70747200D01*
X117811429Y-70128152D02*
X117811429Y-70794819D01*
X117382858Y-70128152D02*
X117382858Y-70651961D01*
X117382858Y-70651961D02*
X117430477Y-70747200D01*
X117430477Y-70747200D02*
X117525715Y-70794819D01*
X117525715Y-70794819D02*
X117668572Y-70794819D01*
X117668572Y-70794819D02*
X117763810Y-70747200D01*
X117763810Y-70747200D02*
X117811429Y-70699580D01*
X118144763Y-70128152D02*
X118525715Y-70128152D01*
X118287620Y-69794819D02*
X118287620Y-70651961D01*
X118287620Y-70651961D02*
X118335239Y-70747200D01*
X118335239Y-70747200D02*
X118430477Y-70794819D01*
X118430477Y-70794819D02*
X118525715Y-70794819D01*
X119382858Y-70794819D02*
X118811430Y-70794819D01*
X119097144Y-70794819D02*
X119097144Y-69794819D01*
X119097144Y-69794819D02*
X119001906Y-69937676D01*
X119001906Y-69937676D02*
X118906668Y-70032914D01*
X118906668Y-70032914D02*
X118811430Y-70080533D01*
X123504700Y-86061428D02*
X123504700Y-84918571D01*
X124076128Y-85489999D02*
X122933271Y-85489999D01*
X123463866Y-73570951D02*
X123463866Y-72809047D01*
X159608095Y-62229819D02*
X159608095Y-63039342D01*
X159608095Y-63039342D02*
X159655714Y-63134580D01*
X159655714Y-63134580D02*
X159703333Y-63182200D01*
X159703333Y-63182200D02*
X159798571Y-63229819D01*
X159798571Y-63229819D02*
X159989047Y-63229819D01*
X159989047Y-63229819D02*
X160084285Y-63182200D01*
X160084285Y-63182200D02*
X160131904Y-63134580D01*
X160131904Y-63134580D02*
X160179523Y-63039342D01*
X160179523Y-63039342D02*
X160179523Y-62229819D01*
X160560476Y-62229819D02*
X161179523Y-62229819D01*
X161179523Y-62229819D02*
X160846190Y-62610771D01*
X160846190Y-62610771D02*
X160989047Y-62610771D01*
X160989047Y-62610771D02*
X161084285Y-62658390D01*
X161084285Y-62658390D02*
X161131904Y-62706009D01*
X161131904Y-62706009D02*
X161179523Y-62801247D01*
X161179523Y-62801247D02*
X161179523Y-63039342D01*
X161179523Y-63039342D02*
X161131904Y-63134580D01*
X161131904Y-63134580D02*
X161084285Y-63182200D01*
X161084285Y-63182200D02*
X160989047Y-63229819D01*
X160989047Y-63229819D02*
X160703333Y-63229819D01*
X160703333Y-63229819D02*
X160608095Y-63182200D01*
X160608095Y-63182200D02*
X160560476Y-63134580D01*
X155093333Y-91594819D02*
X154760000Y-91118628D01*
X154521905Y-91594819D02*
X154521905Y-90594819D01*
X154521905Y-90594819D02*
X154902857Y-90594819D01*
X154902857Y-90594819D02*
X154998095Y-90642438D01*
X154998095Y-90642438D02*
X155045714Y-90690057D01*
X155045714Y-90690057D02*
X155093333Y-90785295D01*
X155093333Y-90785295D02*
X155093333Y-90928152D01*
X155093333Y-90928152D02*
X155045714Y-91023390D01*
X155045714Y-91023390D02*
X154998095Y-91071009D01*
X154998095Y-91071009D02*
X154902857Y-91118628D01*
X154902857Y-91118628D02*
X154521905Y-91118628D01*
X156045714Y-91594819D02*
X155474286Y-91594819D01*
X155760000Y-91594819D02*
X155760000Y-90594819D01*
X155760000Y-90594819D02*
X155664762Y-90737676D01*
X155664762Y-90737676D02*
X155569524Y-90832914D01*
X155569524Y-90832914D02*
X155474286Y-90880533D01*
X168423333Y-64404819D02*
X168090000Y-63928628D01*
X167851905Y-64404819D02*
X167851905Y-63404819D01*
X167851905Y-63404819D02*
X168232857Y-63404819D01*
X168232857Y-63404819D02*
X168328095Y-63452438D01*
X168328095Y-63452438D02*
X168375714Y-63500057D01*
X168375714Y-63500057D02*
X168423333Y-63595295D01*
X168423333Y-63595295D02*
X168423333Y-63738152D01*
X168423333Y-63738152D02*
X168375714Y-63833390D01*
X168375714Y-63833390D02*
X168328095Y-63881009D01*
X168328095Y-63881009D02*
X168232857Y-63928628D01*
X168232857Y-63928628D02*
X167851905Y-63928628D01*
X169280476Y-63738152D02*
X169280476Y-64404819D01*
X169042381Y-63357200D02*
X168804286Y-64071485D01*
X168804286Y-64071485D02*
X169423333Y-64071485D01*
X163471905Y-92597319D02*
X163471905Y-91597319D01*
X163471905Y-91597319D02*
X163710000Y-91597319D01*
X163710000Y-91597319D02*
X163852857Y-91644938D01*
X163852857Y-91644938D02*
X163948095Y-91740176D01*
X163948095Y-91740176D02*
X163995714Y-91835414D01*
X163995714Y-91835414D02*
X164043333Y-92025890D01*
X164043333Y-92025890D02*
X164043333Y-92168747D01*
X164043333Y-92168747D02*
X163995714Y-92359223D01*
X163995714Y-92359223D02*
X163948095Y-92454461D01*
X163948095Y-92454461D02*
X163852857Y-92549700D01*
X163852857Y-92549700D02*
X163710000Y-92597319D01*
X163710000Y-92597319D02*
X163471905Y-92597319D01*
X164995714Y-92597319D02*
X164424286Y-92597319D01*
X164710000Y-92597319D02*
X164710000Y-91597319D01*
X164710000Y-91597319D02*
X164614762Y-91740176D01*
X164614762Y-91740176D02*
X164519524Y-91835414D01*
X164519524Y-91835414D02*
X164424286Y-91883033D01*
X160281905Y-74814819D02*
X160281905Y-73814819D01*
X160281905Y-73814819D02*
X160520000Y-73814819D01*
X160520000Y-73814819D02*
X160662857Y-73862438D01*
X160662857Y-73862438D02*
X160758095Y-73957676D01*
X160758095Y-73957676D02*
X160805714Y-74052914D01*
X160805714Y-74052914D02*
X160853333Y-74243390D01*
X160853333Y-74243390D02*
X160853333Y-74386247D01*
X160853333Y-74386247D02*
X160805714Y-74576723D01*
X160805714Y-74576723D02*
X160758095Y-74671961D01*
X160758095Y-74671961D02*
X160662857Y-74767200D01*
X160662857Y-74767200D02*
X160520000Y-74814819D01*
X160520000Y-74814819D02*
X160281905Y-74814819D01*
X161710476Y-74148152D02*
X161710476Y-74814819D01*
X161472381Y-73767200D02*
X161234286Y-74481485D01*
X161234286Y-74481485D02*
X161853333Y-74481485D01*
X184683333Y-92299580D02*
X184635714Y-92347200D01*
X184635714Y-92347200D02*
X184492857Y-92394819D01*
X184492857Y-92394819D02*
X184397619Y-92394819D01*
X184397619Y-92394819D02*
X184254762Y-92347200D01*
X184254762Y-92347200D02*
X184159524Y-92251961D01*
X184159524Y-92251961D02*
X184111905Y-92156723D01*
X184111905Y-92156723D02*
X184064286Y-91966247D01*
X184064286Y-91966247D02*
X184064286Y-91823390D01*
X184064286Y-91823390D02*
X184111905Y-91632914D01*
X184111905Y-91632914D02*
X184159524Y-91537676D01*
X184159524Y-91537676D02*
X184254762Y-91442438D01*
X184254762Y-91442438D02*
X184397619Y-91394819D01*
X184397619Y-91394819D02*
X184492857Y-91394819D01*
X184492857Y-91394819D02*
X184635714Y-91442438D01*
X184635714Y-91442438D02*
X184683333Y-91490057D01*
X185064286Y-91490057D02*
X185111905Y-91442438D01*
X185111905Y-91442438D02*
X185207143Y-91394819D01*
X185207143Y-91394819D02*
X185445238Y-91394819D01*
X185445238Y-91394819D02*
X185540476Y-91442438D01*
X185540476Y-91442438D02*
X185588095Y-91490057D01*
X185588095Y-91490057D02*
X185635714Y-91585295D01*
X185635714Y-91585295D02*
X185635714Y-91680533D01*
X185635714Y-91680533D02*
X185588095Y-91823390D01*
X185588095Y-91823390D02*
X185016667Y-92394819D01*
X185016667Y-92394819D02*
X185635714Y-92394819D01*
X173183333Y-92299580D02*
X173135714Y-92347200D01*
X173135714Y-92347200D02*
X172992857Y-92394819D01*
X172992857Y-92394819D02*
X172897619Y-92394819D01*
X172897619Y-92394819D02*
X172754762Y-92347200D01*
X172754762Y-92347200D02*
X172659524Y-92251961D01*
X172659524Y-92251961D02*
X172611905Y-92156723D01*
X172611905Y-92156723D02*
X172564286Y-91966247D01*
X172564286Y-91966247D02*
X172564286Y-91823390D01*
X172564286Y-91823390D02*
X172611905Y-91632914D01*
X172611905Y-91632914D02*
X172659524Y-91537676D01*
X172659524Y-91537676D02*
X172754762Y-91442438D01*
X172754762Y-91442438D02*
X172897619Y-91394819D01*
X172897619Y-91394819D02*
X172992857Y-91394819D01*
X172992857Y-91394819D02*
X173135714Y-91442438D01*
X173135714Y-91442438D02*
X173183333Y-91490057D01*
X173516667Y-91394819D02*
X174135714Y-91394819D01*
X174135714Y-91394819D02*
X173802381Y-91775771D01*
X173802381Y-91775771D02*
X173945238Y-91775771D01*
X173945238Y-91775771D02*
X174040476Y-91823390D01*
X174040476Y-91823390D02*
X174088095Y-91871009D01*
X174088095Y-91871009D02*
X174135714Y-91966247D01*
X174135714Y-91966247D02*
X174135714Y-92204342D01*
X174135714Y-92204342D02*
X174088095Y-92299580D01*
X174088095Y-92299580D02*
X174040476Y-92347200D01*
X174040476Y-92347200D02*
X173945238Y-92394819D01*
X173945238Y-92394819D02*
X173659524Y-92394819D01*
X173659524Y-92394819D02*
X173564286Y-92347200D01*
X173564286Y-92347200D02*
X173516667Y-92299580D01*
X196433333Y-92049580D02*
X196385714Y-92097200D01*
X196385714Y-92097200D02*
X196242857Y-92144819D01*
X196242857Y-92144819D02*
X196147619Y-92144819D01*
X196147619Y-92144819D02*
X196004762Y-92097200D01*
X196004762Y-92097200D02*
X195909524Y-92001961D01*
X195909524Y-92001961D02*
X195861905Y-91906723D01*
X195861905Y-91906723D02*
X195814286Y-91716247D01*
X195814286Y-91716247D02*
X195814286Y-91573390D01*
X195814286Y-91573390D02*
X195861905Y-91382914D01*
X195861905Y-91382914D02*
X195909524Y-91287676D01*
X195909524Y-91287676D02*
X196004762Y-91192438D01*
X196004762Y-91192438D02*
X196147619Y-91144819D01*
X196147619Y-91144819D02*
X196242857Y-91144819D01*
X196242857Y-91144819D02*
X196385714Y-91192438D01*
X196385714Y-91192438D02*
X196433333Y-91240057D01*
X197385714Y-92144819D02*
X196814286Y-92144819D01*
X197100000Y-92144819D02*
X197100000Y-91144819D01*
X197100000Y-91144819D02*
X197004762Y-91287676D01*
X197004762Y-91287676D02*
X196909524Y-91382914D01*
X196909524Y-91382914D02*
X196814286Y-91430533D01*
X195609580Y-64986666D02*
X195657200Y-65034285D01*
X195657200Y-65034285D02*
X195704819Y-65177142D01*
X195704819Y-65177142D02*
X195704819Y-65272380D01*
X195704819Y-65272380D02*
X195657200Y-65415237D01*
X195657200Y-65415237D02*
X195561961Y-65510475D01*
X195561961Y-65510475D02*
X195466723Y-65558094D01*
X195466723Y-65558094D02*
X195276247Y-65605713D01*
X195276247Y-65605713D02*
X195133390Y-65605713D01*
X195133390Y-65605713D02*
X194942914Y-65558094D01*
X194942914Y-65558094D02*
X194847676Y-65510475D01*
X194847676Y-65510475D02*
X194752438Y-65415237D01*
X194752438Y-65415237D02*
X194704819Y-65272380D01*
X194704819Y-65272380D02*
X194704819Y-65177142D01*
X194704819Y-65177142D02*
X194752438Y-65034285D01*
X194752438Y-65034285D02*
X194800057Y-64986666D01*
X195704819Y-64510475D02*
X195704819Y-64319999D01*
X195704819Y-64319999D02*
X195657200Y-64224761D01*
X195657200Y-64224761D02*
X195609580Y-64177142D01*
X195609580Y-64177142D02*
X195466723Y-64081904D01*
X195466723Y-64081904D02*
X195276247Y-64034285D01*
X195276247Y-64034285D02*
X194895295Y-64034285D01*
X194895295Y-64034285D02*
X194800057Y-64081904D01*
X194800057Y-64081904D02*
X194752438Y-64129523D01*
X194752438Y-64129523D02*
X194704819Y-64224761D01*
X194704819Y-64224761D02*
X194704819Y-64415237D01*
X194704819Y-64415237D02*
X194752438Y-64510475D01*
X194752438Y-64510475D02*
X194800057Y-64558094D01*
X194800057Y-64558094D02*
X194895295Y-64605713D01*
X194895295Y-64605713D02*
X195133390Y-64605713D01*
X195133390Y-64605713D02*
X195228628Y-64558094D01*
X195228628Y-64558094D02*
X195276247Y-64510475D01*
X195276247Y-64510475D02*
X195323866Y-64415237D01*
X195323866Y-64415237D02*
X195323866Y-64224761D01*
X195323866Y-64224761D02*
X195276247Y-64129523D01*
X195276247Y-64129523D02*
X195228628Y-64081904D01*
X195228628Y-64081904D02*
X195133390Y-64034285D01*
X177973333Y-60104819D02*
X177497143Y-60104819D01*
X177497143Y-60104819D02*
X177497143Y-59104819D01*
X178211429Y-59104819D02*
X178830476Y-59104819D01*
X178830476Y-59104819D02*
X178497143Y-59485771D01*
X178497143Y-59485771D02*
X178640000Y-59485771D01*
X178640000Y-59485771D02*
X178735238Y-59533390D01*
X178735238Y-59533390D02*
X178782857Y-59581009D01*
X178782857Y-59581009D02*
X178830476Y-59676247D01*
X178830476Y-59676247D02*
X178830476Y-59914342D01*
X178830476Y-59914342D02*
X178782857Y-60009580D01*
X178782857Y-60009580D02*
X178735238Y-60057200D01*
X178735238Y-60057200D02*
X178640000Y-60104819D01*
X178640000Y-60104819D02*
X178354286Y-60104819D01*
X178354286Y-60104819D02*
X178259048Y-60057200D01*
X178259048Y-60057200D02*
X178211429Y-60009580D01*
X165423333Y-75769580D02*
X165375714Y-75817200D01*
X165375714Y-75817200D02*
X165232857Y-75864819D01*
X165232857Y-75864819D02*
X165137619Y-75864819D01*
X165137619Y-75864819D02*
X164994762Y-75817200D01*
X164994762Y-75817200D02*
X164899524Y-75721961D01*
X164899524Y-75721961D02*
X164851905Y-75626723D01*
X164851905Y-75626723D02*
X164804286Y-75436247D01*
X164804286Y-75436247D02*
X164804286Y-75293390D01*
X164804286Y-75293390D02*
X164851905Y-75102914D01*
X164851905Y-75102914D02*
X164899524Y-75007676D01*
X164899524Y-75007676D02*
X164994762Y-74912438D01*
X164994762Y-74912438D02*
X165137619Y-74864819D01*
X165137619Y-74864819D02*
X165232857Y-74864819D01*
X165232857Y-74864819D02*
X165375714Y-74912438D01*
X165375714Y-74912438D02*
X165423333Y-74960057D01*
X166328095Y-74864819D02*
X165851905Y-74864819D01*
X165851905Y-74864819D02*
X165804286Y-75341009D01*
X165804286Y-75341009D02*
X165851905Y-75293390D01*
X165851905Y-75293390D02*
X165947143Y-75245771D01*
X165947143Y-75245771D02*
X166185238Y-75245771D01*
X166185238Y-75245771D02*
X166280476Y-75293390D01*
X166280476Y-75293390D02*
X166328095Y-75341009D01*
X166328095Y-75341009D02*
X166375714Y-75436247D01*
X166375714Y-75436247D02*
X166375714Y-75674342D01*
X166375714Y-75674342D02*
X166328095Y-75769580D01*
X166328095Y-75769580D02*
X166280476Y-75817200D01*
X166280476Y-75817200D02*
X166185238Y-75864819D01*
X166185238Y-75864819D02*
X165947143Y-75864819D01*
X165947143Y-75864819D02*
X165851905Y-75817200D01*
X165851905Y-75817200D02*
X165804286Y-75769580D01*
D12*
%TO.C,U2*%
X179530000Y-81520000D02*
X179770000Y-81850000D01*
X179290000Y-81850000D01*
X179530000Y-81520000D01*
G36*
X179770000Y-81850000D02*
G01*
X179290000Y-81850000D01*
X179530000Y-81520000D01*
X179770000Y-81850000D01*
G37*
D10*
X179105000Y-76445000D02*
X174955000Y-76445000D01*
X179105000Y-81595000D02*
X174955000Y-81595000D01*
%TO.C,C11*%
D12*
X162080580Y-69360000D02*
X161799420Y-69360000D01*
X162080580Y-70380000D02*
X161799420Y-70380000D01*
%TO.C,R2*%
X182432500Y-77512742D02*
X182432500Y-77987258D01*
X181387500Y-77512742D02*
X181387500Y-77987258D01*
%TO.C,L2*%
X198090000Y-75400000D02*
X198090000Y-88000000D01*
X195090000Y-75400000D02*
X198090000Y-75400000D01*
X185490000Y-75400000D02*
X188490000Y-75400000D01*
X198090000Y-88000000D02*
X195090000Y-88000000D01*
X188490000Y-88000000D02*
X185490000Y-88000000D01*
X185490000Y-88000000D02*
X185490000Y-75400000D01*
%TO.C,D2*%
X158790000Y-90800000D02*
X161475000Y-90800000D01*
X161475000Y-88880000D02*
X158790000Y-88880000D01*
X161475000Y-90800000D02*
X161475000Y-88880000D01*
%TO.C,C6*%
X173720000Y-85588748D02*
X173720000Y-87011252D01*
X171000000Y-85588748D02*
X171000000Y-87011252D01*
%TO.C,D3*%
X182207500Y-84990000D02*
X176697500Y-84990000D01*
X182207500Y-88290000D02*
X176697500Y-88290000D01*
X182207500Y-88290000D02*
X182207500Y-84990000D01*
%TO.C,C7*%
X204677500Y-73972500D02*
X204677500Y-74760000D01*
X205071250Y-74366250D02*
X204283750Y-74366250D01*
X205175563Y-75000000D02*
X203890000Y-75000000D01*
X205175563Y-75000000D02*
X206240000Y-76064437D01*
X200484437Y-75000000D02*
X201770000Y-75000000D01*
X200484437Y-75000000D02*
X199420000Y-76064437D01*
X206240000Y-76064437D02*
X206240000Y-81820000D01*
X199420000Y-76064437D02*
X199420000Y-81820000D01*
X206240000Y-81820000D02*
X203890000Y-81820000D01*
X199420000Y-81820000D02*
X201770000Y-81820000D01*
%TO.C,C8*%
X177045580Y-83130000D02*
X176764420Y-83130000D01*
X177045580Y-82110000D02*
X176764420Y-82110000D01*
%TO.C,R3*%
X181387500Y-81157258D02*
X181387500Y-80682742D01*
X182432500Y-81157258D02*
X182432500Y-80682742D01*
%TO.C,5V@3A1*%
X209705000Y-83190000D02*
X210955000Y-83190000D01*
X212255000Y-82890000D02*
X212255000Y-82140000D01*
X212255000Y-82140000D02*
X215205000Y-82140000D01*
X215205000Y-82140000D02*
X215205000Y-79090000D01*
X209705000Y-81940000D02*
X209705000Y-83190000D01*
X212255000Y-76040000D02*
X215205000Y-76040000D01*
X215205000Y-76040000D02*
X215205000Y-79090000D01*
X212255000Y-75290000D02*
X212255000Y-76040000D01*
X209995000Y-75280000D02*
X215965000Y-75280000D01*
X215965000Y-82900000D01*
X209995000Y-82900000D01*
X209995000Y-75280000D01*
X210005000Y-81090000D02*
X210755000Y-81090000D01*
X210755000Y-82890000D01*
X210005000Y-82890000D01*
X210005000Y-81090000D01*
X210005000Y-78590000D02*
X210755000Y-78590000D01*
X210755000Y-79590000D01*
X210005000Y-79590000D01*
X210005000Y-78590000D01*
X210005000Y-75290000D02*
X210755000Y-75290000D01*
X210755000Y-77090000D01*
X210005000Y-77090000D01*
X210005000Y-75290000D01*
%TO.C,Q1*%
X151510000Y-90265000D02*
X151840000Y-90505000D01*
X151840000Y-90025000D01*
X151510000Y-90265000D01*
G36*
X151840000Y-90505000D02*
G01*
X151510000Y-90265000D01*
X151840000Y-90025000D01*
X151840000Y-90505000D01*
G37*
X141490000Y-90725000D02*
X141490000Y-100995000D01*
X151610000Y-90725000D02*
X151610000Y-100995000D01*
%TO.C,L1*%
X141900000Y-74950000D02*
X154500000Y-74950000D01*
X141900000Y-77950000D02*
X141900000Y-74950000D01*
X141900000Y-87550000D02*
X141900000Y-84550000D01*
X154500000Y-74950000D02*
X154500000Y-77950000D01*
X154500000Y-84550000D02*
X154500000Y-87550000D01*
X154500000Y-87550000D02*
X141900000Y-87550000D01*
%TO.C,U1*%
X156800000Y-95700000D02*
X157040000Y-96030000D01*
X156560000Y-96030000D01*
X156800000Y-95700000D01*
G36*
X157040000Y-96030000D02*
G01*
X156560000Y-96030000D01*
X156800000Y-95700000D01*
X157040000Y-96030000D01*
G37*
X154440000Y-92630000D02*
X156260000Y-92630000D01*
X154440000Y-92680000D02*
X154440000Y-92630000D01*
X154440000Y-95750000D02*
X154440000Y-95700000D01*
X156260000Y-92630000D02*
X156260000Y-92680000D01*
X156260000Y-95700000D02*
X156260000Y-95750000D01*
X156260000Y-95750000D02*
X154440000Y-95750000D01*
%TO.C,F1*%
D11*
X124295000Y-54370000D02*
X139705000Y-54370000D01*
X139705000Y-102800000D01*
X124295000Y-102800000D01*
X124295000Y-54370000D01*
%TO.C,C10*%
D12*
X155860000Y-66886252D02*
X155860000Y-65463748D01*
X153140000Y-66886252D02*
X153140000Y-65463748D01*
%TO.C,C4*%
X155209420Y-96430000D02*
X155490580Y-96430000D01*
X155209420Y-97450000D02*
X155490580Y-97450000D01*
%TO.C,R5*%
X165762500Y-65507258D02*
X165762500Y-65032742D01*
X164717500Y-65507258D02*
X164717500Y-65032742D01*
%TO.C,12V@2A1*%
X209705000Y-68460000D02*
X210955000Y-68460000D01*
X212255000Y-68160000D02*
X212255000Y-67410000D01*
X212255000Y-67410000D02*
X215205000Y-67410000D01*
X215205000Y-67410000D02*
X215205000Y-64360000D01*
X209705000Y-67210000D02*
X209705000Y-68460000D01*
X212255000Y-61310000D02*
X215205000Y-61310000D01*
X215205000Y-61310000D02*
X215205000Y-64360000D01*
X212255000Y-60560000D02*
X212255000Y-61310000D01*
X209995000Y-60550000D02*
X215965000Y-60550000D01*
X215965000Y-68170000D01*
X209995000Y-68170000D01*
X209995000Y-60550000D01*
X210005000Y-66360000D02*
X210755000Y-66360000D01*
X210755000Y-68160000D01*
X210005000Y-68160000D01*
X210005000Y-66360000D01*
X210005000Y-63860000D02*
X210755000Y-63860000D01*
X210755000Y-64860000D01*
X210005000Y-64860000D01*
X210005000Y-63860000D01*
X210005000Y-60560000D02*
X210755000Y-60560000D01*
X210755000Y-62360000D01*
X210005000Y-62360000D01*
X210005000Y-60560000D01*
%TO.C,battery_input1*%
X113130000Y-87450000D02*
X118740000Y-87450000D01*
X113130000Y-87450000D02*
X113130000Y-86600000D01*
X105430000Y-86600000D02*
X113130000Y-86600000D01*
X105430000Y-86600000D02*
X105430000Y-72580000D01*
X122850000Y-82040000D02*
X122850000Y-78300000D01*
X105430000Y-72580000D02*
X113130000Y-72580000D01*
X113130000Y-72580000D02*
X113130000Y-71730000D01*
X113130000Y-71730000D02*
X118740000Y-71730000D01*
X122698718Y-84579900D02*
G75*
G02*
X118740000Y-87450000I-3918716J1239898D01*
G01*
X118740000Y-71730000D02*
G75*
G02*
X122262958Y-73723194I0J-4110000D01*
G01*
%TO.C,U3*%
X162375000Y-68780000D02*
X158255000Y-68780000D01*
X162375000Y-68685000D02*
X162375000Y-68780000D01*
X162375000Y-63660000D02*
X162375000Y-63755000D01*
X158255000Y-68780000D02*
X158255000Y-68685000D01*
X158255000Y-63755000D02*
X158255000Y-63660000D01*
X158255000Y-63660000D02*
X162375000Y-63660000D01*
X162915000Y-68690000D02*
X163155000Y-69020000D01*
X162675000Y-69020000D01*
X162915000Y-68690000D01*
G36*
X163155000Y-69020000D02*
G01*
X162675000Y-69020000D01*
X162915000Y-68690000D01*
X163155000Y-69020000D01*
G37*
%TO.C,R1*%
X154792742Y-89117500D02*
X155267258Y-89117500D01*
X154792742Y-90162500D02*
X155267258Y-90162500D01*
%TO.C,R4*%
X168352742Y-64857500D02*
X168827258Y-64857500D01*
X168352742Y-65902500D02*
X168827258Y-65902500D01*
%TO.C,D1*%
X167210000Y-92982500D02*
X167210000Y-101492500D01*
X160710000Y-92982500D02*
X167210000Y-92982500D01*
X160710000Y-92982500D02*
X160710000Y-101492500D01*
%TO.C,D4*%
X159680000Y-77900000D02*
X159680000Y-72390000D01*
X156380000Y-77900000D02*
X156380000Y-72390000D01*
X156380000Y-77900000D02*
X159680000Y-77900000D01*
%TO.C,C2*%
X187775000Y-92460354D02*
X187775000Y-93460354D01*
X188275000Y-92960354D02*
X187275000Y-92960354D01*
X189980000Y-97940000D02*
X179820000Y-97940000D01*
X189980000Y-97980000D02*
X179820000Y-97980000D01*
X189979000Y-98020000D02*
X179821000Y-98020000D01*
X189979000Y-98060000D02*
X179821000Y-98060000D01*
X189977000Y-98100000D02*
X179823000Y-98100000D01*
X189976000Y-98140000D02*
X179824000Y-98140000D01*
X189974000Y-98180000D02*
X179826000Y-98180000D01*
X189972000Y-98220000D02*
X179828000Y-98220000D01*
X189970000Y-98260000D02*
X179830000Y-98260000D01*
X189967000Y-98300000D02*
X179833000Y-98300000D01*
X189964000Y-98340000D02*
X179836000Y-98340000D01*
X189961000Y-98380000D02*
X179839000Y-98380000D01*
X189957000Y-98420000D02*
X179843000Y-98420000D01*
X189954000Y-98460000D02*
X179846000Y-98460000D01*
X189949000Y-98500000D02*
X179851000Y-98500000D01*
X189945000Y-98540000D02*
X179855000Y-98540000D01*
X189940000Y-98580000D02*
X179860000Y-98580000D01*
X189935000Y-98620000D02*
X179865000Y-98620000D01*
X189929000Y-98660000D02*
X179871000Y-98660000D01*
X189923000Y-98700000D02*
X179877000Y-98700000D01*
X189917000Y-98740000D02*
X179883000Y-98740000D01*
X189911000Y-98780000D02*
X179889000Y-98780000D01*
X189904000Y-98820000D02*
X179896000Y-98820000D01*
X189897000Y-98860000D02*
X179903000Y-98860000D01*
X189889000Y-98900000D02*
X179911000Y-98900000D01*
X189881000Y-98940000D02*
X179919000Y-98940000D01*
X189873000Y-98980000D02*
X179927000Y-98980000D01*
X189865000Y-99020000D02*
X179935000Y-99020000D01*
X189856000Y-99060000D02*
X179944000Y-99060000D01*
X189847000Y-99100000D02*
X179953000Y-99100000D01*
X189837000Y-99140000D02*
X179963000Y-99140000D01*
X189828000Y-99180000D02*
X179972000Y-99180000D01*
X189817000Y-99220000D02*
X186140000Y-99220000D01*
X183660000Y-99220000D02*
X179983000Y-99220000D01*
X189807000Y-99260000D02*
X186140000Y-99260000D01*
X183660000Y-99260000D02*
X179993000Y-99260000D01*
X189796000Y-99300000D02*
X186140000Y-99300000D01*
X183660000Y-99300000D02*
X180004000Y-99300000D01*
X189785000Y-99340000D02*
X186140000Y-99340000D01*
X183660000Y-99340000D02*
X180015000Y-99340000D01*
X189773000Y-99380000D02*
X186140000Y-99380000D01*
X183660000Y-99380000D02*
X180027000Y-99380000D01*
X189761000Y-99420000D02*
X186140000Y-99420000D01*
X183660000Y-99420000D02*
X180039000Y-99420000D01*
X189749000Y-99460000D02*
X186140000Y-99460000D01*
X183660000Y-99460000D02*
X180051000Y-99460000D01*
X189737000Y-99500000D02*
X186140000Y-99500000D01*
X183660000Y-99500000D02*
X180063000Y-99500000D01*
X189724000Y-99540000D02*
X186140000Y-99540000D01*
X183660000Y-99540000D02*
X180076000Y-99540000D01*
X189710000Y-99580000D02*
X186140000Y-99580000D01*
X183660000Y-99580000D02*
X180090000Y-99580000D01*
X189697000Y-99620000D02*
X186140000Y-99620000D01*
X183660000Y-99620000D02*
X180103000Y-99620000D01*
X189682000Y-99660000D02*
X186140000Y-99660000D01*
X183660000Y-99660000D02*
X180118000Y-99660000D01*
X189668000Y-99700000D02*
X186140000Y-99700000D01*
X183660000Y-99700000D02*
X180132000Y-99700000D01*
X189653000Y-99740000D02*
X186140000Y-99740000D01*
X183660000Y-99740000D02*
X180147000Y-99740000D01*
X189638000Y-99780000D02*
X186140000Y-99780000D01*
X183660000Y-99780000D02*
X180162000Y-99780000D01*
X189622000Y-99820000D02*
X186140000Y-99820000D01*
X183660000Y-99820000D02*
X180178000Y-99820000D01*
X189606000Y-99860000D02*
X186140000Y-99860000D01*
X183660000Y-99860000D02*
X180194000Y-99860000D01*
X189590000Y-99900000D02*
X186140000Y-99900000D01*
X183660000Y-99900000D02*
X180210000Y-99900000D01*
X189573000Y-99940000D02*
X186140000Y-99940000D01*
X183660000Y-99940000D02*
X180227000Y-99940000D01*
X189556000Y-99980000D02*
X186140000Y-99980000D01*
X183660000Y-99980000D02*
X180244000Y-99980000D01*
X189538000Y-100020000D02*
X186140000Y-100020000D01*
X183660000Y-100020000D02*
X180262000Y-100020000D01*
X189520000Y-100060000D02*
X186140000Y-100060000D01*
X183660000Y-100060000D02*
X180280000Y-100060000D01*
X189502000Y-100100000D02*
X186140000Y-100100000D01*
X183660000Y-100100000D02*
X180298000Y-100100000D01*
X189483000Y-100140000D02*
X186140000Y-100140000D01*
X183660000Y-100140000D02*
X180317000Y-100140000D01*
X189464000Y-100180000D02*
X186140000Y-100180000D01*
X183660000Y-100180000D02*
X180336000Y-100180000D01*
X189444000Y-100220000D02*
X186140000Y-100220000D01*
X183660000Y-100220000D02*
X180356000Y-100220000D01*
X189424000Y-100260000D02*
X186140000Y-100260000D01*
X183660000Y-100260000D02*
X180376000Y-100260000D01*
X189404000Y-100300000D02*
X186140000Y-100300000D01*
X183660000Y-100300000D02*
X180396000Y-100300000D01*
X189383000Y-100340000D02*
X186140000Y-100340000D01*
X183660000Y-100340000D02*
X180417000Y-100340000D01*
X189361000Y-100380000D02*
X186140000Y-100380000D01*
X183660000Y-100380000D02*
X180439000Y-100380000D01*
X189339000Y-100420000D02*
X186140000Y-100420000D01*
X183660000Y-100420000D02*
X180461000Y-100420000D01*
X189317000Y-100460000D02*
X186140000Y-100460000D01*
X183660000Y-100460000D02*
X180483000Y-100460000D01*
X189294000Y-100500000D02*
X186140000Y-100500000D01*
X183660000Y-100500000D02*
X180506000Y-100500000D01*
X189271000Y-100540000D02*
X186140000Y-100540000D01*
X183660000Y-100540000D02*
X180529000Y-100540000D01*
X189247000Y-100580000D02*
X186140000Y-100580000D01*
X183660000Y-100580000D02*
X180553000Y-100580000D01*
X189223000Y-100620000D02*
X186140000Y-100620000D01*
X183660000Y-100620000D02*
X180577000Y-100620000D01*
X189198000Y-100660000D02*
X186140000Y-100660000D01*
X183660000Y-100660000D02*
X180602000Y-100660000D01*
X189172000Y-100700000D02*
X186140000Y-100700000D01*
X183660000Y-100700000D02*
X180628000Y-100700000D01*
X189147000Y-100740000D02*
X186140000Y-100740000D01*
X183660000Y-100740000D02*
X180653000Y-100740000D01*
X189120000Y-100780000D02*
X186140000Y-100780000D01*
X183660000Y-100780000D02*
X180680000Y-100780000D01*
X189093000Y-100820000D02*
X186140000Y-100820000D01*
X183660000Y-100820000D02*
X180707000Y-100820000D01*
X189066000Y-100860000D02*
X186140000Y-100860000D01*
X183660000Y-100860000D02*
X180734000Y-100860000D01*
X189038000Y-100900000D02*
X186140000Y-100900000D01*
X183660000Y-100900000D02*
X180762000Y-100900000D01*
X189009000Y-100940000D02*
X186140000Y-100940000D01*
X183660000Y-100940000D02*
X180791000Y-100940000D01*
X188980000Y-100980000D02*
X186140000Y-100980000D01*
X183660000Y-100980000D02*
X180820000Y-100980000D01*
X188950000Y-101020000D02*
X186140000Y-101020000D01*
X183660000Y-101020000D02*
X180850000Y-101020000D01*
X188920000Y-101060000D02*
X186140000Y-101060000D01*
X183660000Y-101060000D02*
X180880000Y-101060000D01*
X188888000Y-101100000D02*
X186140000Y-101100000D01*
X183660000Y-101100000D02*
X180912000Y-101100000D01*
X188857000Y-101140000D02*
X186140000Y-101140000D01*
X183660000Y-101140000D02*
X180943000Y-101140000D01*
X188824000Y-101180000D02*
X186140000Y-101180000D01*
X183660000Y-101180000D02*
X180976000Y-101180000D01*
X188791000Y-101220000D02*
X186140000Y-101220000D01*
X183660000Y-101220000D02*
X181009000Y-101220000D01*
X188758000Y-101260000D02*
X186140000Y-101260000D01*
X183660000Y-101260000D02*
X181042000Y-101260000D01*
X188723000Y-101300000D02*
X186140000Y-101300000D01*
X183660000Y-101300000D02*
X181077000Y-101300000D01*
X188688000Y-101340000D02*
X186140000Y-101340000D01*
X183660000Y-101340000D02*
X181112000Y-101340000D01*
X188652000Y-101380000D02*
X186140000Y-101380000D01*
X183660000Y-101380000D02*
X181148000Y-101380000D01*
X188616000Y-101420000D02*
X186140000Y-101420000D01*
X183660000Y-101420000D02*
X181184000Y-101420000D01*
X188578000Y-101460000D02*
X186140000Y-101460000D01*
X183660000Y-101460000D02*
X181222000Y-101460000D01*
X188540000Y-101500000D02*
X186140000Y-101500000D01*
X183660000Y-101500000D02*
X181260000Y-101500000D01*
X188501000Y-101540000D02*
X186140000Y-101540000D01*
X183660000Y-101540000D02*
X181299000Y-101540000D01*
X188461000Y-101580000D02*
X186140000Y-101580000D01*
X183660000Y-101580000D02*
X181339000Y-101580000D01*
X188420000Y-101620000D02*
X186140000Y-101620000D01*
X183660000Y-101620000D02*
X181380000Y-101620000D01*
X188378000Y-101660000D02*
X186140000Y-101660000D01*
X183660000Y-101660000D02*
X181422000Y-101660000D01*
X188335000Y-101700000D02*
X181465000Y-101700000D01*
X188291000Y-101740000D02*
X181509000Y-101740000D01*
X188247000Y-101780000D02*
X181553000Y-101780000D01*
X188201000Y-101820000D02*
X181599000Y-101820000D01*
X188154000Y-101860000D02*
X181646000Y-101860000D01*
X188105000Y-101900000D02*
X181695000Y-101900000D01*
X188056000Y-101940000D02*
X181744000Y-101940000D01*
X188005000Y-101980000D02*
X181795000Y-101980000D01*
X187953000Y-102020000D02*
X181847000Y-102020000D01*
X187900000Y-102060000D02*
X181900000Y-102060000D01*
X187845000Y-102100000D02*
X181955000Y-102100000D01*
X187788000Y-102140000D02*
X182012000Y-102140000D01*
X187730000Y-102180000D02*
X182070000Y-102180000D01*
X187670000Y-102220000D02*
X182130000Y-102220000D01*
X187608000Y-102260000D02*
X182192000Y-102260000D01*
X187544000Y-102300000D02*
X182256000Y-102300000D01*
X187478000Y-102340000D02*
X182322000Y-102340000D01*
X187410000Y-102380000D02*
X182390000Y-102380000D01*
X187339000Y-102420000D02*
X182461000Y-102420000D01*
X187265000Y-102460000D02*
X182535000Y-102460000D01*
X187188000Y-102500000D02*
X182612000Y-102500000D01*
X187108000Y-102540000D02*
X182692000Y-102540000D01*
X187024000Y-102580000D02*
X182776000Y-102580000D01*
X186937000Y-102620000D02*
X182863000Y-102620000D01*
X186844000Y-102660000D02*
X182956000Y-102660000D01*
X186746000Y-102700000D02*
X183054000Y-102700000D01*
X186642000Y-102740000D02*
X183158000Y-102740000D01*
X186530000Y-102780000D02*
X183270000Y-102780000D01*
X186409000Y-102820000D02*
X183391000Y-102820000D01*
X186277000Y-102860000D02*
X183523000Y-102860000D01*
X186130000Y-102900000D02*
X183670000Y-102900000D01*
X185962000Y-102940000D02*
X183838000Y-102940000D01*
X185762000Y-102980000D02*
X184038000Y-102980000D01*
X185499000Y-103020000D02*
X184301000Y-103020000D01*
X190020000Y-97940000D02*
G75*
G02*
X179780000Y-97940000I-5120000J0D01*
G01*
X179780000Y-97940000D02*
G75*
G02*
X190020000Y-97940000I5120000J0D01*
G01*
%TO.C,C3*%
X176225000Y-92460354D02*
X176225000Y-93460354D01*
X176725000Y-92960354D02*
X175725000Y-92960354D01*
X178430000Y-97940000D02*
X168270000Y-97940000D01*
X178430000Y-97980000D02*
X168270000Y-97980000D01*
X178429000Y-98020000D02*
X168271000Y-98020000D01*
X178429000Y-98060000D02*
X168271000Y-98060000D01*
X178427000Y-98100000D02*
X168273000Y-98100000D01*
X178426000Y-98140000D02*
X168274000Y-98140000D01*
X178424000Y-98180000D02*
X168276000Y-98180000D01*
X178422000Y-98220000D02*
X168278000Y-98220000D01*
X178420000Y-98260000D02*
X168280000Y-98260000D01*
X178417000Y-98300000D02*
X168283000Y-98300000D01*
X178414000Y-98340000D02*
X168286000Y-98340000D01*
X178411000Y-98380000D02*
X168289000Y-98380000D01*
X178407000Y-98420000D02*
X168293000Y-98420000D01*
X178404000Y-98460000D02*
X168296000Y-98460000D01*
X178399000Y-98500000D02*
X168301000Y-98500000D01*
X178395000Y-98540000D02*
X168305000Y-98540000D01*
X178390000Y-98580000D02*
X168310000Y-98580000D01*
X178385000Y-98620000D02*
X168315000Y-98620000D01*
X178379000Y-98660000D02*
X168321000Y-98660000D01*
X178373000Y-98700000D02*
X168327000Y-98700000D01*
X178367000Y-98740000D02*
X168333000Y-98740000D01*
X178361000Y-98780000D02*
X168339000Y-98780000D01*
X178354000Y-98820000D02*
X168346000Y-98820000D01*
X178347000Y-98860000D02*
X168353000Y-98860000D01*
X178339000Y-98900000D02*
X168361000Y-98900000D01*
X178331000Y-98940000D02*
X168369000Y-98940000D01*
X178323000Y-98980000D02*
X168377000Y-98980000D01*
X178315000Y-99020000D02*
X168385000Y-99020000D01*
X178306000Y-99060000D02*
X168394000Y-99060000D01*
X178297000Y-99100000D02*
X168403000Y-99100000D01*
X178287000Y-99140000D02*
X168413000Y-99140000D01*
X178278000Y-99180000D02*
X168422000Y-99180000D01*
X178267000Y-99220000D02*
X174590000Y-99220000D01*
X172110000Y-99220000D02*
X168433000Y-99220000D01*
X178257000Y-99260000D02*
X174590000Y-99260000D01*
X172110000Y-99260000D02*
X168443000Y-99260000D01*
X178246000Y-99300000D02*
X174590000Y-99300000D01*
X172110000Y-99300000D02*
X168454000Y-99300000D01*
X178235000Y-99340000D02*
X174590000Y-99340000D01*
X172110000Y-99340000D02*
X168465000Y-99340000D01*
X178223000Y-99380000D02*
X174590000Y-99380000D01*
X172110000Y-99380000D02*
X168477000Y-99380000D01*
X178211000Y-99420000D02*
X174590000Y-99420000D01*
X172110000Y-99420000D02*
X168489000Y-99420000D01*
X178199000Y-99460000D02*
X174590000Y-99460000D01*
X172110000Y-99460000D02*
X168501000Y-99460000D01*
X178187000Y-99500000D02*
X174590000Y-99500000D01*
X172110000Y-99500000D02*
X168513000Y-99500000D01*
X178174000Y-99540000D02*
X174590000Y-99540000D01*
X172110000Y-99540000D02*
X168526000Y-99540000D01*
X178160000Y-99580000D02*
X174590000Y-99580000D01*
X172110000Y-99580000D02*
X168540000Y-99580000D01*
X178147000Y-99620000D02*
X174590000Y-99620000D01*
X172110000Y-99620000D02*
X168553000Y-99620000D01*
X178132000Y-99660000D02*
X174590000Y-99660000D01*
X172110000Y-99660000D02*
X168568000Y-99660000D01*
X178118000Y-99700000D02*
X174590000Y-99700000D01*
X172110000Y-99700000D02*
X168582000Y-99700000D01*
X178103000Y-99740000D02*
X174590000Y-99740000D01*
X172110000Y-99740000D02*
X168597000Y-99740000D01*
X178088000Y-99780000D02*
X174590000Y-99780000D01*
X172110000Y-99780000D02*
X168612000Y-99780000D01*
X178072000Y-99820000D02*
X174590000Y-99820000D01*
X172110000Y-99820000D02*
X168628000Y-99820000D01*
X178056000Y-99860000D02*
X174590000Y-99860000D01*
X172110000Y-99860000D02*
X168644000Y-99860000D01*
X178040000Y-99900000D02*
X174590000Y-99900000D01*
X172110000Y-99900000D02*
X168660000Y-99900000D01*
X178023000Y-99940000D02*
X174590000Y-99940000D01*
X172110000Y-99940000D02*
X168677000Y-99940000D01*
X178006000Y-99980000D02*
X174590000Y-99980000D01*
X172110000Y-99980000D02*
X168694000Y-99980000D01*
X177988000Y-100020000D02*
X174590000Y-100020000D01*
X172110000Y-100020000D02*
X168712000Y-100020000D01*
X177970000Y-100060000D02*
X174590000Y-100060000D01*
X172110000Y-100060000D02*
X168730000Y-100060000D01*
X177952000Y-100100000D02*
X174590000Y-100100000D01*
X172110000Y-100100000D02*
X168748000Y-100100000D01*
X177933000Y-100140000D02*
X174590000Y-100140000D01*
X172110000Y-100140000D02*
X168767000Y-100140000D01*
X177914000Y-100180000D02*
X174590000Y-100180000D01*
X172110000Y-100180000D02*
X168786000Y-100180000D01*
X177894000Y-100220000D02*
X174590000Y-100220000D01*
X172110000Y-100220000D02*
X168806000Y-100220000D01*
X177874000Y-100260000D02*
X174590000Y-100260000D01*
X172110000Y-100260000D02*
X168826000Y-100260000D01*
X177854000Y-100300000D02*
X174590000Y-100300000D01*
X172110000Y-100300000D02*
X168846000Y-100300000D01*
X177833000Y-100340000D02*
X174590000Y-100340000D01*
X172110000Y-100340000D02*
X168867000Y-100340000D01*
X177811000Y-100380000D02*
X174590000Y-100380000D01*
X172110000Y-100380000D02*
X168889000Y-100380000D01*
X177789000Y-100420000D02*
X174590000Y-100420000D01*
X172110000Y-100420000D02*
X168911000Y-100420000D01*
X177767000Y-100460000D02*
X174590000Y-100460000D01*
X172110000Y-100460000D02*
X168933000Y-100460000D01*
X177744000Y-100500000D02*
X174590000Y-100500000D01*
X172110000Y-100500000D02*
X168956000Y-100500000D01*
X177721000Y-100540000D02*
X174590000Y-100540000D01*
X172110000Y-100540000D02*
X168979000Y-100540000D01*
X177697000Y-100580000D02*
X174590000Y-100580000D01*
X172110000Y-100580000D02*
X169003000Y-100580000D01*
X177673000Y-100620000D02*
X174590000Y-100620000D01*
X172110000Y-100620000D02*
X169027000Y-100620000D01*
X177648000Y-100660000D02*
X174590000Y-100660000D01*
X172110000Y-100660000D02*
X169052000Y-100660000D01*
X177622000Y-100700000D02*
X174590000Y-100700000D01*
X172110000Y-100700000D02*
X169078000Y-100700000D01*
X177597000Y-100740000D02*
X174590000Y-100740000D01*
X172110000Y-100740000D02*
X169103000Y-100740000D01*
X177570000Y-100780000D02*
X174590000Y-100780000D01*
X172110000Y-100780000D02*
X169130000Y-100780000D01*
X177543000Y-100820000D02*
X174590000Y-100820000D01*
X172110000Y-100820000D02*
X169157000Y-100820000D01*
X177516000Y-100860000D02*
X174590000Y-100860000D01*
X172110000Y-100860000D02*
X169184000Y-100860000D01*
X177488000Y-100900000D02*
X174590000Y-100900000D01*
X172110000Y-100900000D02*
X169212000Y-100900000D01*
X177459000Y-100940000D02*
X174590000Y-100940000D01*
X172110000Y-100940000D02*
X169241000Y-100940000D01*
X177430000Y-100980000D02*
X174590000Y-100980000D01*
X172110000Y-100980000D02*
X169270000Y-100980000D01*
X177400000Y-101020000D02*
X174590000Y-101020000D01*
X172110000Y-101020000D02*
X169300000Y-101020000D01*
X177370000Y-101060000D02*
X174590000Y-101060000D01*
X172110000Y-101060000D02*
X169330000Y-101060000D01*
X177338000Y-101100000D02*
X174590000Y-101100000D01*
X172110000Y-101100000D02*
X169362000Y-101100000D01*
X177307000Y-101140000D02*
X174590000Y-101140000D01*
X172110000Y-101140000D02*
X169393000Y-101140000D01*
X177274000Y-101180000D02*
X174590000Y-101180000D01*
X172110000Y-101180000D02*
X169426000Y-101180000D01*
X177241000Y-101220000D02*
X174590000Y-101220000D01*
X172110000Y-101220000D02*
X169459000Y-101220000D01*
X177208000Y-101260000D02*
X174590000Y-101260000D01*
X172110000Y-101260000D02*
X169492000Y-101260000D01*
X177173000Y-101300000D02*
X174590000Y-101300000D01*
X172110000Y-101300000D02*
X169527000Y-101300000D01*
X177138000Y-101340000D02*
X174590000Y-101340000D01*
X172110000Y-101340000D02*
X169562000Y-101340000D01*
X177102000Y-101380000D02*
X174590000Y-101380000D01*
X172110000Y-101380000D02*
X169598000Y-101380000D01*
X177066000Y-101420000D02*
X174590000Y-101420000D01*
X172110000Y-101420000D02*
X169634000Y-101420000D01*
X177028000Y-101460000D02*
X174590000Y-101460000D01*
X172110000Y-101460000D02*
X169672000Y-101460000D01*
X176990000Y-101500000D02*
X174590000Y-101500000D01*
X172110000Y-101500000D02*
X169710000Y-101500000D01*
X176951000Y-101540000D02*
X174590000Y-101540000D01*
X172110000Y-101540000D02*
X169749000Y-101540000D01*
X176911000Y-101580000D02*
X174590000Y-101580000D01*
X172110000Y-101580000D02*
X169789000Y-101580000D01*
X176870000Y-101620000D02*
X174590000Y-101620000D01*
X172110000Y-101620000D02*
X169830000Y-101620000D01*
X176828000Y-101660000D02*
X174590000Y-101660000D01*
X172110000Y-101660000D02*
X169872000Y-101660000D01*
X176785000Y-101700000D02*
X169915000Y-101700000D01*
X176741000Y-101740000D02*
X169959000Y-101740000D01*
X176697000Y-101780000D02*
X170003000Y-101780000D01*
X176651000Y-101820000D02*
X170049000Y-101820000D01*
X176604000Y-101860000D02*
X170096000Y-101860000D01*
X176555000Y-101900000D02*
X170145000Y-101900000D01*
X176506000Y-101940000D02*
X170194000Y-101940000D01*
X176455000Y-101980000D02*
X170245000Y-101980000D01*
X176403000Y-102020000D02*
X170297000Y-102020000D01*
X176350000Y-102060000D02*
X170350000Y-102060000D01*
X176295000Y-102100000D02*
X170405000Y-102100000D01*
X176238000Y-102140000D02*
X170462000Y-102140000D01*
X176180000Y-102180000D02*
X170520000Y-102180000D01*
X176120000Y-102220000D02*
X170580000Y-102220000D01*
X176058000Y-102260000D02*
X170642000Y-102260000D01*
X175994000Y-102300000D02*
X170706000Y-102300000D01*
X175928000Y-102340000D02*
X170772000Y-102340000D01*
X175860000Y-102380000D02*
X170840000Y-102380000D01*
X175789000Y-102420000D02*
X170911000Y-102420000D01*
X175715000Y-102460000D02*
X170985000Y-102460000D01*
X175638000Y-102500000D02*
X171062000Y-102500000D01*
X175558000Y-102540000D02*
X171142000Y-102540000D01*
X175474000Y-102580000D02*
X171226000Y-102580000D01*
X175387000Y-102620000D02*
X171313000Y-102620000D01*
X175294000Y-102660000D02*
X171406000Y-102660000D01*
X175196000Y-102700000D02*
X171504000Y-102700000D01*
X175092000Y-102740000D02*
X171608000Y-102740000D01*
X174980000Y-102780000D02*
X171720000Y-102780000D01*
X174859000Y-102820000D02*
X171841000Y-102820000D01*
X174727000Y-102860000D02*
X171973000Y-102860000D01*
X174580000Y-102900000D02*
X172120000Y-102900000D01*
X174412000Y-102940000D02*
X172288000Y-102940000D01*
X174212000Y-102980000D02*
X172488000Y-102980000D01*
X173949000Y-103020000D02*
X172751000Y-103020000D01*
X178470000Y-97940000D02*
G75*
G02*
X168230000Y-97940000I-5120000J0D01*
G01*
X168230000Y-97940000D02*
G75*
G02*
X178470000Y-97940000I5120000J0D01*
G01*
%TO.C,C1*%
X199325000Y-92460354D02*
X199325000Y-93460354D01*
X199825000Y-92960354D02*
X198825000Y-92960354D01*
X201530000Y-97940000D02*
X191370000Y-97940000D01*
X201530000Y-97980000D02*
X191370000Y-97980000D01*
X201529000Y-98020000D02*
X191371000Y-98020000D01*
X201529000Y-98060000D02*
X191371000Y-98060000D01*
X201527000Y-98100000D02*
X191373000Y-98100000D01*
X201526000Y-98140000D02*
X191374000Y-98140000D01*
X201524000Y-98180000D02*
X191376000Y-98180000D01*
X201522000Y-98220000D02*
X191378000Y-98220000D01*
X201520000Y-98260000D02*
X191380000Y-98260000D01*
X201517000Y-98300000D02*
X191383000Y-98300000D01*
X201514000Y-98340000D02*
X191386000Y-98340000D01*
X201511000Y-98380000D02*
X191389000Y-98380000D01*
X201507000Y-98420000D02*
X191393000Y-98420000D01*
X201504000Y-98460000D02*
X191396000Y-98460000D01*
X201499000Y-98500000D02*
X191401000Y-98500000D01*
X201495000Y-98540000D02*
X191405000Y-98540000D01*
X201490000Y-98580000D02*
X191410000Y-98580000D01*
X201485000Y-98620000D02*
X191415000Y-98620000D01*
X201479000Y-98660000D02*
X191421000Y-98660000D01*
X201473000Y-98700000D02*
X191427000Y-98700000D01*
X201467000Y-98740000D02*
X191433000Y-98740000D01*
X201461000Y-98780000D02*
X191439000Y-98780000D01*
X201454000Y-98820000D02*
X191446000Y-98820000D01*
X201447000Y-98860000D02*
X191453000Y-98860000D01*
X201439000Y-98900000D02*
X191461000Y-98900000D01*
X201431000Y-98940000D02*
X191469000Y-98940000D01*
X201423000Y-98980000D02*
X191477000Y-98980000D01*
X201415000Y-99020000D02*
X191485000Y-99020000D01*
X201406000Y-99060000D02*
X191494000Y-99060000D01*
X201397000Y-99100000D02*
X191503000Y-99100000D01*
X201387000Y-99140000D02*
X191513000Y-99140000D01*
X201378000Y-99180000D02*
X191522000Y-99180000D01*
X201367000Y-99220000D02*
X197690000Y-99220000D01*
X195210000Y-99220000D02*
X191533000Y-99220000D01*
X201357000Y-99260000D02*
X197690000Y-99260000D01*
X195210000Y-99260000D02*
X191543000Y-99260000D01*
X201346000Y-99300000D02*
X197690000Y-99300000D01*
X195210000Y-99300000D02*
X191554000Y-99300000D01*
X201335000Y-99340000D02*
X197690000Y-99340000D01*
X195210000Y-99340000D02*
X191565000Y-99340000D01*
X201323000Y-99380000D02*
X197690000Y-99380000D01*
X195210000Y-99380000D02*
X191577000Y-99380000D01*
X201311000Y-99420000D02*
X197690000Y-99420000D01*
X195210000Y-99420000D02*
X191589000Y-99420000D01*
X201299000Y-99460000D02*
X197690000Y-99460000D01*
X195210000Y-99460000D02*
X191601000Y-99460000D01*
X201287000Y-99500000D02*
X197690000Y-99500000D01*
X195210000Y-99500000D02*
X191613000Y-99500000D01*
X201274000Y-99540000D02*
X197690000Y-99540000D01*
X195210000Y-99540000D02*
X191626000Y-99540000D01*
X201260000Y-99580000D02*
X197690000Y-99580000D01*
X195210000Y-99580000D02*
X191640000Y-99580000D01*
X201247000Y-99620000D02*
X197690000Y-99620000D01*
X195210000Y-99620000D02*
X191653000Y-99620000D01*
X201232000Y-99660000D02*
X197690000Y-99660000D01*
X195210000Y-99660000D02*
X191668000Y-99660000D01*
X201218000Y-99700000D02*
X197690000Y-99700000D01*
X195210000Y-99700000D02*
X191682000Y-99700000D01*
X201203000Y-99740000D02*
X197690000Y-99740000D01*
X195210000Y-99740000D02*
X191697000Y-99740000D01*
X201188000Y-99780000D02*
X197690000Y-99780000D01*
X195210000Y-99780000D02*
X191712000Y-99780000D01*
X201172000Y-99820000D02*
X197690000Y-99820000D01*
X195210000Y-99820000D02*
X191728000Y-99820000D01*
X201156000Y-99860000D02*
X197690000Y-99860000D01*
X195210000Y-99860000D02*
X191744000Y-99860000D01*
X201140000Y-99900000D02*
X197690000Y-99900000D01*
X195210000Y-99900000D02*
X191760000Y-99900000D01*
X201123000Y-99940000D02*
X197690000Y-99940000D01*
X195210000Y-99940000D02*
X191777000Y-99940000D01*
X201106000Y-99980000D02*
X197690000Y-99980000D01*
X195210000Y-99980000D02*
X191794000Y-99980000D01*
X201088000Y-100020000D02*
X197690000Y-100020000D01*
X195210000Y-100020000D02*
X191812000Y-100020000D01*
X201070000Y-100060000D02*
X197690000Y-100060000D01*
X195210000Y-100060000D02*
X191830000Y-100060000D01*
X201052000Y-100100000D02*
X197690000Y-100100000D01*
X195210000Y-100100000D02*
X191848000Y-100100000D01*
X201033000Y-100140000D02*
X197690000Y-100140000D01*
X195210000Y-100140000D02*
X191867000Y-100140000D01*
X201014000Y-100180000D02*
X197690000Y-100180000D01*
X195210000Y-100180000D02*
X191886000Y-100180000D01*
X200994000Y-100220000D02*
X197690000Y-100220000D01*
X195210000Y-100220000D02*
X191906000Y-100220000D01*
X200974000Y-100260000D02*
X197690000Y-100260000D01*
X195210000Y-100260000D02*
X191926000Y-100260000D01*
X200954000Y-100300000D02*
X197690000Y-100300000D01*
X195210000Y-100300000D02*
X191946000Y-100300000D01*
X200933000Y-100340000D02*
X197690000Y-100340000D01*
X195210000Y-100340000D02*
X191967000Y-100340000D01*
X200911000Y-100380000D02*
X197690000Y-100380000D01*
X195210000Y-100380000D02*
X191989000Y-100380000D01*
X200889000Y-100420000D02*
X197690000Y-100420000D01*
X195210000Y-100420000D02*
X192011000Y-100420000D01*
X200867000Y-100460000D02*
X197690000Y-100460000D01*
X195210000Y-100460000D02*
X192033000Y-100460000D01*
X200844000Y-100500000D02*
X197690000Y-100500000D01*
X195210000Y-100500000D02*
X192056000Y-100500000D01*
X200821000Y-100540000D02*
X197690000Y-100540000D01*
X195210000Y-100540000D02*
X192079000Y-100540000D01*
X200797000Y-100580000D02*
X197690000Y-100580000D01*
X195210000Y-100580000D02*
X192103000Y-100580000D01*
X200773000Y-100620000D02*
X197690000Y-100620000D01*
X195210000Y-100620000D02*
X192127000Y-100620000D01*
X200748000Y-100660000D02*
X197690000Y-100660000D01*
X195210000Y-100660000D02*
X192152000Y-100660000D01*
X200722000Y-100700000D02*
X197690000Y-100700000D01*
X195210000Y-100700000D02*
X192178000Y-100700000D01*
X200697000Y-100740000D02*
X197690000Y-100740000D01*
X195210000Y-100740000D02*
X192203000Y-100740000D01*
X200670000Y-100780000D02*
X197690000Y-100780000D01*
X195210000Y-100780000D02*
X192230000Y-100780000D01*
X200643000Y-100820000D02*
X197690000Y-100820000D01*
X195210000Y-100820000D02*
X192257000Y-100820000D01*
X200616000Y-100860000D02*
X197690000Y-100860000D01*
X195210000Y-100860000D02*
X192284000Y-100860000D01*
X200588000Y-100900000D02*
X197690000Y-100900000D01*
X195210000Y-100900000D02*
X192312000Y-100900000D01*
X200559000Y-100940000D02*
X197690000Y-100940000D01*
X195210000Y-100940000D02*
X192341000Y-100940000D01*
X200530000Y-100980000D02*
X197690000Y-100980000D01*
X195210000Y-100980000D02*
X192370000Y-100980000D01*
X200500000Y-101020000D02*
X197690000Y-101020000D01*
X195210000Y-101020000D02*
X192400000Y-101020000D01*
X200470000Y-101060000D02*
X197690000Y-101060000D01*
X195210000Y-101060000D02*
X192430000Y-101060000D01*
X200438000Y-101100000D02*
X197690000Y-101100000D01*
X195210000Y-101100000D02*
X192462000Y-101100000D01*
X200407000Y-101140000D02*
X197690000Y-101140000D01*
X195210000Y-101140000D02*
X192493000Y-101140000D01*
X200374000Y-101180000D02*
X197690000Y-101180000D01*
X195210000Y-101180000D02*
X192526000Y-101180000D01*
X200341000Y-101220000D02*
X197690000Y-101220000D01*
X195210000Y-101220000D02*
X192559000Y-101220000D01*
X200308000Y-101260000D02*
X197690000Y-101260000D01*
X195210000Y-101260000D02*
X192592000Y-101260000D01*
X200273000Y-101300000D02*
X197690000Y-101300000D01*
X195210000Y-101300000D02*
X192627000Y-101300000D01*
X200238000Y-101340000D02*
X197690000Y-101340000D01*
X195210000Y-101340000D02*
X192662000Y-101340000D01*
X200202000Y-101380000D02*
X197690000Y-101380000D01*
X195210000Y-101380000D02*
X192698000Y-101380000D01*
X200166000Y-101420000D02*
X197690000Y-101420000D01*
X195210000Y-101420000D02*
X192734000Y-101420000D01*
X200128000Y-101460000D02*
X197690000Y-101460000D01*
X195210000Y-101460000D02*
X192772000Y-101460000D01*
X200090000Y-101500000D02*
X197690000Y-101500000D01*
X195210000Y-101500000D02*
X192810000Y-101500000D01*
X200051000Y-101540000D02*
X197690000Y-101540000D01*
X195210000Y-101540000D02*
X192849000Y-101540000D01*
X200011000Y-101580000D02*
X197690000Y-101580000D01*
X195210000Y-101580000D02*
X192889000Y-101580000D01*
X199970000Y-101620000D02*
X197690000Y-101620000D01*
X195210000Y-101620000D02*
X192930000Y-101620000D01*
X199928000Y-101660000D02*
X197690000Y-101660000D01*
X195210000Y-101660000D02*
X192972000Y-101660000D01*
X199885000Y-101700000D02*
X193015000Y-101700000D01*
X199841000Y-101740000D02*
X193059000Y-101740000D01*
X199797000Y-101780000D02*
X193103000Y-101780000D01*
X199751000Y-101820000D02*
X193149000Y-101820000D01*
X199704000Y-101860000D02*
X193196000Y-101860000D01*
X199655000Y-101900000D02*
X193245000Y-101900000D01*
X199606000Y-101940000D02*
X193294000Y-101940000D01*
X199555000Y-101980000D02*
X193345000Y-101980000D01*
X199503000Y-102020000D02*
X193397000Y-102020000D01*
X199450000Y-102060000D02*
X193450000Y-102060000D01*
X199395000Y-102100000D02*
X193505000Y-102100000D01*
X199338000Y-102140000D02*
X193562000Y-102140000D01*
X199280000Y-102180000D02*
X193620000Y-102180000D01*
X199220000Y-102220000D02*
X193680000Y-102220000D01*
X199158000Y-102260000D02*
X193742000Y-102260000D01*
X199094000Y-102300000D02*
X193806000Y-102300000D01*
X199028000Y-102340000D02*
X193872000Y-102340000D01*
X198960000Y-102380000D02*
X193940000Y-102380000D01*
X198889000Y-102420000D02*
X194011000Y-102420000D01*
X198815000Y-102460000D02*
X194085000Y-102460000D01*
X198738000Y-102500000D02*
X194162000Y-102500000D01*
X198658000Y-102540000D02*
X194242000Y-102540000D01*
X198574000Y-102580000D02*
X194326000Y-102580000D01*
X198487000Y-102620000D02*
X194413000Y-102620000D01*
X198394000Y-102660000D02*
X194506000Y-102660000D01*
X198296000Y-102700000D02*
X194604000Y-102700000D01*
X198192000Y-102740000D02*
X194708000Y-102740000D01*
X198080000Y-102780000D02*
X194820000Y-102780000D01*
X197959000Y-102820000D02*
X194941000Y-102820000D01*
X197827000Y-102860000D02*
X195073000Y-102860000D01*
X197680000Y-102900000D02*
X195220000Y-102900000D01*
X197512000Y-102940000D02*
X195388000Y-102940000D01*
X197312000Y-102980000D02*
X195588000Y-102980000D01*
X197049000Y-103020000D02*
X195851000Y-103020000D01*
X201570000Y-97940000D02*
G75*
G02*
X191330000Y-97940000I-5120000J0D01*
G01*
X191330000Y-97940000D02*
G75*
G02*
X201570000Y-97940000I5120000J0D01*
G01*
%TO.C,C9*%
X192747500Y-60382500D02*
X192747500Y-61170000D01*
X193141250Y-60776250D02*
X192353750Y-60776250D01*
X193245563Y-61410000D02*
X191960000Y-61410000D01*
X193245563Y-61410000D02*
X194310000Y-62474437D01*
X188554437Y-61410000D02*
X189840000Y-61410000D01*
X188554437Y-61410000D02*
X187490000Y-62474437D01*
X194310000Y-62474437D02*
X194310000Y-68230000D01*
X187490000Y-62474437D02*
X187490000Y-68230000D01*
X194310000Y-68230000D02*
X191960000Y-68230000D01*
X187490000Y-68230000D02*
X189840000Y-68230000D01*
%TO.C,L3*%
X171840000Y-60450000D02*
X184440000Y-60450000D01*
X171840000Y-63450000D02*
X171840000Y-60450000D01*
X171840000Y-73050000D02*
X171840000Y-70050000D01*
X184440000Y-60450000D02*
X184440000Y-63450000D01*
X184440000Y-70050000D02*
X184440000Y-73050000D01*
X184440000Y-73050000D02*
X171840000Y-73050000D01*
%TO.C,C5*%
X168505000Y-75772677D02*
X168505000Y-76772677D01*
X169005000Y-76272677D02*
X168005000Y-76272677D01*
X170710000Y-81252323D02*
X160550000Y-81252323D01*
X170710000Y-81292323D02*
X160550000Y-81292323D01*
X170709000Y-81332323D02*
X160551000Y-81332323D01*
X170709000Y-81372323D02*
X160551000Y-81372323D01*
X170707000Y-81412323D02*
X160553000Y-81412323D01*
X170706000Y-81452323D02*
X160554000Y-81452323D01*
X170704000Y-81492323D02*
X160556000Y-81492323D01*
X170702000Y-81532323D02*
X160558000Y-81532323D01*
X170700000Y-81572323D02*
X160560000Y-81572323D01*
X170697000Y-81612323D02*
X160563000Y-81612323D01*
X170694000Y-81652323D02*
X160566000Y-81652323D01*
X170691000Y-81692323D02*
X160569000Y-81692323D01*
X170687000Y-81732323D02*
X160573000Y-81732323D01*
X170684000Y-81772323D02*
X160576000Y-81772323D01*
X170679000Y-81812323D02*
X160581000Y-81812323D01*
X170675000Y-81852323D02*
X160585000Y-81852323D01*
X170670000Y-81892323D02*
X160590000Y-81892323D01*
X170665000Y-81932323D02*
X160595000Y-81932323D01*
X170659000Y-81972323D02*
X160601000Y-81972323D01*
X170653000Y-82012323D02*
X160607000Y-82012323D01*
X170647000Y-82052323D02*
X160613000Y-82052323D01*
X170641000Y-82092323D02*
X160619000Y-82092323D01*
X170634000Y-82132323D02*
X160626000Y-82132323D01*
X170627000Y-82172323D02*
X160633000Y-82172323D01*
X170619000Y-82212323D02*
X160641000Y-82212323D01*
X170611000Y-82252323D02*
X160649000Y-82252323D01*
X170603000Y-82292323D02*
X160657000Y-82292323D01*
X170595000Y-82332323D02*
X160665000Y-82332323D01*
X170586000Y-82372323D02*
X160674000Y-82372323D01*
X170577000Y-82412323D02*
X160683000Y-82412323D01*
X170567000Y-82452323D02*
X160693000Y-82452323D01*
X170558000Y-82492323D02*
X160702000Y-82492323D01*
X170547000Y-82532323D02*
X166870000Y-82532323D01*
X164390000Y-82532323D02*
X160713000Y-82532323D01*
X170537000Y-82572323D02*
X166870000Y-82572323D01*
X164390000Y-82572323D02*
X160723000Y-82572323D01*
X170526000Y-82612323D02*
X166870000Y-82612323D01*
X164390000Y-82612323D02*
X160734000Y-82612323D01*
X170515000Y-82652323D02*
X166870000Y-82652323D01*
X164390000Y-82652323D02*
X160745000Y-82652323D01*
X170503000Y-82692323D02*
X166870000Y-82692323D01*
X164390000Y-82692323D02*
X160757000Y-82692323D01*
X170491000Y-82732323D02*
X166870000Y-82732323D01*
X164390000Y-82732323D02*
X160769000Y-82732323D01*
X170479000Y-82772323D02*
X166870000Y-82772323D01*
X164390000Y-82772323D02*
X160781000Y-82772323D01*
X170467000Y-82812323D02*
X166870000Y-82812323D01*
X164390000Y-82812323D02*
X160793000Y-82812323D01*
X170454000Y-82852323D02*
X166870000Y-82852323D01*
X164390000Y-82852323D02*
X160806000Y-82852323D01*
X170440000Y-82892323D02*
X166870000Y-82892323D01*
X164390000Y-82892323D02*
X160820000Y-82892323D01*
X170427000Y-82932323D02*
X166870000Y-82932323D01*
X164390000Y-82932323D02*
X160833000Y-82932323D01*
X170412000Y-82972323D02*
X166870000Y-82972323D01*
X164390000Y-82972323D02*
X160848000Y-82972323D01*
X170398000Y-83012323D02*
X166870000Y-83012323D01*
X164390000Y-83012323D02*
X160862000Y-83012323D01*
X170383000Y-83052323D02*
X166870000Y-83052323D01*
X164390000Y-83052323D02*
X160877000Y-83052323D01*
X170368000Y-83092323D02*
X166870000Y-83092323D01*
X164390000Y-83092323D02*
X160892000Y-83092323D01*
X170352000Y-83132323D02*
X166870000Y-83132323D01*
X164390000Y-83132323D02*
X160908000Y-83132323D01*
X170336000Y-83172323D02*
X166870000Y-83172323D01*
X164390000Y-83172323D02*
X160924000Y-83172323D01*
X170320000Y-83212323D02*
X166870000Y-83212323D01*
X164390000Y-83212323D02*
X160940000Y-83212323D01*
X170303000Y-83252323D02*
X166870000Y-83252323D01*
X164390000Y-83252323D02*
X160957000Y-83252323D01*
X170286000Y-83292323D02*
X166870000Y-83292323D01*
X164390000Y-83292323D02*
X160974000Y-83292323D01*
X170268000Y-83332323D02*
X166870000Y-83332323D01*
X164390000Y-83332323D02*
X160992000Y-83332323D01*
X170250000Y-83372323D02*
X166870000Y-83372323D01*
X164390000Y-83372323D02*
X161010000Y-83372323D01*
X170232000Y-83412323D02*
X166870000Y-83412323D01*
X164390000Y-83412323D02*
X161028000Y-83412323D01*
X170213000Y-83452323D02*
X166870000Y-83452323D01*
X164390000Y-83452323D02*
X161047000Y-83452323D01*
X170194000Y-83492323D02*
X166870000Y-83492323D01*
X164390000Y-83492323D02*
X161066000Y-83492323D01*
X170174000Y-83532323D02*
X166870000Y-83532323D01*
X164390000Y-83532323D02*
X161086000Y-83532323D01*
X170154000Y-83572323D02*
X166870000Y-83572323D01*
X164390000Y-83572323D02*
X161106000Y-83572323D01*
X170134000Y-83612323D02*
X166870000Y-83612323D01*
X164390000Y-83612323D02*
X161126000Y-83612323D01*
X170113000Y-83652323D02*
X166870000Y-83652323D01*
X164390000Y-83652323D02*
X161147000Y-83652323D01*
X170091000Y-83692323D02*
X166870000Y-83692323D01*
X164390000Y-83692323D02*
X161169000Y-83692323D01*
X170069000Y-83732323D02*
X166870000Y-83732323D01*
X164390000Y-83732323D02*
X161191000Y-83732323D01*
X170047000Y-83772323D02*
X166870000Y-83772323D01*
X164390000Y-83772323D02*
X161213000Y-83772323D01*
X170024000Y-83812323D02*
X166870000Y-83812323D01*
X164390000Y-83812323D02*
X161236000Y-83812323D01*
X170001000Y-83852323D02*
X166870000Y-83852323D01*
X164390000Y-83852323D02*
X161259000Y-83852323D01*
X169977000Y-83892323D02*
X166870000Y-83892323D01*
X164390000Y-83892323D02*
X161283000Y-83892323D01*
X169953000Y-83932323D02*
X166870000Y-83932323D01*
X164390000Y-83932323D02*
X161307000Y-83932323D01*
X169928000Y-83972323D02*
X166870000Y-83972323D01*
X164390000Y-83972323D02*
X161332000Y-83972323D01*
X169902000Y-84012323D02*
X166870000Y-84012323D01*
X164390000Y-84012323D02*
X161358000Y-84012323D01*
X169877000Y-84052323D02*
X166870000Y-84052323D01*
X164390000Y-84052323D02*
X161383000Y-84052323D01*
X169850000Y-84092323D02*
X166870000Y-84092323D01*
X164390000Y-84092323D02*
X161410000Y-84092323D01*
X169823000Y-84132323D02*
X166870000Y-84132323D01*
X164390000Y-84132323D02*
X161437000Y-84132323D01*
X169796000Y-84172323D02*
X166870000Y-84172323D01*
X164390000Y-84172323D02*
X161464000Y-84172323D01*
X169768000Y-84212323D02*
X166870000Y-84212323D01*
X164390000Y-84212323D02*
X161492000Y-84212323D01*
X169739000Y-84252323D02*
X166870000Y-84252323D01*
X164390000Y-84252323D02*
X161521000Y-84252323D01*
X169710000Y-84292323D02*
X166870000Y-84292323D01*
X164390000Y-84292323D02*
X161550000Y-84292323D01*
X169680000Y-84332323D02*
X166870000Y-84332323D01*
X164390000Y-84332323D02*
X161580000Y-84332323D01*
X169650000Y-84372323D02*
X166870000Y-84372323D01*
X164390000Y-84372323D02*
X161610000Y-84372323D01*
X169618000Y-84412323D02*
X166870000Y-84412323D01*
X164390000Y-84412323D02*
X161642000Y-84412323D01*
X169587000Y-84452323D02*
X166870000Y-84452323D01*
X164390000Y-84452323D02*
X161673000Y-84452323D01*
X169554000Y-84492323D02*
X166870000Y-84492323D01*
X164390000Y-84492323D02*
X161706000Y-84492323D01*
X169521000Y-84532323D02*
X166870000Y-84532323D01*
X164390000Y-84532323D02*
X161739000Y-84532323D01*
X169488000Y-84572323D02*
X166870000Y-84572323D01*
X164390000Y-84572323D02*
X161772000Y-84572323D01*
X169453000Y-84612323D02*
X166870000Y-84612323D01*
X164390000Y-84612323D02*
X161807000Y-84612323D01*
X169418000Y-84652323D02*
X166870000Y-84652323D01*
X164390000Y-84652323D02*
X161842000Y-84652323D01*
X169382000Y-84692323D02*
X166870000Y-84692323D01*
X164390000Y-84692323D02*
X161878000Y-84692323D01*
X169346000Y-84732323D02*
X166870000Y-84732323D01*
X164390000Y-84732323D02*
X161914000Y-84732323D01*
X169308000Y-84772323D02*
X166870000Y-84772323D01*
X164390000Y-84772323D02*
X161952000Y-84772323D01*
X169270000Y-84812323D02*
X166870000Y-84812323D01*
X164390000Y-84812323D02*
X161990000Y-84812323D01*
X169231000Y-84852323D02*
X166870000Y-84852323D01*
X164390000Y-84852323D02*
X162029000Y-84852323D01*
X169191000Y-84892323D02*
X166870000Y-84892323D01*
X164390000Y-84892323D02*
X162069000Y-84892323D01*
X169150000Y-84932323D02*
X166870000Y-84932323D01*
X164390000Y-84932323D02*
X162110000Y-84932323D01*
X169108000Y-84972323D02*
X166870000Y-84972323D01*
X164390000Y-84972323D02*
X162152000Y-84972323D01*
X169065000Y-85012323D02*
X162195000Y-85012323D01*
X169021000Y-85052323D02*
X162239000Y-85052323D01*
X168977000Y-85092323D02*
X162283000Y-85092323D01*
X168931000Y-85132323D02*
X162329000Y-85132323D01*
X168884000Y-85172323D02*
X162376000Y-85172323D01*
X168835000Y-85212323D02*
X162425000Y-85212323D01*
X168786000Y-85252323D02*
X162474000Y-85252323D01*
X168735000Y-85292323D02*
X162525000Y-85292323D01*
X168683000Y-85332323D02*
X162577000Y-85332323D01*
X168630000Y-85372323D02*
X162630000Y-85372323D01*
X168575000Y-85412323D02*
X162685000Y-85412323D01*
X168518000Y-85452323D02*
X162742000Y-85452323D01*
X168460000Y-85492323D02*
X162800000Y-85492323D01*
X168400000Y-85532323D02*
X162860000Y-85532323D01*
X168338000Y-85572323D02*
X162922000Y-85572323D01*
X168274000Y-85612323D02*
X162986000Y-85612323D01*
X168208000Y-85652323D02*
X163052000Y-85652323D01*
X168140000Y-85692323D02*
X163120000Y-85692323D01*
X168069000Y-85732323D02*
X163191000Y-85732323D01*
X167995000Y-85772323D02*
X163265000Y-85772323D01*
X167918000Y-85812323D02*
X163342000Y-85812323D01*
X167838000Y-85852323D02*
X163422000Y-85852323D01*
X167754000Y-85892323D02*
X163506000Y-85892323D01*
X167667000Y-85932323D02*
X163593000Y-85932323D01*
X167574000Y-85972323D02*
X163686000Y-85972323D01*
X167476000Y-86012323D02*
X163784000Y-86012323D01*
X167372000Y-86052323D02*
X163888000Y-86052323D01*
X167260000Y-86092323D02*
X164000000Y-86092323D01*
X167139000Y-86132323D02*
X164121000Y-86132323D01*
X167007000Y-86172323D02*
X164253000Y-86172323D01*
X166860000Y-86212323D02*
X164400000Y-86212323D01*
X166692000Y-86252323D02*
X164568000Y-86252323D01*
X166492000Y-86292323D02*
X164768000Y-86292323D01*
X166229000Y-86332323D02*
X165031000Y-86332323D01*
X170750000Y-81252323D02*
G75*
G02*
X160510000Y-81252323I-5120000J0D01*
G01*
X160510000Y-81252323D02*
G75*
G02*
X170750000Y-81252323I5120000J0D01*
G01*
%TD*%
M02*
