%TF.GenerationSoftware,KiCad,Pcbnew,10.0.5*%
%TF.CreationDate,2026-08-19T16:42:29+05:30*%
%TF.ProjectId,pdb_aethrone,7064625f-6165-4746-9872-6f6e652e6b69,rev?*%
%TF.SameCoordinates,Original*%
%TF.FileFunction,Copper,L2,Bot*%
%TF.FilePolarity,Positive*%
%FSLAX46Y46*%
G04 Gerber Fmt 4.6, Leading zero omitted, Abs format (unit mm)*
G04 Created by KiCad (PCBNEW 10.0.5) date 2026-08-19 16:42:29*
%MOMM*%
%LPD*%
G01*
G04 APERTURE LIST*
G04 Aperture macros list*
%AMRoundRect*
0 Rectangle with rounded corners*
0 $1 Rounding radius*
0 $2 $3 $4 $5 $6 $7 $8 $9 X,Y pos of 4 corners*
0 Add a 4 corners polygon primitive as box body*
4,1,4,$2,$3,$4,$5,$6,$7,$8,$9,$2,$3,0*
0 Add four circle primitives for the rounded corners*
1,1,$1+$1,$2,$3*
1,1,$1+$1,$4,$5*
1,1,$1+$1,$6,$7*
1,1,$1+$1,$8,$9*
0 Add four rect primitives between the rounded corners*
20,1,$1+$1,$2,$3,$4,$5,0*
20,1,$1+$1,$4,$5,$6,$7,0*
20,1,$1+$1,$6,$7,$8,$9,0*
20,1,$1+$1,$8,$9,$2,$3,0*%
G04 Aperture macros list end*
%TA.AperFunction,ComponentPad*%
%ADD10C,0.600000*%
%TD*%
%TA.AperFunction,SMDPad,CuDef*%
%ADD11R,2.950000X4.500000*%
%TD*%
%TA.AperFunction,ComponentPad*%
%ADD12C,6.000000*%
%TD*%
%TA.AperFunction,ComponentPad*%
%ADD13RoundRect,0.250000X0.750000X-0.600000X0.750000X0.600000X-0.750000X0.600000X-0.750000X-0.600000X0*%
%TD*%
%TA.AperFunction,ComponentPad*%
%ADD14O,2.000000X1.700000*%
%TD*%
%TA.AperFunction,ComponentPad*%
%ADD15C,14.000000*%
%TD*%
%TA.AperFunction,ComponentPad*%
%ADD16R,2.000000X0.900000*%
%TD*%
%TA.AperFunction,ComponentPad*%
%ADD17RoundRect,1.025000X1.025000X-1.025000X1.025000X1.025000X-1.025000X1.025000X-1.025000X-1.025000X0*%
%TD*%
%TA.AperFunction,ComponentPad*%
%ADD18C,4.100000*%
%TD*%
%TA.AperFunction,ComponentPad*%
%ADD19RoundRect,0.250000X-0.750000X0.750000X-0.750000X-0.750000X0.750000X-0.750000X0.750000X0.750000X0*%
%TD*%
%TA.AperFunction,ComponentPad*%
%ADD20C,2.000000*%
%TD*%
%TA.AperFunction,ViaPad*%
%ADD21C,0.600000*%
%TD*%
%TA.AperFunction,ViaPad*%
%ADD22C,1.200000*%
%TD*%
%TA.AperFunction,Conductor*%
%ADD23C,0.200000*%
%TD*%
G04 APERTURE END LIST*
D10*
%TO.P,U2,9,GNDPAD_9*%
%TO.N,GND*%
X176430000Y-77220000D03*
X176430000Y-78320000D03*
X176430000Y-79620000D03*
X176430000Y-80820000D03*
D11*
X177030000Y-79020000D03*
D10*
X177630000Y-77220000D03*
X177630000Y-78320000D03*
X177630000Y-79620000D03*
X177630000Y-80820000D03*
%TD*%
D12*
%TO.P,ESC_OUT1,1,Pin_1_1*%
%TO.N,ESC_1*%
X131500000Y-110000000D03*
%TO.P,ESC_OUT1,2,Pin_2_2*%
X142500000Y-110000000D03*
%TO.P,ESC_OUT1,3,Pin_3_3*%
X153500000Y-110000000D03*
%TO.P,ESC_OUT1,4,Pin_4_4*%
X164500000Y-110000000D03*
%TO.P,ESC_OUT1,5,Pin_5_5*%
%TO.N,GND*%
X175500000Y-110000000D03*
%TO.P,ESC_OUT1,6,Pin_6_6*%
X186500000Y-110000000D03*
%TO.P,ESC_OUT1,7,Pin_7_7*%
X197500000Y-110000000D03*
%TO.P,ESC_OUT1,8,Pin_8_8*%
X208500000Y-110000000D03*
%TD*%
D13*
%TO.P,5V@3A1,1,Pin_1_1*%
%TO.N,GND*%
X212455000Y-80340000D03*
D14*
%TO.P,5V@3A1,2,Pin_2_2*%
%TO.N,/5V_OUT*%
X212455000Y-77840000D03*
%TD*%
D15*
%TO.P,F1,2*%
%TO.N,Net-(Q1-D)*%
X132075000Y-93490000D03*
%TO.P,F1,1*%
%TO.N,VBAT*%
X132075000Y-63490000D03*
%TD*%
D13*
%TO.P,12V@2A1,1,Pin_1_1*%
%TO.N,GND*%
X212455000Y-65610000D03*
D14*
%TO.P,12V@2A1,2,Pin_2_2*%
%TO.N,/12V_OUT*%
X212455000Y-63110000D03*
%TD*%
D16*
%TO.P,battery_input1,*%
%TO.N,*%
X114890000Y-86340000D03*
X114890000Y-72840000D03*
D17*
%TO.P,battery_input1,1,Pin_1_1*%
%TO.N,VBAT*%
X120890000Y-75990000D03*
D18*
%TO.P,battery_input1,2,Pin_2_2*%
%TO.N,GND*%
X120890000Y-83190000D03*
%TD*%
D19*
%TO.P,C2,1*%
%TO.N,ESC_1*%
X184900000Y-95440000D03*
D20*
%TO.P,C2,2*%
%TO.N,GND*%
X184900000Y-100440000D03*
%TD*%
D19*
%TO.P,C3,1*%
%TO.N,ESC_1*%
X173350000Y-95440000D03*
D20*
%TO.P,C3,2*%
%TO.N,GND*%
X173350000Y-100440000D03*
%TD*%
D19*
%TO.P,C1,1*%
%TO.N,ESC_1*%
X196450000Y-95440000D03*
D20*
%TO.P,C1,2*%
%TO.N,GND*%
X196450000Y-100440000D03*
%TD*%
D19*
%TO.P,C5,1*%
%TO.N,Net-(U2-VIN)*%
X165630000Y-78752323D03*
D20*
%TO.P,C5,2*%
%TO.N,GND*%
X165630000Y-83752323D03*
%TD*%
D21*
%TO.N,GND*%
X173134975Y-78355025D03*
D22*
X197820000Y-103930000D03*
X196430000Y-103940000D03*
X193670000Y-103930000D03*
X199210000Y-103940000D03*
X195000000Y-103930000D03*
X183540000Y-103790000D03*
X186360000Y-103790000D03*
X184970000Y-103800000D03*
X182210000Y-103790000D03*
X187750000Y-103800000D03*
X172110000Y-103840000D03*
X174930000Y-103840000D03*
X176320000Y-103850000D03*
X173540000Y-103850000D03*
X170780000Y-103840000D03*
X162810000Y-103620000D03*
X165630000Y-103620000D03*
X167020000Y-103630000D03*
X164240000Y-103630000D03*
X161480000Y-103620000D03*
X207110000Y-105780000D03*
X209930000Y-105780000D03*
X211320000Y-105790000D03*
X205780000Y-105780000D03*
X208540000Y-105790000D03*
X196180000Y-105760000D03*
X197610000Y-105770000D03*
X199000000Y-105760000D03*
X200390000Y-105770000D03*
X194850000Y-105760000D03*
X185060000Y-105800000D03*
X187880000Y-105800000D03*
X189270000Y-105810000D03*
X186490000Y-105810000D03*
X183730000Y-105800000D03*
X178330000Y-105960000D03*
X174120000Y-105950000D03*
X172790000Y-105950000D03*
X175550000Y-105960000D03*
X176940000Y-105950000D03*
X123470000Y-108990000D03*
X126250000Y-108990000D03*
X124860000Y-108980000D03*
X122040000Y-108980000D03*
X120720000Y-107590000D03*
X120770000Y-102010000D03*
X120790000Y-100800000D03*
X120710000Y-106200000D03*
X120720000Y-104770000D03*
X120730000Y-103390000D03*
X120710000Y-108980000D03*
X120760000Y-99460000D03*
X120770000Y-98070000D03*
X120760000Y-96680000D03*
X120770000Y-95250000D03*
X120780000Y-93870000D03*
X120820000Y-92490000D03*
X120840000Y-91280000D03*
X120860000Y-89960000D03*
D21*
X156880000Y-94190000D03*
X161810000Y-89840000D03*
X165220000Y-67020000D03*
X157220000Y-65600000D03*
X154530000Y-63580000D03*
X158030000Y-78380000D03*
X165630000Y-86980000D03*
X170610000Y-87780000D03*
X182320000Y-86640000D03*
X181920000Y-82780000D03*
X203020000Y-83920000D03*
X212530000Y-84330000D03*
X212490000Y-69110000D03*
X190900000Y-69950000D03*
%TD*%
%TO.N,GND*%
D23*
X201940000Y-65610000D02*
X212455000Y-65610000D01*
X197520000Y-69950000D02*
X201900000Y-65570000D01*
X190900000Y-69950000D02*
X197520000Y-69950000D01*
X201900000Y-65570000D02*
X201940000Y-65610000D01*
%TD*%
%TA.AperFunction,Conductor*%
%TO.N,GND*%
G36*
X217919919Y-52285952D02*
G01*
X217920647Y-52285956D01*
X218169138Y-52288676D01*
X218235955Y-52309094D01*
X218281129Y-52362395D01*
X218291777Y-52413087D01*
X218089827Y-112305137D01*
X218069917Y-112372110D01*
X218016959Y-112417686D01*
X217947767Y-112427397D01*
X217884310Y-112398158D01*
X217846734Y-112339252D01*
X217842890Y-112320911D01*
X217818838Y-112138211D01*
X217756054Y-111903900D01*
X217663224Y-111679788D01*
X217541936Y-111469711D01*
X217394265Y-111277262D01*
X217394260Y-111277256D01*
X217222743Y-111105739D01*
X217222736Y-111105733D01*
X217030293Y-110958067D01*
X217030292Y-110958066D01*
X217030289Y-110958064D01*
X216845850Y-110851578D01*
X216820214Y-110836777D01*
X216820205Y-110836773D01*
X216596104Y-110743947D01*
X216361785Y-110681161D01*
X216121289Y-110649500D01*
X216121288Y-110649500D01*
X215878712Y-110649500D01*
X215878711Y-110649500D01*
X215638214Y-110681161D01*
X215403895Y-110743947D01*
X215179794Y-110836773D01*
X215179785Y-110836777D01*
X214969706Y-110958067D01*
X214777263Y-111105733D01*
X214777256Y-111105739D01*
X214605739Y-111277256D01*
X214605733Y-111277263D01*
X214458067Y-111469706D01*
X214336777Y-111679785D01*
X214336773Y-111679794D01*
X214243947Y-111903895D01*
X214181161Y-112138214D01*
X214149500Y-112378711D01*
X214149500Y-112621288D01*
X214181161Y-112861785D01*
X214243947Y-113096104D01*
X214325077Y-113291969D01*
X214336776Y-113320212D01*
X214458064Y-113530289D01*
X214458066Y-113530292D01*
X214458067Y-113530293D01*
X214605733Y-113722736D01*
X214605739Y-113722743D01*
X214777256Y-113894260D01*
X214777262Y-113894265D01*
X214969711Y-114041936D01*
X215179788Y-114163224D01*
X215403900Y-114256054D01*
X215638211Y-114318838D01*
X215818586Y-114342584D01*
X215878711Y-114350500D01*
X215878712Y-114350500D01*
X216121289Y-114350500D01*
X216169388Y-114344167D01*
X216361789Y-114318838D01*
X216596100Y-114256054D01*
X216820212Y-114163224D01*
X217030289Y-114041936D01*
X217222738Y-113894265D01*
X217394265Y-113722738D01*
X217541936Y-113530289D01*
X217663224Y-113320212D01*
X217756054Y-113096100D01*
X217818838Y-112861789D01*
X217841538Y-112689360D01*
X217869804Y-112625464D01*
X217928129Y-112586993D01*
X217997993Y-112586161D01*
X218057217Y-112623234D01*
X218086996Y-112686439D01*
X218088476Y-112705964D01*
X218080417Y-115095997D01*
X218060507Y-115162970D01*
X218007549Y-115208546D01*
X217955997Y-115219578D01*
X173953975Y-115070081D01*
X173907783Y-115060987D01*
X172870001Y-114639999D01*
X172870000Y-114640000D01*
X171826011Y-115157116D01*
X171770972Y-115170000D01*
X167982933Y-115170000D01*
X167977066Y-115169861D01*
X165678614Y-115060987D01*
X164180000Y-114990000D01*
X164179999Y-114990000D01*
X150630021Y-115079999D01*
X150630000Y-115080000D01*
X148593180Y-115094243D01*
X137760884Y-115169993D01*
X137759064Y-115169992D01*
X104052456Y-114910941D01*
X103985570Y-114890742D01*
X103940222Y-114837588D01*
X103929410Y-114787542D01*
X103928699Y-114639999D01*
X103924854Y-113841810D01*
X103944215Y-113774682D01*
X103996798Y-113728673D01*
X104065907Y-113718397D01*
X104129602Y-113747115D01*
X104136533Y-113753537D01*
X104277256Y-113894260D01*
X104277262Y-113894265D01*
X104469711Y-114041936D01*
X104679788Y-114163224D01*
X104903900Y-114256054D01*
X105138211Y-114318838D01*
X105318586Y-114342584D01*
X105378711Y-114350500D01*
X105378712Y-114350500D01*
X105621289Y-114350500D01*
X105669388Y-114344167D01*
X105861789Y-114318838D01*
X106096100Y-114256054D01*
X106320212Y-114163224D01*
X106530289Y-114041936D01*
X106722738Y-113894265D01*
X106894265Y-113722738D01*
X107041936Y-113530289D01*
X107163224Y-113320212D01*
X107256054Y-113096100D01*
X107318838Y-112861789D01*
X107350500Y-112621288D01*
X107350500Y-112378712D01*
X107318838Y-112138211D01*
X107256054Y-111903900D01*
X107163224Y-111679788D01*
X107041936Y-111469711D01*
X106894265Y-111277262D01*
X106894260Y-111277256D01*
X106722743Y-111105739D01*
X106722736Y-111105733D01*
X106530293Y-110958067D01*
X106530292Y-110958066D01*
X106530289Y-110958064D01*
X106345850Y-110851578D01*
X106320214Y-110836777D01*
X106320205Y-110836773D01*
X106096104Y-110743947D01*
X105861785Y-110681161D01*
X105621289Y-110649500D01*
X105621288Y-110649500D01*
X105378712Y-110649500D01*
X105378711Y-110649500D01*
X105138214Y-110681161D01*
X104903895Y-110743947D01*
X104679794Y-110836773D01*
X104679785Y-110836777D01*
X104469706Y-110958067D01*
X104277264Y-111105732D01*
X104123673Y-111259323D01*
X104062350Y-111292807D01*
X103992658Y-111287823D01*
X103936725Y-111245951D01*
X103912308Y-111180487D01*
X103911994Y-111172268D01*
X103905518Y-109828034D01*
X127999500Y-109828034D01*
X127999500Y-110171965D01*
X128033210Y-110514249D01*
X128100308Y-110851572D01*
X128200150Y-111180706D01*
X128331770Y-111498464D01*
X128331772Y-111498469D01*
X128493893Y-111801775D01*
X128493904Y-111801793D01*
X128684975Y-112087751D01*
X128684985Y-112087765D01*
X128903176Y-112353632D01*
X129146367Y-112596823D01*
X129146372Y-112596827D01*
X129146373Y-112596828D01*
X129412240Y-112815019D01*
X129698213Y-113006100D01*
X129698222Y-113006105D01*
X129698224Y-113006106D01*
X130001530Y-113168227D01*
X130001532Y-113168227D01*
X130001538Y-113168231D01*
X130319295Y-113299850D01*
X130648422Y-113399690D01*
X130985750Y-113466789D01*
X131328031Y-113500500D01*
X131328034Y-113500500D01*
X131671966Y-113500500D01*
X131671969Y-113500500D01*
X132014250Y-113466789D01*
X132351578Y-113399690D01*
X132680705Y-113299850D01*
X132998462Y-113168231D01*
X133301787Y-113006100D01*
X133587760Y-112815019D01*
X133853627Y-112596828D01*
X134096828Y-112353627D01*
X134315019Y-112087760D01*
X134506100Y-111801787D01*
X134668231Y-111498462D01*
X134799850Y-111180705D01*
X134899690Y-110851578D01*
X134966789Y-110514250D01*
X135000500Y-110171969D01*
X135000500Y-109828034D01*
X138999500Y-109828034D01*
X138999500Y-110171965D01*
X139033210Y-110514249D01*
X139100308Y-110851572D01*
X139200150Y-111180706D01*
X139331770Y-111498464D01*
X139331772Y-111498469D01*
X139493893Y-111801775D01*
X139493904Y-111801793D01*
X139684975Y-112087751D01*
X139684985Y-112087765D01*
X139903176Y-112353632D01*
X140146367Y-112596823D01*
X140146372Y-112596827D01*
X140146373Y-112596828D01*
X140412240Y-112815019D01*
X140698213Y-113006100D01*
X140698222Y-113006105D01*
X140698224Y-113006106D01*
X141001530Y-113168227D01*
X141001532Y-113168227D01*
X141001538Y-113168231D01*
X141319295Y-113299850D01*
X141648422Y-113399690D01*
X141985750Y-113466789D01*
X142328031Y-113500500D01*
X142328034Y-113500500D01*
X142671966Y-113500500D01*
X142671969Y-113500500D01*
X143014250Y-113466789D01*
X143351578Y-113399690D01*
X143680705Y-113299850D01*
X143998462Y-113168231D01*
X144301787Y-113006100D01*
X144587760Y-112815019D01*
X144853627Y-112596828D01*
X145096828Y-112353627D01*
X145315019Y-112087760D01*
X145506100Y-111801787D01*
X145668231Y-111498462D01*
X145799850Y-111180705D01*
X145899690Y-110851578D01*
X145966789Y-110514250D01*
X146000500Y-110171969D01*
X146000500Y-109828034D01*
X149999500Y-109828034D01*
X149999500Y-110171965D01*
X150033210Y-110514249D01*
X150100308Y-110851572D01*
X150200150Y-111180706D01*
X150331770Y-111498464D01*
X150331772Y-111498469D01*
X150493893Y-111801775D01*
X150493904Y-111801793D01*
X150684975Y-112087751D01*
X150684985Y-112087765D01*
X150903176Y-112353632D01*
X151146367Y-112596823D01*
X151146372Y-112596827D01*
X151146373Y-112596828D01*
X151412240Y-112815019D01*
X151698213Y-113006100D01*
X151698222Y-113006105D01*
X151698224Y-113006106D01*
X152001530Y-113168227D01*
X152001532Y-113168227D01*
X152001538Y-113168231D01*
X152319295Y-113299850D01*
X152648422Y-113399690D01*
X152985750Y-113466789D01*
X153328031Y-113500500D01*
X153328034Y-113500500D01*
X153671966Y-113500500D01*
X153671969Y-113500500D01*
X154014250Y-113466789D01*
X154351578Y-113399690D01*
X154680705Y-113299850D01*
X154998462Y-113168231D01*
X155301787Y-113006100D01*
X155587760Y-112815019D01*
X155853627Y-112596828D01*
X156096828Y-112353627D01*
X156315019Y-112087760D01*
X156506100Y-111801787D01*
X156668231Y-111498462D01*
X156799850Y-111180705D01*
X156899690Y-110851578D01*
X156966789Y-110514250D01*
X157000500Y-110171969D01*
X157000500Y-109828034D01*
X160999500Y-109828034D01*
X160999500Y-110171965D01*
X161033210Y-110514249D01*
X161100308Y-110851572D01*
X161200150Y-111180706D01*
X161331770Y-111498464D01*
X161331772Y-111498469D01*
X161493893Y-111801775D01*
X161493904Y-111801793D01*
X161684975Y-112087751D01*
X161684985Y-112087765D01*
X161903176Y-112353632D01*
X162146367Y-112596823D01*
X162146372Y-112596827D01*
X162146373Y-112596828D01*
X162412240Y-112815019D01*
X162698213Y-113006100D01*
X162698222Y-113006105D01*
X162698224Y-113006106D01*
X163001530Y-113168227D01*
X163001532Y-113168227D01*
X163001538Y-113168231D01*
X163319295Y-113299850D01*
X163648422Y-113399690D01*
X163985750Y-113466789D01*
X164328031Y-113500500D01*
X164328034Y-113500500D01*
X164671966Y-113500500D01*
X164671969Y-113500500D01*
X165014250Y-113466789D01*
X165351578Y-113399690D01*
X165680705Y-113299850D01*
X165998462Y-113168231D01*
X166301787Y-113006100D01*
X166587760Y-112815019D01*
X166853627Y-112596828D01*
X167096828Y-112353627D01*
X167315019Y-112087760D01*
X167506100Y-111801787D01*
X167668231Y-111498462D01*
X167799850Y-111180705D01*
X167899690Y-110851578D01*
X167966789Y-110514250D01*
X168000500Y-110171969D01*
X168000500Y-109828031D01*
X167966789Y-109485750D01*
X167899690Y-109148422D01*
X167799850Y-108819295D01*
X167668231Y-108501538D01*
X167506100Y-108198213D01*
X167315019Y-107912240D01*
X167096828Y-107646373D01*
X167096827Y-107646372D01*
X167096823Y-107646367D01*
X166853632Y-107403176D01*
X166587765Y-107184985D01*
X166587764Y-107184984D01*
X166587760Y-107184981D01*
X166301787Y-106993900D01*
X166301782Y-106993897D01*
X166301775Y-106993893D01*
X165998469Y-106831772D01*
X165998464Y-106831770D01*
X165680706Y-106700150D01*
X165351572Y-106600308D01*
X165014248Y-106533210D01*
X165014249Y-106533210D01*
X164756456Y-106507821D01*
X164671969Y-106499500D01*
X164328031Y-106499500D01*
X164249966Y-106507188D01*
X163985750Y-106533210D01*
X163648427Y-106600308D01*
X163319293Y-106700150D01*
X163001535Y-106831770D01*
X163001530Y-106831772D01*
X162698224Y-106993893D01*
X162698206Y-106993904D01*
X162412248Y-107184975D01*
X162412234Y-107184985D01*
X162146367Y-107403176D01*
X161903176Y-107646367D01*
X161684985Y-107912234D01*
X161684975Y-107912248D01*
X161493904Y-108198206D01*
X161493893Y-108198224D01*
X161331772Y-108501530D01*
X161331770Y-108501535D01*
X161200150Y-108819293D01*
X161100308Y-109148427D01*
X161033210Y-109485750D01*
X160999500Y-109828034D01*
X157000500Y-109828034D01*
X157000500Y-109828031D01*
X156966789Y-109485750D01*
X156899690Y-109148422D01*
X156799850Y-108819295D01*
X156668231Y-108501538D01*
X156506100Y-108198213D01*
X156315019Y-107912240D01*
X156096828Y-107646373D01*
X156096827Y-107646372D01*
X156096823Y-107646367D01*
X155853632Y-107403176D01*
X155587765Y-107184985D01*
X155587764Y-107184984D01*
X155587760Y-107184981D01*
X155301787Y-106993900D01*
X155301782Y-106993897D01*
X155301775Y-106993893D01*
X154998469Y-106831772D01*
X154998464Y-106831770D01*
X154680706Y-106700150D01*
X154351572Y-106600308D01*
X154014248Y-106533210D01*
X154014249Y-106533210D01*
X153756456Y-106507821D01*
X153671969Y-106499500D01*
X153328031Y-106499500D01*
X153249966Y-106507188D01*
X152985750Y-106533210D01*
X152648427Y-106600308D01*
X152319293Y-106700150D01*
X152001535Y-106831770D01*
X152001530Y-106831772D01*
X151698224Y-106993893D01*
X151698206Y-106993904D01*
X151412248Y-107184975D01*
X151412234Y-107184985D01*
X151146367Y-107403176D01*
X150903176Y-107646367D01*
X150684985Y-107912234D01*
X150684975Y-107912248D01*
X150493904Y-108198206D01*
X150493893Y-108198224D01*
X150331772Y-108501530D01*
X150331770Y-108501535D01*
X150200150Y-108819293D01*
X150100308Y-109148427D01*
X150033210Y-109485750D01*
X149999500Y-109828034D01*
X146000500Y-109828034D01*
X146000500Y-109828031D01*
X145966789Y-109485750D01*
X145899690Y-109148422D01*
X145799850Y-108819295D01*
X145668231Y-108501538D01*
X145506100Y-108198213D01*
X145315019Y-107912240D01*
X145096828Y-107646373D01*
X145096827Y-107646372D01*
X145096823Y-107646367D01*
X144853632Y-107403176D01*
X144587765Y-107184985D01*
X144587764Y-107184984D01*
X144587760Y-107184981D01*
X144301787Y-106993900D01*
X144301782Y-106993897D01*
X144301775Y-106993893D01*
X143998469Y-106831772D01*
X143998464Y-106831770D01*
X143680706Y-106700150D01*
X143351572Y-106600308D01*
X143014248Y-106533210D01*
X143014249Y-106533210D01*
X142756456Y-106507821D01*
X142671969Y-106499500D01*
X142328031Y-106499500D01*
X142249966Y-106507188D01*
X141985750Y-106533210D01*
X141648427Y-106600308D01*
X141319293Y-106700150D01*
X141001535Y-106831770D01*
X141001530Y-106831772D01*
X140698224Y-106993893D01*
X140698206Y-106993904D01*
X140412248Y-107184975D01*
X140412234Y-107184985D01*
X140146367Y-107403176D01*
X139903176Y-107646367D01*
X139684985Y-107912234D01*
X139684975Y-107912248D01*
X139493904Y-108198206D01*
X139493893Y-108198224D01*
X139331772Y-108501530D01*
X139331770Y-108501535D01*
X139200150Y-108819293D01*
X139100308Y-109148427D01*
X139033210Y-109485750D01*
X138999500Y-109828034D01*
X135000500Y-109828034D01*
X135000500Y-109828031D01*
X134966789Y-109485750D01*
X134899690Y-109148422D01*
X134799850Y-108819295D01*
X134668231Y-108501538D01*
X134506100Y-108198213D01*
X134315019Y-107912240D01*
X134096828Y-107646373D01*
X134096827Y-107646372D01*
X134096823Y-107646367D01*
X133853632Y-107403176D01*
X133587765Y-107184985D01*
X133587764Y-107184984D01*
X133587760Y-107184981D01*
X133301787Y-106993900D01*
X133301782Y-106993897D01*
X133301775Y-106993893D01*
X132998469Y-106831772D01*
X132998464Y-106831770D01*
X132680706Y-106700150D01*
X132351572Y-106600308D01*
X132014248Y-106533210D01*
X132014249Y-106533210D01*
X131756456Y-106507821D01*
X131671969Y-106499500D01*
X131328031Y-106499500D01*
X131249966Y-106507188D01*
X130985750Y-106533210D01*
X130648427Y-106600308D01*
X130319293Y-106700150D01*
X130001535Y-106831770D01*
X130001530Y-106831772D01*
X129698224Y-106993893D01*
X129698206Y-106993904D01*
X129412248Y-107184975D01*
X129412234Y-107184985D01*
X129146367Y-107403176D01*
X128903176Y-107646367D01*
X128684985Y-107912234D01*
X128684975Y-107912248D01*
X128493904Y-108198206D01*
X128493893Y-108198224D01*
X128331772Y-108501530D01*
X128331770Y-108501535D01*
X128200150Y-108819293D01*
X128100308Y-109148427D01*
X128033210Y-109485750D01*
X127999500Y-109828034D01*
X103905518Y-109828034D01*
X103825522Y-93222116D01*
X124574500Y-93222116D01*
X124574500Y-93757883D01*
X124612721Y-94292278D01*
X124688968Y-94822593D01*
X124802849Y-95346097D01*
X124802852Y-95346107D01*
X124953793Y-95860162D01*
X124953794Y-95860165D01*
X125133806Y-96342796D01*
X125141029Y-96362160D01*
X125363580Y-96849481D01*
X125363584Y-96849488D01*
X125620347Y-97319713D01*
X125910004Y-97770431D01*
X125910007Y-97770436D01*
X126231068Y-98199324D01*
X126475335Y-98481222D01*
X126581925Y-98604234D01*
X126581934Y-98604243D01*
X126581946Y-98604256D01*
X126960743Y-98983053D01*
X126960756Y-98983065D01*
X126960766Y-98983075D01*
X127119013Y-99120197D01*
X127365675Y-99333931D01*
X127794563Y-99654992D01*
X127794568Y-99654995D01*
X128245280Y-99944649D01*
X128715507Y-100201413D01*
X128715511Y-100201415D01*
X128715518Y-100201419D01*
X129202839Y-100423970D01*
X129202843Y-100423971D01*
X129202853Y-100423976D01*
X129704835Y-100611206D01*
X130218892Y-100762147D01*
X130218902Y-100762150D01*
X130742406Y-100876031D01*
X130742413Y-100876032D01*
X131272722Y-100952279D01*
X131807119Y-100990500D01*
X132342881Y-100990500D01*
X132877278Y-100952279D01*
X133407587Y-100876032D01*
X133407588Y-100876031D01*
X133407593Y-100876031D01*
X133931097Y-100762150D01*
X133931100Y-100762149D01*
X133931105Y-100762148D01*
X134445165Y-100611206D01*
X134947147Y-100423976D01*
X134999922Y-100399874D01*
X135434481Y-100201419D01*
X135434485Y-100201416D01*
X135434493Y-100201413D01*
X135904720Y-99944649D01*
X136355432Y-99654995D01*
X136357811Y-99653213D01*
X136784324Y-99333931D01*
X136802265Y-99318384D01*
X137189234Y-98983075D01*
X137568075Y-98604234D01*
X137918924Y-98199332D01*
X137918923Y-98199332D01*
X137918931Y-98199324D01*
X138239992Y-97770436D01*
X138239991Y-97770436D01*
X138239995Y-97770432D01*
X138529649Y-97319720D01*
X138786413Y-96849493D01*
X138786416Y-96849485D01*
X138786419Y-96849481D01*
X139008970Y-96362160D01*
X139008969Y-96362160D01*
X139008976Y-96362147D01*
X139196206Y-95860165D01*
X139347148Y-95346105D01*
X139461032Y-94822587D01*
X139467692Y-94776262D01*
X139487287Y-94639983D01*
X171849500Y-94639983D01*
X171849500Y-96240001D01*
X171849501Y-96240018D01*
X171860000Y-96342796D01*
X171860001Y-96342799D01*
X171866417Y-96362160D01*
X171915186Y-96509334D01*
X172007288Y-96658656D01*
X172131344Y-96782712D01*
X172280666Y-96874814D01*
X172447203Y-96929999D01*
X172549991Y-96940500D01*
X174150008Y-96940499D01*
X174252797Y-96929999D01*
X174419334Y-96874814D01*
X174568656Y-96782712D01*
X174692712Y-96658656D01*
X174784814Y-96509334D01*
X174839999Y-96342797D01*
X174850500Y-96240009D01*
X174850499Y-94639992D01*
X174850498Y-94639983D01*
X183399500Y-94639983D01*
X183399500Y-96240001D01*
X183399501Y-96240018D01*
X183410000Y-96342796D01*
X183410001Y-96342799D01*
X183416417Y-96362160D01*
X183465186Y-96509334D01*
X183557288Y-96658656D01*
X183681344Y-96782712D01*
X183830666Y-96874814D01*
X183997203Y-96929999D01*
X184099991Y-96940500D01*
X185700008Y-96940499D01*
X185802797Y-96929999D01*
X185969334Y-96874814D01*
X186118656Y-96782712D01*
X186242712Y-96658656D01*
X186334814Y-96509334D01*
X186389999Y-96342797D01*
X186400500Y-96240009D01*
X186400499Y-94639992D01*
X186400498Y-94639983D01*
X194949500Y-94639983D01*
X194949500Y-96240001D01*
X194949501Y-96240018D01*
X194960000Y-96342796D01*
X194960001Y-96342799D01*
X194966417Y-96362160D01*
X195015186Y-96509334D01*
X195107288Y-96658656D01*
X195231344Y-96782712D01*
X195380666Y-96874814D01*
X195547203Y-96929999D01*
X195649991Y-96940500D01*
X197250008Y-96940499D01*
X197352797Y-96929999D01*
X197519334Y-96874814D01*
X197668656Y-96782712D01*
X197792712Y-96658656D01*
X197884814Y-96509334D01*
X197939999Y-96342797D01*
X197950500Y-96240009D01*
X197950499Y-94639992D01*
X197939999Y-94537203D01*
X197884814Y-94370666D01*
X197792712Y-94221344D01*
X197668656Y-94097288D01*
X197519334Y-94005186D01*
X197352797Y-93950001D01*
X197352795Y-93950000D01*
X197250010Y-93939500D01*
X195649998Y-93939500D01*
X195649981Y-93939501D01*
X195547203Y-93950000D01*
X195547200Y-93950001D01*
X195380668Y-94005185D01*
X195380663Y-94005187D01*
X195231342Y-94097289D01*
X195107289Y-94221342D01*
X195015187Y-94370663D01*
X195015186Y-94370666D01*
X194960001Y-94537203D01*
X194960001Y-94537204D01*
X194960000Y-94537204D01*
X194949500Y-94639983D01*
X186400498Y-94639983D01*
X186389999Y-94537203D01*
X186334814Y-94370666D01*
X186242712Y-94221344D01*
X186118656Y-94097288D01*
X185969334Y-94005186D01*
X185802797Y-93950001D01*
X185802795Y-93950000D01*
X185700010Y-93939500D01*
X184099998Y-93939500D01*
X184099981Y-93939501D01*
X183997203Y-93950000D01*
X183997200Y-93950001D01*
X183830668Y-94005185D01*
X183830663Y-94005187D01*
X183681342Y-94097289D01*
X183557289Y-94221342D01*
X183465187Y-94370663D01*
X183465186Y-94370666D01*
X183410001Y-94537203D01*
X183410001Y-94537204D01*
X183410000Y-94537204D01*
X183399500Y-94639983D01*
X174850498Y-94639983D01*
X174839999Y-94537203D01*
X174784814Y-94370666D01*
X174692712Y-94221344D01*
X174568656Y-94097288D01*
X174419334Y-94005186D01*
X174252797Y-93950001D01*
X174252795Y-93950000D01*
X174150010Y-93939500D01*
X172549998Y-93939500D01*
X172549981Y-93939501D01*
X172447203Y-93950000D01*
X172447200Y-93950001D01*
X172280668Y-94005185D01*
X172280663Y-94005187D01*
X172131342Y-94097289D01*
X172007289Y-94221342D01*
X171915187Y-94370663D01*
X171915186Y-94370666D01*
X171860001Y-94537203D01*
X171860001Y-94537204D01*
X171860000Y-94537204D01*
X171849500Y-94639983D01*
X139487287Y-94639983D01*
X139490277Y-94619187D01*
X139526008Y-94370666D01*
X139537279Y-94292278D01*
X139575500Y-93757881D01*
X139575500Y-93222119D01*
X139537279Y-92687722D01*
X139461032Y-92157413D01*
X139461031Y-92157406D01*
X139347150Y-91633902D01*
X139347147Y-91633892D01*
X139196206Y-91119835D01*
X139008976Y-90617853D01*
X139008970Y-90617839D01*
X138786419Y-90130518D01*
X138786415Y-90130511D01*
X138529652Y-89660286D01*
X138529649Y-89660280D01*
X138239995Y-89209568D01*
X138239992Y-89209563D01*
X137918931Y-88780675D01*
X137705197Y-88534013D01*
X137568075Y-88375766D01*
X137568065Y-88375756D01*
X137568053Y-88375743D01*
X137189256Y-87996946D01*
X137189243Y-87996934D01*
X137189234Y-87996925D01*
X137066222Y-87890335D01*
X136784324Y-87646068D01*
X136355436Y-87325007D01*
X136355431Y-87325004D01*
X136079296Y-87147544D01*
X135904720Y-87035351D01*
X135899197Y-87032335D01*
X135434488Y-86778584D01*
X135434481Y-86778580D01*
X134947160Y-86556029D01*
X134445162Y-86368793D01*
X133931107Y-86217852D01*
X133931097Y-86217849D01*
X133407593Y-86103968D01*
X132877278Y-86027721D01*
X132342883Y-85989500D01*
X132342881Y-85989500D01*
X131807119Y-85989500D01*
X131807116Y-85989500D01*
X131272721Y-86027721D01*
X130742406Y-86103968D01*
X130218902Y-86217849D01*
X130218892Y-86217852D01*
X129704837Y-86368793D01*
X129202839Y-86556029D01*
X128715518Y-86778580D01*
X128715511Y-86778584D01*
X128245286Y-87035347D01*
X127794568Y-87325004D01*
X127794563Y-87325007D01*
X127365675Y-87646068D01*
X126960769Y-87996922D01*
X126960743Y-87996946D01*
X126581946Y-88375743D01*
X126581922Y-88375769D01*
X126231068Y-88780675D01*
X125910007Y-89209563D01*
X125910004Y-89209568D01*
X125620347Y-89660286D01*
X125363584Y-90130511D01*
X125363580Y-90130518D01*
X125141029Y-90617839D01*
X124953793Y-91119837D01*
X124802852Y-91633892D01*
X124802849Y-91633902D01*
X124688968Y-92157406D01*
X124612721Y-92687721D01*
X124574500Y-93222116D01*
X103825522Y-93222116D01*
X103800000Y-87924147D01*
X103800000Y-87923829D01*
X103804064Y-85842135D01*
X113389500Y-85842135D01*
X113389500Y-86837870D01*
X113389501Y-86837876D01*
X113395908Y-86897483D01*
X113446202Y-87032328D01*
X113446206Y-87032335D01*
X113532452Y-87147544D01*
X113532455Y-87147547D01*
X113647664Y-87233793D01*
X113647671Y-87233797D01*
X113782517Y-87284091D01*
X113782516Y-87284091D01*
X113789444Y-87284835D01*
X113842127Y-87290500D01*
X115937872Y-87290499D01*
X115997483Y-87284091D01*
X116132331Y-87233796D01*
X116247546Y-87147546D01*
X116333796Y-87032331D01*
X116384091Y-86897483D01*
X116390500Y-86837873D01*
X116390499Y-85842128D01*
X116384091Y-85782517D01*
X116333796Y-85647669D01*
X116333795Y-85647668D01*
X116333793Y-85647664D01*
X116247547Y-85532455D01*
X116247544Y-85532452D01*
X116132335Y-85446206D01*
X116132328Y-85446202D01*
X115997482Y-85395908D01*
X115997483Y-85395908D01*
X115937883Y-85389501D01*
X115937881Y-85389500D01*
X115937873Y-85389500D01*
X115937864Y-85389500D01*
X113842129Y-85389500D01*
X113842123Y-85389501D01*
X113782516Y-85395908D01*
X113647671Y-85446202D01*
X113647664Y-85446206D01*
X113532455Y-85532452D01*
X113532452Y-85532455D01*
X113446206Y-85647664D01*
X113446202Y-85647671D01*
X113395908Y-85782517D01*
X113389501Y-85842116D01*
X113389501Y-85842123D01*
X113389500Y-85842135D01*
X103804064Y-85842135D01*
X103825437Y-74894702D01*
X118339500Y-74894702D01*
X118339500Y-77085292D01*
X118339501Y-77085298D01*
X118349718Y-77230027D01*
X118349718Y-77230031D01*
X118349719Y-77230034D01*
X118356991Y-77262323D01*
X118403834Y-77470314D01*
X118403835Y-77470319D01*
X118429330Y-77533665D01*
X118495795Y-77698809D01*
X118623216Y-77909589D01*
X118659551Y-77952306D01*
X118782798Y-78097201D01*
X118852206Y-78156239D01*
X118970411Y-78256784D01*
X119181191Y-78384205D01*
X119409683Y-78476165D01*
X119649966Y-78530281D01*
X119794705Y-78540500D01*
X121985294Y-78540499D01*
X122130034Y-78530281D01*
X122370317Y-78476165D01*
X122598809Y-78384205D01*
X122809589Y-78256784D01*
X122997201Y-78097201D01*
X123120449Y-77952306D01*
X164129500Y-77952306D01*
X164129500Y-79552324D01*
X164129501Y-79552341D01*
X164140000Y-79655119D01*
X164140001Y-79655122D01*
X164195185Y-79821654D01*
X164195186Y-79821657D01*
X164287288Y-79970979D01*
X164411344Y-80095035D01*
X164560666Y-80187137D01*
X164727203Y-80242322D01*
X164829991Y-80252823D01*
X166430008Y-80252822D01*
X166532797Y-80242322D01*
X166699334Y-80187137D01*
X166848656Y-80095035D01*
X166972712Y-79970979D01*
X167064814Y-79821657D01*
X167119999Y-79655120D01*
X167130500Y-79552332D01*
X167130499Y-77952315D01*
X167126134Y-77909589D01*
X167119999Y-77849526D01*
X167081622Y-77733713D01*
X210954500Y-77733713D01*
X210954500Y-77946286D01*
X210987753Y-78156239D01*
X211053444Y-78358414D01*
X211149951Y-78547820D01*
X211274890Y-78719786D01*
X211425213Y-78870109D01*
X211597179Y-78995048D01*
X211597181Y-78995049D01*
X211597184Y-78995051D01*
X211786588Y-79091557D01*
X211988757Y-79157246D01*
X212198713Y-79190500D01*
X212198714Y-79190500D01*
X212711286Y-79190500D01*
X212711287Y-79190500D01*
X212921243Y-79157246D01*
X213123412Y-79091557D01*
X213312816Y-78995051D01*
X213334789Y-78979086D01*
X213484786Y-78870109D01*
X213484788Y-78870106D01*
X213484792Y-78870104D01*
X213635104Y-78719792D01*
X213635106Y-78719788D01*
X213635109Y-78719786D01*
X213760048Y-78547820D01*
X213760047Y-78547820D01*
X213760051Y-78547816D01*
X213856557Y-78358412D01*
X213922246Y-78156243D01*
X213955500Y-77946287D01*
X213955500Y-77733713D01*
X213922246Y-77523757D01*
X213856557Y-77321588D01*
X213760051Y-77132184D01*
X213760049Y-77132181D01*
X213760048Y-77132179D01*
X213635109Y-76960213D01*
X213484786Y-76809890D01*
X213312820Y-76684951D01*
X213123414Y-76588444D01*
X213123413Y-76588443D01*
X213123412Y-76588443D01*
X212921243Y-76522754D01*
X212921241Y-76522753D01*
X212921240Y-76522753D01*
X212759957Y-76497208D01*
X212711287Y-76489500D01*
X212198713Y-76489500D01*
X212150042Y-76497208D01*
X211988760Y-76522753D01*
X211786585Y-76588444D01*
X211597179Y-76684951D01*
X211425213Y-76809890D01*
X211274890Y-76960213D01*
X211149951Y-77132179D01*
X211053444Y-77321585D01*
X210987753Y-77523760D01*
X210954500Y-77733713D01*
X167081622Y-77733713D01*
X167064814Y-77682989D01*
X166972712Y-77533667D01*
X166848656Y-77409611D01*
X166705947Y-77321588D01*
X166699336Y-77317510D01*
X166699331Y-77317508D01*
X166697862Y-77317021D01*
X166532797Y-77262324D01*
X166532795Y-77262323D01*
X166430010Y-77251823D01*
X164829998Y-77251823D01*
X164829981Y-77251824D01*
X164727203Y-77262323D01*
X164727200Y-77262324D01*
X164560668Y-77317508D01*
X164560663Y-77317510D01*
X164411342Y-77409612D01*
X164287289Y-77533665D01*
X164195187Y-77682986D01*
X164195185Y-77682991D01*
X164189942Y-77698814D01*
X164140001Y-77849526D01*
X164140001Y-77849527D01*
X164140000Y-77849527D01*
X164129500Y-77952306D01*
X123120449Y-77952306D01*
X123156784Y-77909589D01*
X123284205Y-77698809D01*
X123376165Y-77470317D01*
X123430281Y-77230034D01*
X123440500Y-77085295D01*
X123440499Y-74894706D01*
X123430281Y-74749966D01*
X123376165Y-74509683D01*
X123284205Y-74281191D01*
X123156784Y-74070411D01*
X123090930Y-73992990D01*
X122997201Y-73882798D01*
X122822027Y-73733796D01*
X122809589Y-73723216D01*
X122598809Y-73595795D01*
X122441121Y-73532331D01*
X122370318Y-73503835D01*
X122130036Y-73449719D01*
X122130029Y-73449718D01*
X121985296Y-73439500D01*
X119794707Y-73439500D01*
X119794701Y-73439501D01*
X119649972Y-73449718D01*
X119649966Y-73449718D01*
X119649966Y-73449719D01*
X119649963Y-73449719D01*
X119649961Y-73449720D01*
X119409685Y-73503834D01*
X119409680Y-73503835D01*
X119181190Y-73595795D01*
X119181185Y-73595798D01*
X118970417Y-73723212D01*
X118970407Y-73723219D01*
X118782798Y-73882798D01*
X118623219Y-74070407D01*
X118623212Y-74070417D01*
X118495798Y-74281185D01*
X118495795Y-74281190D01*
X118403835Y-74509680D01*
X118403835Y-74509682D01*
X118349719Y-74749963D01*
X118349718Y-74749970D01*
X118339500Y-74894702D01*
X103825437Y-74894702D01*
X103830421Y-72342135D01*
X113389500Y-72342135D01*
X113389500Y-73337870D01*
X113389501Y-73337876D01*
X113395908Y-73397483D01*
X113446202Y-73532328D01*
X113446206Y-73532335D01*
X113532452Y-73647544D01*
X113532455Y-73647547D01*
X113647664Y-73733793D01*
X113647671Y-73733797D01*
X113782517Y-73784091D01*
X113782516Y-73784091D01*
X113789444Y-73784835D01*
X113842127Y-73790500D01*
X115937872Y-73790499D01*
X115997483Y-73784091D01*
X116132331Y-73733796D01*
X116247546Y-73647546D01*
X116333796Y-73532331D01*
X116384091Y-73397483D01*
X116390500Y-73337873D01*
X116390499Y-72342128D01*
X116384091Y-72282517D01*
X116333796Y-72147669D01*
X116333795Y-72147668D01*
X116333793Y-72147664D01*
X116247547Y-72032455D01*
X116247544Y-72032452D01*
X116132335Y-71946206D01*
X116132328Y-71946202D01*
X115997482Y-71895908D01*
X115997483Y-71895908D01*
X115937883Y-71889501D01*
X115937881Y-71889500D01*
X115937873Y-71889500D01*
X115937864Y-71889500D01*
X113842129Y-71889500D01*
X113842123Y-71889501D01*
X113782516Y-71895908D01*
X113647671Y-71946202D01*
X113647664Y-71946206D01*
X113532455Y-72032452D01*
X113532452Y-72032455D01*
X113446206Y-72147664D01*
X113446202Y-72147671D01*
X113395908Y-72282517D01*
X113389501Y-72342116D01*
X113389501Y-72342123D01*
X113389500Y-72342135D01*
X103830421Y-72342135D01*
X103848227Y-63222116D01*
X124574500Y-63222116D01*
X124574500Y-63757883D01*
X124612721Y-64292278D01*
X124688968Y-64822593D01*
X124802849Y-65346097D01*
X124802852Y-65346107D01*
X124953793Y-65860162D01*
X125141029Y-66362160D01*
X125363580Y-66849481D01*
X125363584Y-66849488D01*
X125620347Y-67319713D01*
X125910004Y-67770431D01*
X125910007Y-67770436D01*
X126231068Y-68199324D01*
X126475335Y-68481222D01*
X126581925Y-68604234D01*
X126581934Y-68604243D01*
X126581946Y-68604256D01*
X126960743Y-68983053D01*
X126960756Y-68983065D01*
X126960766Y-68983075D01*
X127119013Y-69120197D01*
X127365675Y-69333931D01*
X127794563Y-69654992D01*
X127794568Y-69654995D01*
X128245280Y-69944649D01*
X128715507Y-70201413D01*
X128715511Y-70201415D01*
X128715518Y-70201419D01*
X129202839Y-70423970D01*
X129202843Y-70423971D01*
X129202853Y-70423976D01*
X129704835Y-70611206D01*
X130218892Y-70762147D01*
X130218902Y-70762150D01*
X130742406Y-70876031D01*
X130742413Y-70876032D01*
X131272722Y-70952279D01*
X131807119Y-70990500D01*
X132342881Y-70990500D01*
X132877278Y-70952279D01*
X133407587Y-70876032D01*
X133407588Y-70876031D01*
X133407593Y-70876031D01*
X133931097Y-70762150D01*
X133931100Y-70762149D01*
X133931105Y-70762148D01*
X134445165Y-70611206D01*
X134947147Y-70423976D01*
X134999922Y-70399874D01*
X135434481Y-70201419D01*
X135434485Y-70201416D01*
X135434493Y-70201413D01*
X135904720Y-69944649D01*
X136355432Y-69654995D01*
X136357811Y-69653213D01*
X136784324Y-69333931D01*
X136802265Y-69318384D01*
X137189234Y-68983075D01*
X137568075Y-68604234D01*
X137918924Y-68199332D01*
X137918923Y-68199332D01*
X137918931Y-68199324D01*
X138239992Y-67770436D01*
X138239991Y-67770436D01*
X138239995Y-67770432D01*
X138529649Y-67319720D01*
X138786413Y-66849493D01*
X138786416Y-66849485D01*
X138786419Y-66849481D01*
X139008970Y-66362160D01*
X139008969Y-66362160D01*
X139008976Y-66362147D01*
X139196206Y-65860165D01*
X139347148Y-65346105D01*
X139461032Y-64822587D01*
X139537279Y-64292278D01*
X139575500Y-63757881D01*
X139575500Y-63222119D01*
X139559879Y-63003713D01*
X210954500Y-63003713D01*
X210954500Y-63216286D01*
X210987753Y-63426239D01*
X211053444Y-63628414D01*
X211149951Y-63817820D01*
X211274890Y-63989786D01*
X211425213Y-64140109D01*
X211597179Y-64265048D01*
X211597181Y-64265049D01*
X211597184Y-64265051D01*
X211786588Y-64361557D01*
X211988757Y-64427246D01*
X212198713Y-64460500D01*
X212198714Y-64460500D01*
X212711286Y-64460500D01*
X212711287Y-64460500D01*
X212921243Y-64427246D01*
X213123412Y-64361557D01*
X213312816Y-64265051D01*
X213334789Y-64249086D01*
X213484786Y-64140109D01*
X213484788Y-64140106D01*
X213484792Y-64140104D01*
X213635104Y-63989792D01*
X213635106Y-63989788D01*
X213635109Y-63989786D01*
X213760048Y-63817820D01*
X213760047Y-63817820D01*
X213760051Y-63817816D01*
X213856557Y-63628412D01*
X213922246Y-63426243D01*
X213955500Y-63216287D01*
X213955500Y-63003713D01*
X213922246Y-62793757D01*
X213856557Y-62591588D01*
X213760051Y-62402184D01*
X213760049Y-62402181D01*
X213760048Y-62402179D01*
X213635109Y-62230213D01*
X213484786Y-62079890D01*
X213312820Y-61954951D01*
X213123414Y-61858444D01*
X213123413Y-61858443D01*
X213123412Y-61858443D01*
X212921243Y-61792754D01*
X212921241Y-61792753D01*
X212921240Y-61792753D01*
X212759957Y-61767208D01*
X212711287Y-61759500D01*
X212198713Y-61759500D01*
X212150042Y-61767208D01*
X211988760Y-61792753D01*
X211786585Y-61858444D01*
X211597179Y-61954951D01*
X211425213Y-62079890D01*
X211274890Y-62230213D01*
X211149951Y-62402179D01*
X211053444Y-62591585D01*
X210987753Y-62793760D01*
X210954500Y-63003713D01*
X139559879Y-63003713D01*
X139537279Y-62687722D01*
X139461032Y-62157413D01*
X139461031Y-62157406D01*
X139347150Y-61633902D01*
X139347147Y-61633892D01*
X139196206Y-61119835D01*
X139008976Y-60617853D01*
X139008970Y-60617839D01*
X138786419Y-60130518D01*
X138786415Y-60130511D01*
X138529652Y-59660286D01*
X138529649Y-59660280D01*
X138239995Y-59209568D01*
X138239992Y-59209563D01*
X137918931Y-58780675D01*
X137705197Y-58534013D01*
X137568075Y-58375766D01*
X137568065Y-58375756D01*
X137568053Y-58375743D01*
X137189256Y-57996946D01*
X137189243Y-57996934D01*
X137189234Y-57996925D01*
X137066222Y-57890335D01*
X136784324Y-57646068D01*
X136355436Y-57325007D01*
X136355431Y-57325004D01*
X136167266Y-57204078D01*
X135904720Y-57035351D01*
X135434493Y-56778587D01*
X135434488Y-56778584D01*
X135434481Y-56778580D01*
X134947160Y-56556029D01*
X134445162Y-56368793D01*
X133931107Y-56217852D01*
X133931097Y-56217849D01*
X133407593Y-56103968D01*
X132877278Y-56027721D01*
X132342883Y-55989500D01*
X132342881Y-55989500D01*
X131807119Y-55989500D01*
X131807116Y-55989500D01*
X131272721Y-56027721D01*
X130742406Y-56103968D01*
X130218902Y-56217849D01*
X130218892Y-56217852D01*
X129704837Y-56368793D01*
X129202839Y-56556029D01*
X128715518Y-56778580D01*
X128715511Y-56778584D01*
X128245286Y-57035347D01*
X127794568Y-57325004D01*
X127794563Y-57325007D01*
X127365675Y-57646068D01*
X126960769Y-57996922D01*
X126960743Y-57996946D01*
X126581946Y-58375743D01*
X126581922Y-58375769D01*
X126231068Y-58780675D01*
X125910007Y-59209563D01*
X125910004Y-59209568D01*
X125620347Y-59660286D01*
X125363584Y-60130511D01*
X125363580Y-60130518D01*
X125141029Y-60617839D01*
X124953793Y-61119837D01*
X124802852Y-61633892D01*
X124802849Y-61633902D01*
X124688968Y-62157406D01*
X124612721Y-62687721D01*
X124574500Y-63222116D01*
X103848227Y-63222116D01*
X103862774Y-55771150D01*
X103882589Y-55704153D01*
X103935482Y-55658501D01*
X104004660Y-55648693D01*
X104068159Y-55677842D01*
X104085149Y-55695910D01*
X104105733Y-55722736D01*
X104105739Y-55722743D01*
X104277256Y-55894260D01*
X104277262Y-55894265D01*
X104469711Y-56041936D01*
X104679788Y-56163224D01*
X104903900Y-56256054D01*
X105138211Y-56318838D01*
X105318586Y-56342584D01*
X105378711Y-56350500D01*
X105378712Y-56350500D01*
X105621289Y-56350500D01*
X105669388Y-56344167D01*
X105861789Y-56318838D01*
X106096100Y-56256054D01*
X106320212Y-56163224D01*
X106530289Y-56041936D01*
X106722738Y-55894265D01*
X106894265Y-55722738D01*
X107041936Y-55530289D01*
X107163224Y-55320212D01*
X107256054Y-55096100D01*
X107318838Y-54861789D01*
X107350500Y-54621288D01*
X107350500Y-54378712D01*
X107350500Y-54378711D01*
X214149500Y-54378711D01*
X214149500Y-54621288D01*
X214181161Y-54861785D01*
X214243947Y-55096104D01*
X214336773Y-55320205D01*
X214336776Y-55320212D01*
X214458064Y-55530289D01*
X214458066Y-55530292D01*
X214458067Y-55530293D01*
X214605733Y-55722736D01*
X214605739Y-55722743D01*
X214777256Y-55894260D01*
X214777262Y-55894265D01*
X214969711Y-56041936D01*
X215179788Y-56163224D01*
X215403900Y-56256054D01*
X215638211Y-56318838D01*
X215818586Y-56342584D01*
X215878711Y-56350500D01*
X215878712Y-56350500D01*
X216121289Y-56350500D01*
X216169388Y-56344167D01*
X216361789Y-56318838D01*
X216596100Y-56256054D01*
X216820212Y-56163224D01*
X217030289Y-56041936D01*
X217222738Y-55894265D01*
X217394265Y-55722738D01*
X217541936Y-55530289D01*
X217663224Y-55320212D01*
X217756054Y-55096100D01*
X217818838Y-54861789D01*
X217850500Y-54621288D01*
X217850500Y-54378712D01*
X217818838Y-54138211D01*
X217756054Y-53903900D01*
X217663224Y-53679788D01*
X217541936Y-53469711D01*
X217394265Y-53277262D01*
X217394260Y-53277256D01*
X217222743Y-53105739D01*
X217222736Y-53105733D01*
X217030293Y-52958067D01*
X217030292Y-52958066D01*
X217030289Y-52958064D01*
X216820212Y-52836776D01*
X216820205Y-52836773D01*
X216596104Y-52743947D01*
X216463535Y-52708425D01*
X216361789Y-52681162D01*
X216361788Y-52681161D01*
X216361785Y-52681161D01*
X216121289Y-52649500D01*
X216121288Y-52649500D01*
X215878712Y-52649500D01*
X215878711Y-52649500D01*
X215638214Y-52681161D01*
X215403895Y-52743947D01*
X215179794Y-52836773D01*
X215179785Y-52836777D01*
X214969706Y-52958067D01*
X214777263Y-53105733D01*
X214777256Y-53105739D01*
X214605739Y-53277256D01*
X214605733Y-53277263D01*
X214458067Y-53469706D01*
X214336777Y-53679785D01*
X214336773Y-53679794D01*
X214243947Y-53903895D01*
X214181161Y-54138214D01*
X214149500Y-54378711D01*
X107350500Y-54378711D01*
X107318838Y-54138211D01*
X107256054Y-53903900D01*
X107163224Y-53679788D01*
X107041936Y-53469711D01*
X106894265Y-53277262D01*
X106894260Y-53277256D01*
X106722743Y-53105739D01*
X106722736Y-53105733D01*
X106530293Y-52958067D01*
X106530292Y-52958066D01*
X106530289Y-52958064D01*
X106320212Y-52836776D01*
X106320205Y-52836773D01*
X106096104Y-52743947D01*
X105963535Y-52708425D01*
X105861789Y-52681162D01*
X105861788Y-52681161D01*
X105861785Y-52681161D01*
X105621289Y-52649500D01*
X105621288Y-52649500D01*
X105378712Y-52649500D01*
X105378711Y-52649500D01*
X105138214Y-52681161D01*
X104903895Y-52743947D01*
X104679794Y-52836773D01*
X104679785Y-52836777D01*
X104469706Y-52958067D01*
X104277263Y-53105733D01*
X104277256Y-53105739D01*
X104105739Y-53277256D01*
X104105734Y-53277262D01*
X104090124Y-53297605D01*
X104033695Y-53338806D01*
X103963949Y-53342959D01*
X103903029Y-53308745D01*
X103870278Y-53247027D01*
X103867751Y-53221884D01*
X103869757Y-52193988D01*
X103889573Y-52126991D01*
X103942466Y-52081339D01*
X103993988Y-52070234D01*
X217919919Y-52285952D01*
G37*
%TD.AperFunction*%
%TD*%
M02*
