%TF.GenerationSoftware,KiCad,Pcbnew,10.0.5*%
%TF.CreationDate,2026-08-19T16:42:30+05:30*%
%TF.ProjectId,pdb_aethrone,7064625f-6165-4746-9872-6f6e652e6b69,rev?*%
%TF.SameCoordinates,Original*%
%TF.FileFunction,Soldermask,Top*%
%TF.FilePolarity,Negative*%
%FSLAX46Y46*%
G04 Gerber Fmt 4.6, Leading zero omitted, Abs format (unit mm)*
G04 Created by KiCad (PCBNEW 10.0.5) date 2026-08-19 16:42:30*
%MOMM*%
%LPD*%
G01*
G04 APERTURE LIST*
G04 Aperture macros list*
%AMRoundRect*
0 Rectangle with rounded corners*
0 $1 Rounding radius*
0 $2 $3 $4 $5 $6 $7 $8 $9 X,Y pos of 4 corners*
0 Add a 4 corners polygon primitive as box body*
4,1,4,$2,$3,$4,$5,$6,$7,$8,$9,$2,$3,0*
0 Add four circle primitives for the rounded corners*
1,1,$1+$1,$2,$3*
1,1,$1+$1,$4,$5*
1,1,$1+$1,$6,$7*
1,1,$1+$1,$8,$9*
0 Add four rect primitives between the rounded corners*
20,1,$1+$1,$2,$3,$4,$5,0*
20,1,$1+$1,$4,$5,$6,$7,0*
20,1,$1+$1,$6,$7,$8,$9,0*
20,1,$1+$1,$8,$9,$2,$3,0*%
%AMFreePoly0*
4,1,13,2.850000,-5.050000,1.450000,-5.050000,1.450000,-4.350000,-1.450000,-4.350000,-1.450000,-4.850000,-5.150000,-4.850000,-5.150000,4.850000,-1.450000,4.850000,-1.450000,4.350000,1.450000,4.350000,1.450000,5.050000,2.850000,5.050000,2.850000,-5.050000,2.850000,-5.050000,$1*%
%AMFreePoly1*
4,1,30,0.400000,-4.000000,-0.400000,-4.000000,-2.400000,-4.000000,-2.400000,-3.200000,-0.400000,-3.200000,-0.400000,-2.800000,-2.400000,-2.800000,-2.400000,-2.000000,-0.400000,-2.000000,-0.400000,-1.600000,-2.400000,-1.600000,-2.400000,-0.800000,-0.400000,-0.800000,-0.400000,-0.400000,-2.400000,-0.400000,-2.400000,0.400000,-0.400000,0.400000,-0.400000,0.800000,-2.400000,0.800000,-2.400000,1.600000,
-0.400000,1.600000,-0.400000,2.000000,-2.400000,2.000000,-2.400000,2.800000,-0.400000,2.800000,-0.400000,3.200000,-2.400000,3.200000,-2.400000,4.000000,0.400000,4.000000,0.400000,-4.000000,0.400000,-4.000000,$1*%
G04 Aperture macros list end*
%ADD10C,3.200000*%
%ADD11R,2.600000X3.100000*%
%ADD12R,1.550000X0.600000*%
%ADD13C,6.000000*%
%ADD14RoundRect,0.225000X0.225000X0.250000X-0.225000X0.250000X-0.225000X-0.250000X0.225000X-0.250000X0*%
%ADD15RoundRect,0.200000X-0.275000X0.200000X-0.275000X-0.200000X0.275000X-0.200000X0.275000X0.200000X0*%
%ADD16R,5.400000X2.900000*%
%ADD17RoundRect,0.243750X0.243750X0.456250X-0.243750X0.456250X-0.243750X-0.456250X0.243750X-0.456250X0*%
%ADD18RoundRect,0.250000X-1.100000X0.325000X-1.100000X-0.325000X1.100000X-0.325000X1.100000X0.325000X0*%
%ADD19RoundRect,0.250000X1.000000X0.650000X-1.000000X0.650000X-1.000000X-0.650000X1.000000X-0.650000X0*%
%ADD20RoundRect,0.250000X-0.550000X1.500000X-0.550000X-1.500000X0.550000X-1.500000X0.550000X1.500000X0*%
%ADD21RoundRect,0.200000X0.275000X-0.200000X0.275000X0.200000X-0.275000X0.200000X-0.275000X-0.200000X0*%
%ADD22RoundRect,0.250000X0.750000X-0.600000X0.750000X0.600000X-0.750000X0.600000X-0.750000X-0.600000X0*%
%ADD23O,2.000000X1.700000*%
%ADD24FreePoly0,270.000000*%
%ADD25FreePoly1,270.000000*%
%ADD26R,0.800000X2.800000*%
%ADD27R,2.900000X5.400000*%
%ADD28RoundRect,0.150000X0.512500X0.150000X-0.512500X0.150000X-0.512500X-0.150000X0.512500X-0.150000X0*%
%ADD29C,14.000000*%
%ADD30RoundRect,0.250000X1.100000X-0.325000X1.100000X0.325000X-1.100000X0.325000X-1.100000X-0.325000X0*%
%ADD31RoundRect,0.225000X-0.225000X-0.250000X0.225000X-0.250000X0.225000X0.250000X-0.225000X0.250000X0*%
%ADD32R,2.000000X0.900000*%
%ADD33RoundRect,1.025000X1.025000X-1.025000X1.025000X1.025000X-1.025000X1.025000X-1.025000X-1.025000X0*%
%ADD34C,4.100000*%
%ADD35RoundRect,0.150000X0.825000X0.150000X-0.825000X0.150000X-0.825000X-0.150000X0.825000X-0.150000X0*%
%ADD36RoundRect,0.200000X-0.200000X-0.275000X0.200000X-0.275000X0.200000X0.275000X-0.200000X0.275000X0*%
%ADD37RoundRect,0.250000X-1.400000X-1.000000X1.400000X-1.000000X1.400000X1.000000X-1.400000X1.000000X0*%
%ADD38RoundRect,0.250000X0.650000X-1.000000X0.650000X1.000000X-0.650000X1.000000X-0.650000X-1.000000X0*%
%ADD39RoundRect,0.250000X-0.750000X0.750000X-0.750000X-0.750000X0.750000X-0.750000X0.750000X0.750000X0*%
%ADD40C,2.000000*%
G04 APERTURE END LIST*
D10*
%TO.C,REF\u002A\u002A*%
X105500000Y-112500000D03*
%TD*%
%TO.C,REF\u002A\u002A*%
X216000000Y-112500000D03*
%TD*%
%TO.C,REF\u002A\u002A*%
X216000000Y-54500000D03*
%TD*%
%TO.C,REF\u002A\u002A*%
X105500000Y-54500000D03*
%TD*%
D11*
%TO.C,U2*%
X177030000Y-79020000D03*
D12*
X174330000Y-80925000D03*
X174330000Y-79655000D03*
X174330000Y-78385000D03*
X174330000Y-77115000D03*
X179730000Y-77115000D03*
X179730000Y-78385000D03*
X179730000Y-79655000D03*
X179730000Y-80925000D03*
%TD*%
D13*
%TO.C,ESC_OUT1*%
X131500000Y-110000000D03*
X142500000Y-110000000D03*
X153500000Y-110000000D03*
X164500000Y-110000000D03*
X175500000Y-110000000D03*
X186500000Y-110000000D03*
X197500000Y-110000000D03*
X208500000Y-110000000D03*
%TD*%
D14*
%TO.C,C11*%
X161165000Y-69870000D03*
X162715000Y-69870000D03*
%TD*%
D15*
%TO.C,R2*%
X181910000Y-76925000D03*
X181910000Y-78575000D03*
%TD*%
D16*
%TO.C,L2*%
X191790000Y-76750000D03*
X191790000Y-86650000D03*
%TD*%
D17*
%TO.C,D2*%
X158852500Y-89840000D03*
X160727500Y-89840000D03*
%TD*%
D18*
%TO.C,C6*%
X172360000Y-84825000D03*
X172360000Y-87775000D03*
%TD*%
D19*
%TO.C,D3*%
X176697500Y-86640000D03*
X180697500Y-86640000D03*
%TD*%
D20*
%TO.C,C7*%
X202830000Y-75710000D03*
X202830000Y-81110000D03*
%TD*%
D14*
%TO.C,C8*%
X177680000Y-82620000D03*
X176130000Y-82620000D03*
%TD*%
D21*
%TO.C,R3*%
X181910000Y-81745000D03*
X181910000Y-80095000D03*
%TD*%
D22*
%TO.C,5V@3A1*%
X212455000Y-80340000D03*
D23*
X212455000Y-77840000D03*
%TD*%
D24*
%TO.C,Q1*%
X146550000Y-99725000D03*
D25*
X145950000Y-91675000D03*
D26*
X150750000Y-90675000D03*
%TD*%
D27*
%TO.C,L1*%
X143250000Y-81250000D03*
X153150000Y-81250000D03*
%TD*%
D28*
%TO.C,U1*%
X154212500Y-95140000D03*
X154212500Y-94190000D03*
X154212500Y-93240000D03*
X156487500Y-93240000D03*
X156487500Y-94190000D03*
X156487500Y-95140000D03*
%TD*%
D29*
%TO.C,F1*%
X132075000Y-93490000D03*
X132075000Y-63490000D03*
%TD*%
D30*
%TO.C,C10*%
X154500000Y-64700000D03*
X154500000Y-67650000D03*
%TD*%
D31*
%TO.C,C4*%
X154575000Y-96940000D03*
X156125000Y-96940000D03*
%TD*%
D21*
%TO.C,R5*%
X165240000Y-64445000D03*
X165240000Y-66095000D03*
%TD*%
D22*
%TO.C,12V@2A1*%
X212455000Y-65610000D03*
D23*
X212455000Y-63110000D03*
%TD*%
D32*
%TO.C,battery_input1*%
X114890000Y-86340000D03*
X114890000Y-72840000D03*
D33*
X120890000Y-75990000D03*
D34*
X120890000Y-83190000D03*
%TD*%
D35*
%TO.C,U3*%
X162790000Y-68125000D03*
X162790000Y-66855000D03*
X162790000Y-65585000D03*
X162790000Y-64315000D03*
X157840000Y-64315000D03*
X157840000Y-65585000D03*
X157840000Y-66855000D03*
X157840000Y-68125000D03*
%TD*%
D36*
%TO.C,R1*%
X154205000Y-89640000D03*
X155855000Y-89640000D03*
%TD*%
%TO.C,R4*%
X167765000Y-65380000D03*
X169415000Y-65380000D03*
%TD*%
D37*
%TO.C,D1*%
X163960000Y-94492500D03*
X163960000Y-101292500D03*
%TD*%
D38*
%TO.C,D4*%
X158030000Y-72390000D03*
X158030000Y-76390000D03*
%TD*%
D39*
%TO.C,C2*%
X184900000Y-95440000D03*
D40*
X184900000Y-100440000D03*
%TD*%
D39*
%TO.C,C3*%
X173350000Y-95440000D03*
D40*
X173350000Y-100440000D03*
%TD*%
D39*
%TO.C,C1*%
X196450000Y-95440000D03*
D40*
X196450000Y-100440000D03*
%TD*%
D20*
%TO.C,C9*%
X190900000Y-62120000D03*
X190900000Y-67520000D03*
%TD*%
D27*
%TO.C,L3*%
X173190000Y-66750000D03*
X183090000Y-66750000D03*
%TD*%
D39*
%TO.C,C5*%
X165630000Y-78752323D03*
D40*
X165630000Y-83752323D03*
%TD*%
M02*
